<svg id="svg" version="1.1" xmlns="http://www.w3.org/2000/svg" xmlns:xlink="http://www.w3.org/1999/xlink" width="400" height="400" viewBox="0, 0, 400,400"><g id="svgg"><path id="path0" d="M197.600 38.319 C 186.690 39.612,179.202 45.012,178.299 52.236 C 178.222 52.854,178.220 53.638,178.295 53.979 L 178.432 54.600 200.812 54.600 L 223.192 54.600 223.322 54.083 C 224.332 50.059,220.181 44.111,214.289 41.142 C 210.132 39.047,202.438 37.746,197.600 38.319 M195.100 71.019 C 185.523 71.612,169.681 74.742,166.151 76.738 C 165.786 76.945,167.909 80.296,169.424 81.904 L 170.370 82.907 152.373 90.893 C 142.474 95.285,134.348 98.929,134.316 98.990 C 134.283 99.050,135.233 107.785,136.426 118.400 C 137.620 129.015,140.759 157.365,143.403 181.400 C 146.047 205.435,148.238 225.190,148.272 225.300 C 148.306 225.410,148.395 220.685,148.470 214.800 C 148.545 208.915,148.695 197.980,148.804 190.500 C 148.914 183.020,149.090 170.915,149.196 163.600 C 149.829 119.979,150.036 107.257,150.120 106.900 C 150.171 106.680,152.158 104.835,154.536 102.800 C 156.913 100.765,162.278 96.163,166.459 92.573 L 174.059 86.046 175.440 86.940 C 186.601 94.159,205.446 95.911,219.947 91.077 C 227.614 88.521,233.840 84.153,236.965 79.137 C 238.521 76.640,238.558 76.802,236.261 76.050 C 223.811 71.972,208.978 70.159,195.100 71.019 M145.442 243.587 C 144.761 244.570,143.168 246.640,141.904 248.187 L 139.604 251.000 143.202 251.000 L 146.800 251.000 146.800 246.400 C 146.800 243.870,146.773 241.800,146.740 241.800 C 146.707 241.800,146.123 242.604,145.442 243.587 M189.700 288.428 C 170.793 288.615,146.474 289.493,137.350 290.318 L 136.000 290.441 136.000 305.627 L 136.000 320.814 136.950 320.706 C 138.879 320.487,149.985 319.894,159.400 319.507 C 177.968 318.743,215.701 318.575,232.100 319.183 C 262.378 320.304,286.428 322.196,310.000 325.311 C 312.035 325.580,313.723 325.800,313.750 325.800 C 313.778 325.800,313.800 318.962,313.800 310.604 L 313.800 295.408 313.350 295.304 C 311.420 294.859,284.807 292.188,272.500 291.204 C 243.447 288.880,220.817 288.121,189.700 288.428 M197.986 350.261 C 195.281 351.027,193.180 353.341,192.489 356.313 L 192.246 357.359 192.813 357.473 C 196.452 358.200,207.200 357.930,207.200 357.111 C 207.200 353.053,201.939 349.142,197.986 350.261 " stroke="none" fill="#fbe8bf" fill-rule="evenodd"></path><path id="path1" d="M234.604 47.041 C 234.602 47.119,234.879 47.655,235.219 48.232 C 238.581 53.934,242.392 64.921,242.399 68.934 C 242.400 69.387,242.688 69.526,244.600 70.001 C 245.095 70.123,245.652 70.268,245.839 70.322 C 246.644 70.555,244.082 62.759,241.822 58.100 C 239.789 53.909,234.637 46.015,234.604 47.041 M292.600 95.055 C 292.600 95.858,295.369 122.790,296.409 132.100 C 300.981 173.029,306.205 202.911,313.595 230.400 C 317.301 244.185,320.454 250.340,327.891 258.300 C 328.925 259.407,328.884 259.328,327.356 257.276 C 322.164 250.302,320.249 245.384,315.803 227.607 C 307.956 196.229,303.776 169.215,297.980 112.400 C 297.177 104.535,296.452 98.071,296.368 98.036 C 296.186 97.959,293.849 95.624,293.352 95.022 C 292.899 94.473,292.600 94.486,292.600 95.055 M357.757 290.057 C 364.127 298.102,366.423 303.489,370.604 320.200 C 377.600 348.168,376.556 353.351,362.700 359.417 C 344.848 367.232,312.551 371.316,255.300 372.998 C 216.141 374.149,154.906 374.147,124.100 372.993 C 92.497 371.810,56.973 365.844,40.310 358.923 C 37.701 357.839,37.594 357.848,39.355 359.007 C 50.204 366.143,76.141 372.061,112.000 375.581 C 138.315 378.164,234.558 378.228,284.800 375.694 C 328.729 373.479,354.231 369.296,369.058 361.873 C 380.201 356.294,380.946 350.238,373.900 322.500 C 369.746 306.145,367.317 300.960,359.469 291.700 C 356.948 288.725,355.927 287.745,357.757 290.057 M148.600 320.115 C 112.043 322.243,82.712 326.167,59.700 332.008 C 51.451 334.102,51.597 333.957,57.707 333.980 L 62.914 334.000 66.007 333.318 C 88.589 328.335,114.738 325.084,147.382 323.199 C 149.297 323.088,150.897 323.031,150.938 323.071 C 150.978 323.112,151.139 323.990,151.295 325.022 C 151.747 328.016,152.284 330.179,153.238 332.850 L 153.649 334.000 155.513 334.000 L 157.378 334.000 156.914 332.950 C 155.651 330.091,154.402 324.925,154.398 322.540 C 154.394 320.369,154.230 319.796,153.624 319.826 C 153.336 319.841,151.075 319.971,148.600 320.115 M245.118 321.536 C 244.845 325.517,244.091 328.916,242.717 332.350 L 242.057 334.000 243.897 334.000 L 245.738 334.000 246.467 331.850 C 247.308 329.368,247.696 327.758,248.100 325.066 C 248.259 324.009,248.421 323.112,248.461 323.072 C 248.541 322.992,256.499 323.429,263.700 323.909 C 291.539 325.765,316.526 328.787,338.953 333.011 L 344.207 334.000 350.253 333.978 L 356.300 333.956 354.000 333.384 C 329.554 327.311,289.109 322.096,251.800 320.206 C 249.545 320.091,247.146 319.947,246.469 319.885 L 245.238 319.772 245.118 321.536 " stroke="none" fill="#2a0f0a" fill-rule="evenodd"></path><path id="path2" d="M196.800 32.317 C 196.525 32.366,195.445 32.550,194.400 32.726 C 179.594 35.220,167.344 48.521,163.304 66.489 C 162.740 68.999,162.719 68.853,163.613 68.594 C 167.811 67.380,178.679 65.523,184.100 65.094 C 186.415 64.911,186.420 64.902,184.779 63.780 C 170.678 54.139,180.661 38.200,200.800 38.200 C 221.005 38.200,231.103 54.639,216.619 63.953 C 215.160 64.892,215.153 64.885,217.800 65.098 C 222.055 65.440,230.386 66.689,235.172 67.703 C 237.937 68.288,237.689 68.538,237.075 65.790 C 233.304 48.894,221.348 35.909,206.700 32.800 C 204.770 32.390,198.187 32.069,196.800 32.317 M195.950 64.346 C 196.418 64.389,197.183 64.389,197.650 64.346 C 198.118 64.304,197.735 64.270,196.800 64.270 C 195.865 64.270,195.483 64.304,195.950 64.346 M204.150 64.346 C 204.618 64.389,205.382 64.389,205.850 64.346 C 206.318 64.304,205.935 64.270,205.000 64.270 C 204.065 64.270,203.683 64.304,204.150 64.346 M191.050 64.538 C 191.243 64.588,191.558 64.588,191.750 64.538 C 191.942 64.488,191.785 64.446,191.400 64.446 C 191.015 64.446,190.858 64.488,191.050 64.538 M210.050 64.538 C 210.243 64.588,210.558 64.588,210.750 64.538 C 210.943 64.488,210.785 64.446,210.400 64.446 C 210.015 64.446,209.857 64.488,210.050 64.538 M191.600 70.714 C 166.133 72.414,142.336 79.604,122.300 91.652 C 117.173 94.734,116.952 94.913,116.656 96.205 C 113.655 109.311,111.891 121.465,109.097 148.300 C 105.819 179.781,104.229 190.058,99.999 207.100 C 98.907 211.500,97.297 218.385,96.423 222.400 C 90.810 248.158,85.877 257.719,74.071 265.727 C 67.376 270.267,57.018 280.647,50.746 289.100 C 48.259 292.453,42.804 301.274,43.061 301.527 C 43.083 301.548,44.630 301.256,46.500 300.878 C 51.179 299.933,59.156 298.559,64.900 297.708 C 67.540 297.318,70.037 296.946,70.449 296.882 L 71.198 296.765 71.249 312.948 L 71.300 329.130 74.800 328.461 C 85.646 326.386,101.382 324.081,112.500 322.940 L 114.900 322.693 115.000 307.297 L 115.100 291.900 118.800 291.562 C 185.932 285.427,262.976 287.758,335.952 298.134 L 345.405 299.477 345.352 315.421 L 345.300 331.365 347.000 331.697 C 349.827 332.249,360.295 334.740,363.600 335.648 L 366.700 336.500 366.809 339.200 L 366.918 341.900 366.959 339.395 C 367.049 333.891,366.104 329.586,362.040 317.000 C 361.063 313.975,359.971 310.375,359.613 309.000 C 358.586 305.059,358.436 304.648,357.184 302.355 C 352.601 293.957,348.149 288.489,334.921 275.008 C 313.838 253.523,307.684 243.913,305.527 229.100 C 305.367 228.000,304.601 224.535,303.824 221.400 C 297.566 196.129,292.999 168.442,288.712 129.800 C 287.710 120.768,285.200 97.018,285.200 96.573 C 285.200 96.046,276.021 90.799,268.600 87.084 C 242.686 74.112,218.312 68.930,191.600 70.714 M213.900 71.291 C 248.390 75.076,274.316 92.993,275.238 113.680 L 275.300 115.060 273.551 116.125 C 258.204 125.467,238.615 131.372,215.800 133.534 C 211.102 133.979,194.368 134.049,189.800 133.642 C 175.552 132.372,164.040 130.069,152.864 126.252 L 150.029 125.283 149.921 126.892 C 149.862 127.776,149.764 132.280,149.705 136.900 C 149.645 141.520,149.547 147.865,149.486 151.000 C 149.426 154.135,149.157 172.029,148.888 190.764 C 148.321 230.350,148.389 226.351,148.288 226.100 C 148.244 225.990,146.050 206.325,143.411 182.400 C 138.674 139.436,136.422 119.339,136.341 119.292 C 136.319 119.279,135.670 118.931,134.900 118.519 C 134.130 118.107,132.480 117.169,131.233 116.435 L 128.967 115.100 129.098 113.600 C 129.483 109.180,131.081 104.288,133.367 100.530 C 133.825 99.776,134.200 99.124,134.200 99.081 C 134.200 98.798,137.565 94.655,139.144 92.995 C 150.281 81.282,170.421 72.933,191.700 71.208 C 193.130 71.092,194.660 70.963,195.100 70.920 C 197.299 70.709,211.077 70.981,213.900 71.291 M146.890 248.930 L 146.743 256.260 148.221 256.129 C 205.812 251.022,255.609 256.402,291.796 271.638 C 294.858 272.928,304.663 277.604,304.547 277.720 C 304.241 278.025,250.667 279.876,218.400 280.696 C 140.832 282.667,97.800 282.026,97.800 278.899 C 97.800 278.439,98.631 278.008,101.464 276.999 C 118.618 270.886,135.374 258.027,145.716 243.039 C 146.257 242.254,146.776 241.610,146.869 241.606 C 146.961 241.603,146.971 244.899,146.890 248.930 M184.050 318.943 C 184.353 318.989,184.847 318.989,185.150 318.943 C 185.453 318.897,185.205 318.860,184.600 318.860 C 183.995 318.860,183.748 318.897,184.050 318.943 M213.550 318.945 C 213.907 318.989,214.493 318.989,214.850 318.945 C 215.207 318.900,214.915 318.864,214.200 318.864 C 213.485 318.864,213.193 318.900,213.550 318.945 M173.650 319.138 C 173.843 319.188,174.158 319.188,174.350 319.138 C 174.543 319.088,174.385 319.046,174.000 319.046 C 173.615 319.046,173.458 319.088,173.650 319.138 M178.100 322.016 C 171.298 322.188,160.949 322.541,157.150 322.732 L 154.600 322.860 154.600 323.420 C 154.600 324.581,155.443 328.280,156.224 330.547 C 159.710 340.662,168.405 349.422,179.478 353.975 C 182.371 355.165,182.200 355.129,182.200 354.546 C 182.200 351.394,185.866 344.998,189.190 342.349 C 199.589 334.064,214.343 340.137,217.195 353.875 L 217.425 354.985 218.563 354.572 C 232.272 349.593,243.497 336.575,244.709 324.250 L 244.852 322.800 244.276 322.800 C 243.959 322.799,240.145 322.665,235.800 322.501 C 217.508 321.810,194.035 321.613,178.100 322.016 M308.650 362.538 C 308.843 362.588,309.158 362.588,309.350 362.538 C 309.543 362.488,309.385 362.446,309.000 362.446 C 308.615 362.446,308.457 362.488,308.650 362.538 M306.250 362.738 C 306.443 362.788,306.757 362.788,306.950 362.738 C 307.143 362.688,306.985 362.646,306.600 362.646 C 306.215 362.646,306.058 362.688,306.250 362.738 M303.352 362.941 C 303.601 362.989,303.961 362.987,304.152 362.937 C 304.344 362.887,304.140 362.848,303.700 362.850 C 303.260 362.853,303.104 362.894,303.352 362.941 M300.150 363.141 C 300.397 363.189,300.803 363.189,301.050 363.141 C 301.298 363.093,301.095 363.054,300.600 363.054 C 300.105 363.054,299.903 363.093,300.150 363.141 M296.354 363.345 C 296.713 363.389,297.253 363.389,297.554 363.343 C 297.854 363.297,297.560 363.261,296.900 363.262 C 296.240 363.263,295.994 363.300,296.354 363.345 M291.950 363.545 C 292.308 363.589,292.893 363.589,293.250 363.545 C 293.608 363.500,293.315 363.464,292.600 363.464 C 291.885 363.464,291.593 363.500,291.950 363.545 M286.755 363.747 C 287.226 363.789,287.946 363.788,288.355 363.745 C 288.765 363.702,288.380 363.668,287.500 363.669 C 286.620 363.669,286.285 363.704,286.755 363.747 M280.757 363.948 C 281.338 363.988,282.238 363.988,282.757 363.947 C 283.276 363.906,282.800 363.873,281.700 363.873 C 280.600 363.874,280.176 363.907,280.757 363.948 M273.857 364.148 C 274.494 364.188,275.484 364.187,276.057 364.147 C 276.631 364.107,276.110 364.074,274.900 364.075 C 273.690 364.075,273.221 364.108,273.857 364.148 M267.150 364.347 C 267.728 364.388,268.673 364.388,269.250 364.347 C 269.828 364.307,269.355 364.274,268.200 364.274 C 267.045 364.274,266.572 364.307,267.150 364.347 M110.250 364.538 C 110.442 364.588,110.758 364.588,110.950 364.538 C 111.142 364.488,110.985 364.446,110.600 364.446 C 110.215 364.446,110.058 364.488,110.250 364.538 M261.250 364.547 C 261.772 364.588,262.627 364.588,263.150 364.547 C 263.673 364.506,263.245 364.472,262.200 364.472 C 261.155 364.472,260.728 364.506,261.250 364.547 M112.850 364.738 C 113.043 364.788,113.358 364.788,113.550 364.738 C 113.743 364.688,113.585 364.646,113.200 364.646 C 112.815 364.646,112.658 364.688,112.850 364.738 M256.450 364.746 C 256.863 364.789,257.538 364.789,257.950 364.746 C 258.363 364.703,258.025 364.667,257.200 364.667 C 256.375 364.667,256.038 364.703,256.450 364.746 M115.450 364.938 C 115.642 364.988,115.958 364.988,116.150 364.938 C 116.343 364.888,116.185 364.846,115.800 364.846 C 115.415 364.846,115.258 364.888,115.450 364.938 M252.250 364.946 C 252.663 364.989,253.338 364.989,253.750 364.946 C 254.163 364.903,253.825 364.867,253.000 364.867 C 252.175 364.867,251.838 364.903,252.250 364.946 M118.552 365.141 C 118.801 365.189,119.161 365.187,119.352 365.137 C 119.544 365.087,119.340 365.048,118.900 365.050 C 118.460 365.053,118.304 365.094,118.552 365.141 M248.754 365.145 C 249.113 365.189,249.653 365.189,249.954 365.143 C 250.254 365.097,249.960 365.061,249.300 365.062 C 248.640 365.063,248.394 365.100,248.754 365.145 M121.750 365.341 C 121.998 365.389,122.403 365.389,122.650 365.341 C 122.897 365.293,122.695 365.254,122.200 365.254 C 121.705 365.254,121.503 365.293,121.750 365.341 M228.150 365.350 C 230.268 365.382,233.732 365.382,235.850 365.350 C 237.968 365.317,236.235 365.291,232.000 365.291 C 227.765 365.291,226.032 365.317,228.150 365.350 M245.650 365.343 C 245.953 365.389,246.447 365.389,246.750 365.343 C 247.053 365.297,246.805 365.260,246.200 365.260 C 245.595 365.260,245.347 365.297,245.650 365.343 M125.650 365.543 C 125.953 365.589,126.447 365.589,126.750 365.543 C 127.053 365.497,126.805 365.460,126.200 365.460 C 125.595 365.460,125.347 365.497,125.650 365.543 M210.950 365.549 C 212.298 365.584,214.503 365.584,215.850 365.549 C 217.197 365.515,216.095 365.486,213.400 365.486 C 210.705 365.486,209.603 365.515,210.950 365.549 M129.850 365.746 C 130.263 365.789,130.938 365.789,131.350 365.746 C 131.763 365.703,131.425 365.667,130.600 365.667 C 129.775 365.667,129.438 365.703,129.850 365.746 M198.850 365.749 C 199.923 365.785,201.678 365.785,202.750 365.749 C 203.822 365.713,202.945 365.684,200.800 365.684 C 198.655 365.684,197.778 365.713,198.850 365.749 M135.456 365.947 C 135.982 365.989,136.792 365.988,137.256 365.946 C 137.720 365.904,137.290 365.870,136.300 365.871 C 135.310 365.872,134.930 365.906,135.456 365.947 M187.561 365.949 C 188.694 365.985,190.494 365.985,191.561 365.949 C 192.627 365.913,191.700 365.884,189.500 365.884 C 187.300 365.884,186.427 365.914,187.561 365.949 M143.250 366.149 C 144.103 366.186,145.498 366.186,146.350 366.149 C 147.203 366.111,146.505 366.080,144.800 366.080 C 143.095 366.080,142.398 366.111,143.250 366.149 M173.550 366.149 C 175.008 366.184,177.393 366.184,178.850 366.149 C 180.308 366.115,179.115 366.087,176.200 366.087 C 173.285 366.087,172.093 366.115,173.550 366.149 " stroke="none" fill="#fbcb21" fill-rule="evenodd"></path><path id="path3" d="M194.793 26.893 C 176.358 29.892,161.859 46.023,158.216 67.585 C 157.986 68.952,157.775 70.078,157.748 70.087 C 157.000 70.346,150.799 72.312,149.500 72.701 C 145.604 73.870,139.463 76.469,124.700 83.196 C 117.493 86.480,116.151 87.252,114.089 89.300 C 109.399 93.958,108.579 98.073,104.702 136.400 C 102.173 161.392,101.042 169.745,97.682 188.200 C 94.966 203.126,93.557 209.374,87.849 231.802 L 83.700 248.105 69.800 261.724 C 45.445 285.589,42.500 288.862,38.819 296.160 C 33.758 306.197,25.979 338.671,26.667 346.889 C 27.560 357.548,52.785 365.904,100.300 371.279 C 115.040 372.946,128.496 373.459,166.000 373.782 C 288.443 374.837,352.033 369.126,369.824 355.479 C 376.274 350.531,376.430 343.489,370.604 320.200 C 366.591 304.161,364.452 298.944,358.846 291.525 C 357.776 290.109,356.810 288.805,356.700 288.626 C 355.824 287.207,350.806 281.828,340.714 271.492 C 325.436 255.843,324.780 255.120,321.725 250.542 C 317.486 244.191,315.614 238.923,311.186 220.881 C 303.672 190.262,298.992 159.691,293.905 108.000 C 293.175 100.575,292.515 94.006,292.439 93.402 L 292.300 92.303 280.397 86.202 C 273.851 82.846,267.461 79.504,266.197 78.776 C 261.816 76.251,257.191 74.139,251.894 72.246 C 249.431 71.365,248.072 70.952,243.450 69.678 C 242.586 69.440,242.400 69.310,242.399 68.944 C 242.392 64.831,238.926 54.903,235.053 47.900 C 229.359 37.603,218.725 29.611,207.500 27.191 C 204.904 26.631,197.475 26.457,194.793 26.893 M206.700 32.800 C 221.348 35.909,233.304 48.894,237.075 65.790 C 237.689 68.538,237.937 68.288,235.172 67.703 C 212.671 62.937,181.838 63.321,163.613 68.594 C 162.719 68.853,162.740 68.999,163.304 66.489 C 167.344 48.521,179.594 35.220,194.400 32.726 C 195.445 32.550,196.525 32.366,196.800 32.317 C 198.187 32.069,204.770 32.390,206.700 32.800 M210.800 70.603 C 234.528 72.233,257.568 79.927,281.950 94.362 C 283.741 95.423,285.200 96.415,285.200 96.573 C 285.200 97.018,287.710 120.768,288.712 129.800 C 292.999 168.442,297.566 196.129,303.824 221.400 C 304.601 224.535,305.367 228.000,305.527 229.100 C 307.684 243.913,313.838 253.523,334.921 275.008 C 348.149 288.489,352.601 293.957,357.184 302.355 C 358.436 304.648,358.586 305.059,359.613 309.000 C 359.971 310.375,361.063 313.975,362.040 317.000 C 366.104 329.586,367.049 333.891,366.959 339.395 L 366.918 341.900 366.809 339.208 L 366.700 336.517 365.800 336.251 C 365.305 336.105,363.151 335.530,361.012 334.973 L 357.125 333.961 350.711 333.989 L 344.298 334.017 338.999 333.019 C 316.523 328.786,291.562 325.766,263.700 323.909 C 256.499 323.429,248.541 322.992,248.461 323.072 C 248.421 323.112,248.259 324.009,248.100 325.066 C 247.696 327.758,247.308 329.368,246.467 331.850 L 245.738 334.000 243.888 334.000 L 242.039 334.000 242.635 332.582 C 242.962 331.802,243.192 331.125,243.144 331.077 C 243.097 331.030,242.896 331.421,242.699 331.946 C 239.572 340.272,232.005 348.094,222.547 352.777 C 197.328 365.262,164.666 354.382,156.272 330.700 C 155.804 329.380,155.417 328.404,155.411 328.531 C 155.397 328.834,156.757 332.737,157.125 333.447 L 157.410 334.000 155.530 334.000 L 153.649 334.000 153.238 332.850 C 152.284 330.179,151.747 328.016,151.295 325.022 C 151.139 323.990,150.978 323.112,150.938 323.071 C 150.897 323.031,149.297 323.088,147.382 323.199 C 114.738 325.084,88.589 328.335,66.007 333.318 L 62.914 334.000 57.707 333.982 L 52.500 333.964 53.700 333.586 C 55.538 333.009,64.027 330.890,68.500 329.892 C 70.700 329.402,72.207 329.030,71.850 329.065 L 71.200 329.131 71.200 312.948 L 71.200 296.765 70.450 296.881 C 70.038 296.946,67.540 297.318,64.900 297.708 C 59.156 298.559,51.179 299.933,46.500 300.878 C 44.630 301.256,43.083 301.548,43.061 301.527 C 42.804 301.274,48.259 292.453,50.746 289.100 C 57.018 280.647,67.376 270.267,74.071 265.727 C 85.877 257.719,90.810 248.158,96.423 222.400 C 97.297 218.385,98.907 211.500,99.999 207.100 C 104.229 190.058,105.819 179.781,109.097 148.300 C 111.891 121.465,113.655 109.311,116.656 96.205 C 116.952 94.913,117.173 94.734,122.300 91.652 C 147.334 76.599,181.117 68.564,210.800 70.603 M178.200 319.001 C 170.243 319.179,160.196 319.514,156.428 319.728 L 154.157 319.857 154.276 320.579 C 154.342 320.975,154.412 321.975,154.431 322.800 C 154.451 323.625,154.502 323.975,154.544 323.579 L 154.621 322.857 157.260 322.728 C 180.677 321.585,209.348 321.502,235.800 322.501 C 240.145 322.665,243.947 322.799,244.250 322.800 C 244.747 322.800,244.803 322.872,244.828 323.550 C 244.843 323.963,244.935 323.320,245.033 322.121 C 245.130 320.923,245.184 319.917,245.152 319.886 C 245.079 319.813,236.447 319.449,228.700 319.192 C 220.509 318.920,187.411 318.795,178.200 319.001 M152.050 319.938 C 152.243 319.988,152.558 319.988,152.750 319.938 C 152.942 319.888,152.785 319.846,152.400 319.846 C 152.015 319.846,151.858 319.888,152.050 319.938 M246.650 319.938 C 246.843 319.988,247.157 319.988,247.350 319.938 C 247.543 319.888,247.385 319.846,247.000 319.846 C 246.615 319.846,246.457 319.888,246.650 319.938 M148.250 320.138 C 148.442 320.188,148.758 320.188,148.950 320.138 C 149.143 320.088,148.985 320.046,148.600 320.046 C 148.215 320.046,148.058 320.088,148.250 320.138 M250.250 320.138 C 250.443 320.188,250.757 320.188,250.950 320.138 C 251.143 320.088,250.985 320.046,250.600 320.046 C 250.215 320.046,250.058 320.088,250.250 320.138 M254.050 320.338 C 254.243 320.388,254.558 320.388,254.750 320.338 C 254.943 320.288,254.785 320.246,254.400 320.246 C 254.015 320.246,253.857 320.288,254.050 320.338 M260.650 320.738 C 260.843 320.788,261.157 320.788,261.350 320.738 C 261.543 320.688,261.385 320.646,261.000 320.646 C 260.615 320.646,260.457 320.688,260.650 320.738 M244.646 325.000 C 244.646 325.385,244.688 325.543,244.738 325.350 C 244.788 325.158,244.788 324.843,244.738 324.650 C 244.688 324.457,244.646 324.615,244.646 325.000 M243.714 328.914 C 243.641 329.207,243.619 329.486,243.666 329.533 C 243.713 329.580,243.812 329.379,243.886 329.086 C 243.959 328.793,243.981 328.514,243.934 328.467 C 243.887 328.420,243.788 328.621,243.714 328.914 M309.350 362.538 C 309.158 362.588,308.843 362.588,308.650 362.538 C 308.457 362.488,308.615 362.446,309.000 362.446 C 309.385 362.446,309.543 362.488,309.350 362.538 M306.950 362.738 C 306.757 362.788,306.443 362.788,306.250 362.738 C 306.058 362.688,306.215 362.646,306.600 362.646 C 306.985 362.646,307.143 362.688,306.950 362.738 M304.152 362.937 C 303.961 362.987,303.601 362.989,303.352 362.941 C 303.104 362.894,303.260 362.853,303.700 362.850 C 304.140 362.848,304.344 362.887,304.152 362.937 M301.050 363.141 C 300.803 363.189,300.397 363.189,300.150 363.141 C 299.903 363.093,300.105 363.054,300.600 363.054 C 301.095 363.054,301.298 363.093,301.050 363.141 M297.554 363.343 C 297.253 363.389,296.713 363.389,296.354 363.345 C 295.994 363.300,296.240 363.263,296.900 363.262 C 297.560 363.261,297.854 363.297,297.554 363.343 M293.250 363.545 C 292.893 363.589,292.308 363.589,291.950 363.545 C 291.593 363.500,291.885 363.464,292.600 363.464 C 293.315 363.464,293.608 363.500,293.250 363.545 M288.355 363.745 C 287.946 363.788,287.226 363.789,286.755 363.747 C 286.285 363.704,286.620 363.669,287.500 363.669 C 288.380 363.668,288.765 363.702,288.355 363.745 M282.757 363.947 C 282.238 363.988,281.338 363.988,280.757 363.948 C 280.176 363.907,280.600 363.874,281.700 363.873 C 282.800 363.873,283.276 363.906,282.757 363.947 M276.057 364.147 C 275.484 364.187,274.494 364.188,273.857 364.148 C 273.221 364.108,273.690 364.075,274.900 364.075 C 276.110 364.074,276.631 364.107,276.057 364.147 M269.250 364.347 C 268.673 364.388,267.728 364.388,267.150 364.347 C 266.572 364.307,267.045 364.274,268.200 364.274 C 269.355 364.274,269.828 364.307,269.250 364.347 M110.950 364.538 C 110.758 364.588,110.442 364.588,110.250 364.538 C 110.058 364.488,110.215 364.446,110.600 364.446 C 110.985 364.446,111.142 364.488,110.950 364.538 M263.150 364.547 C 262.627 364.588,261.772 364.588,261.250 364.547 C 260.728 364.506,261.155 364.472,262.200 364.472 C 263.245 364.472,263.673 364.506,263.150 364.547 M113.550 364.738 C 113.358 364.788,113.043 364.788,112.850 364.738 C 112.658 364.688,112.815 364.646,113.200 364.646 C 113.585 364.646,113.743 364.688,113.550 364.738 M257.950 364.746 C 257.538 364.789,256.863 364.789,256.450 364.746 C 256.038 364.703,256.375 364.667,257.200 364.667 C 258.025 364.667,258.363 364.703,257.950 364.746 M116.150 364.938 C 115.958 364.988,115.642 364.988,115.450 364.938 C 115.258 364.888,115.415 364.846,115.800 364.846 C 116.185 364.846,116.343 364.888,116.150 364.938 M253.750 364.946 C 253.338 364.989,252.663 364.989,252.250 364.946 C 251.838 364.903,252.175 364.867,253.000 364.867 C 253.825 364.867,254.163 364.903,253.750 364.946 M119.352 365.137 C 119.161 365.187,118.801 365.189,118.552 365.141 C 118.304 365.094,118.460 365.053,118.900 365.050 C 119.340 365.048,119.544 365.087,119.352 365.137 M249.954 365.143 C 249.653 365.189,249.113 365.189,248.754 365.145 C 248.394 365.100,248.640 365.063,249.300 365.062 C 249.960 365.061,250.254 365.097,249.954 365.143 M122.650 365.341 C 122.403 365.389,121.998 365.389,121.750 365.341 C 121.503 365.293,121.705 365.254,122.200 365.254 C 122.695 365.254,122.897 365.293,122.650 365.341 M235.850 365.350 C 233.732 365.382,230.268 365.382,228.150 365.350 C 226.032 365.317,227.765 365.291,232.000 365.291 C 236.235 365.291,237.968 365.317,235.850 365.350 M246.750 365.343 C 246.447 365.389,245.953 365.389,245.650 365.343 C 245.347 365.297,245.595 365.260,246.200 365.260 C 246.805 365.260,247.053 365.297,246.750 365.343 M126.750 365.543 C 126.447 365.589,125.953 365.589,125.650 365.543 C 125.347 365.497,125.595 365.460,126.200 365.460 C 126.805 365.460,127.053 365.497,126.750 365.543 M215.850 365.549 C 214.503 365.584,212.298 365.584,210.950 365.549 C 209.603 365.515,210.705 365.486,213.400 365.486 C 216.095 365.486,217.197 365.515,215.850 365.549 M131.350 365.746 C 130.938 365.789,130.263 365.789,129.850 365.746 C 129.438 365.703,129.775 365.667,130.600 365.667 C 131.425 365.667,131.763 365.703,131.350 365.746 M202.750 365.749 C 201.678 365.785,199.923 365.785,198.850 365.749 C 197.778 365.713,198.655 365.684,200.800 365.684 C 202.945 365.684,203.822 365.713,202.750 365.749 M137.256 365.946 C 136.792 365.988,135.982 365.989,135.456 365.947 C 134.930 365.906,135.310 365.872,136.300 365.871 C 137.290 365.870,137.720 365.904,137.256 365.946 M191.561 365.949 C 190.494 365.985,188.694 365.985,187.561 365.949 C 186.427 365.914,187.300 365.884,189.500 365.884 C 191.700 365.884,192.627 365.913,191.561 365.949 M146.350 366.149 C 145.498 366.186,144.103 366.186,143.250 366.149 C 142.398 366.111,143.095 366.080,144.800 366.080 C 146.505 366.080,147.203 366.111,146.350 366.149 M178.850 366.149 C 177.393 366.184,175.008 366.184,173.550 366.149 C 172.093 366.115,173.285 366.087,176.200 366.087 C 179.115 366.087,180.308 366.115,178.850 366.149 " stroke="none" fill="#ac2708" fill-rule="evenodd"></path><path id="path4" d="M219.000 44.263 C 219.000 44.297,219.293 44.590,219.650 44.913 L 220.300 45.500 219.713 44.850 C 219.165 44.244,219.000 44.108,219.000 44.263 M178.223 54.329 C 178.083 56.912,181.077 61.256,184.686 63.708 L 186.328 64.823 189.114 64.606 C 195.683 64.095,208.929 64.155,214.300 64.721 C 216.611 64.964,221.671 60.162,222.863 56.594 C 223.165 55.689,223.505 53.877,223.284 54.350 C 223.071 54.805,178.457 54.706,178.338 54.250 C 178.266 53.974,178.241 53.991,178.223 54.329 M196.253 70.944 C 196.557 70.989,197.007 70.988,197.253 70.941 C 197.499 70.893,197.250 70.856,196.700 70.857 C 196.150 70.859,195.949 70.898,196.253 70.944 M207.253 70.944 C 207.557 70.989,208.007 70.988,208.253 70.941 C 208.499 70.893,208.250 70.856,207.700 70.857 C 207.150 70.859,206.949 70.898,207.253 70.944 M193.050 71.138 C 193.243 71.188,193.558 71.188,193.750 71.138 C 193.942 71.088,193.785 71.046,193.400 71.046 C 193.015 71.046,192.858 71.088,193.050 71.138 M210.650 71.138 C 210.843 71.188,211.157 71.188,211.350 71.138 C 211.543 71.088,211.385 71.046,211.000 71.046 C 210.615 71.046,210.457 71.088,210.650 71.138 M163.100 77.718 C 151.267 82.364,141.738 89.069,135.746 96.965 L 134.255 98.930 147.178 93.200 C 154.285 90.049,162.409 86.442,165.231 85.185 L 170.362 82.900 169.420 81.900 C 167.906 80.293,165.838 77.029,166.142 76.725 C 166.407 76.460,165.803 76.657,163.100 77.718 M238.128 77.050 C 237.655 78.900,233.861 83.338,230.863 85.548 C 216.726 95.971,190.422 96.631,175.440 86.940 L 174.059 86.046 166.459 92.573 C 162.278 96.163,156.915 100.765,154.540 102.800 C 152.166 104.835,150.180 106.635,150.127 106.800 C 150.075 106.965,149.991 111.555,149.941 117.000 C 149.891 122.445,149.888 126.535,149.934 126.090 L 150.019 125.280 152.860 126.250 C 178.283 134.934,209.344 136.427,236.938 130.292 C 250.507 127.275,263.481 122.255,273.551 116.125 L 275.300 115.060 275.238 113.680 C 274.710 101.821,264.852 89.484,249.508 81.477 C 246.337 79.823,238.918 76.600,238.280 76.600 C 238.260 76.600,238.192 76.803,238.128 77.050 M133.202 100.797 C 130.968 104.622,129.474 109.281,129.098 113.600 L 128.967 115.100 131.233 116.438 C 132.480 117.174,134.151 118.119,134.947 118.538 C 136.234 119.216,136.394 119.364,136.397 119.883 C 136.398 120.204,136.454 120.413,136.520 120.347 C 136.682 120.185,134.340 99.400,134.160 99.400 C 134.082 99.400,133.651 100.028,133.202 100.797 M136.646 121.400 C 136.646 121.785,136.688 121.942,136.738 121.750 C 136.788 121.558,136.788 121.243,136.738 121.050 C 136.688 120.858,136.646 121.015,136.646 121.400 M136.846 123.200 C 136.846 123.585,136.888 123.743,136.938 123.550 C 136.988 123.358,136.988 123.043,136.938 122.850 C 136.888 122.658,136.846 122.815,136.846 123.200 M137.046 125.000 C 137.046 125.385,137.088 125.543,137.138 125.350 C 137.188 125.158,137.188 124.843,137.138 124.650 C 137.088 124.458,137.046 124.615,137.046 125.000 M137.246 126.800 C 137.246 127.185,137.288 127.343,137.338 127.150 C 137.388 126.958,137.388 126.642,137.338 126.450 C 137.288 126.258,137.246 126.415,137.246 126.800 M137.446 128.600 C 137.446 128.985,137.488 129.143,137.538 128.950 C 137.588 128.758,137.588 128.442,137.538 128.250 C 137.488 128.058,137.446 128.215,137.446 128.600 M137.646 130.400 C 137.646 130.785,137.688 130.942,137.738 130.750 C 137.788 130.558,137.788 130.243,137.738 130.050 C 137.688 129.858,137.646 130.015,137.646 130.400 M149.685 134.600 C 149.685 136.965,149.714 137.933,149.749 136.750 C 149.785 135.567,149.785 133.633,149.749 132.450 C 149.714 131.268,149.685 132.235,149.685 134.600 M137.846 132.200 C 137.846 132.585,137.888 132.743,137.938 132.550 C 137.988 132.358,137.988 132.042,137.938 131.850 C 137.888 131.657,137.846 131.815,137.846 132.200 M149.482 146.100 C 149.482 147.970,149.512 148.762,149.549 147.860 C 149.586 146.958,149.586 145.428,149.549 144.460 C 149.512 143.492,149.482 144.230,149.482 146.100 M149.284 159.800 C 149.284 162.055,149.314 162.978,149.349 161.850 C 149.385 160.722,149.385 158.878,149.349 157.750 C 149.314 156.623,149.284 157.545,149.284 159.800 M149.083 173.800 C 149.083 175.835,149.113 176.668,149.149 175.650 C 149.185 174.633,149.185 172.968,149.149 171.950 C 149.113 170.933,149.083 171.765,149.083 173.800 M148.883 187.600 C 148.883 189.635,148.913 190.468,148.949 189.450 C 148.985 188.433,148.985 186.768,148.949 185.750 C 148.913 184.733,148.883 185.565,148.883 187.600 M148.682 201.700 C 148.682 203.570,148.712 204.362,148.749 203.460 C 148.786 202.558,148.786 201.028,148.749 200.060 C 148.712 199.092,148.682 199.830,148.682 201.700 M148.481 215.400 C 148.481 217.215,148.512 217.957,148.549 217.050 C 148.586 216.143,148.586 214.657,148.549 213.750 C 148.512 212.843,148.481 213.585,148.481 215.400 M146.752 243.850 C 146.848 247.945,146.924 248.344,146.962 244.950 C 146.983 243.107,146.933 241.600,146.850 241.600 C 146.768 241.599,146.724 242.612,146.752 243.850 M140.012 250.250 C 129.610 262.355,115.941 271.839,101.464 276.999 C 98.631 278.008,97.800 278.439,97.800 278.899 C 97.800 282.026,140.832 282.667,218.400 280.696 C 250.667 279.876,304.241 278.025,304.547 277.720 C 304.663 277.604,294.858 272.928,291.796 271.638 C 255.615 256.404,205.823 251.024,148.250 256.127 L 146.800 256.255 146.800 253.628 L 146.800 251.000 143.185 251.000 L 139.569 251.000 140.509 249.900 C 141.026 249.295,141.406 248.800,141.354 248.800 C 141.301 248.800,140.698 249.453,140.012 250.250 M194.150 288.350 C 195.718 288.383,198.283 288.383,199.850 288.350 C 201.418 288.316,200.135 288.288,197.000 288.288 C 193.865 288.288,192.583 288.316,194.150 288.350 M205.962 288.350 C 207.536 288.383,210.056 288.383,211.562 288.349 C 213.068 288.316,211.780 288.288,208.700 288.288 C 205.620 288.288,204.388 288.316,205.962 288.350 M179.456 288.547 C 179.982 288.589,180.792 288.588,181.256 288.546 C 181.720 288.504,181.290 288.470,180.300 288.471 C 179.310 288.472,178.930 288.506,179.456 288.547 M221.750 288.546 C 222.218 288.589,222.982 288.589,223.450 288.546 C 223.918 288.504,223.535 288.470,222.600 288.470 C 221.665 288.470,221.282 288.504,221.750 288.546 M171.150 288.745 C 171.508 288.789,172.093 288.789,172.450 288.745 C 172.808 288.700,172.515 288.664,171.800 288.664 C 171.085 288.664,170.793 288.700,171.150 288.745 M228.746 288.744 C 229.101 288.789,229.731 288.789,230.146 288.746 C 230.560 288.703,230.270 288.667,229.500 288.666 C 228.730 288.665,228.390 288.700,228.746 288.744 M164.653 288.944 C 164.957 288.989,165.407 288.988,165.653 288.941 C 165.899 288.893,165.650 288.856,165.100 288.857 C 164.550 288.859,164.349 288.898,164.653 288.944 M234.554 288.945 C 234.913 288.989,235.453 288.989,235.754 288.943 C 236.054 288.897,235.760 288.861,235.100 288.862 C 234.440 288.863,234.194 288.900,234.554 288.945 M159.053 289.144 C 159.357 289.189,159.807 289.188,160.053 289.141 C 160.299 289.093,160.050 289.056,159.500 289.057 C 158.950 289.059,158.749 289.098,159.053 289.144 M239.250 289.143 C 239.553 289.189,240.048 289.189,240.350 289.143 C 240.653 289.097,240.405 289.060,239.800 289.060 C 239.195 289.060,238.947 289.097,239.250 289.143 M154.350 289.341 C 154.597 289.389,155.003 289.389,155.250 289.341 C 155.498 289.293,155.295 289.254,154.800 289.254 C 154.305 289.254,154.103 289.293,154.350 289.341 M243.550 289.341 C 243.798 289.389,244.203 289.389,244.450 289.341 C 244.697 289.293,244.495 289.254,244.000 289.254 C 243.505 289.254,243.303 289.293,243.550 289.341 M149.950 289.541 C 150.197 289.589,150.603 289.589,150.850 289.541 C 151.097 289.493,150.895 289.454,150.400 289.454 C 149.905 289.454,149.703 289.493,149.950 289.541 M247.350 289.541 C 247.597 289.589,248.003 289.589,248.250 289.541 C 248.498 289.493,248.295 289.454,247.800 289.454 C 247.305 289.454,247.103 289.493,247.350 289.541 M146.150 289.741 C 146.398 289.789,146.803 289.789,147.050 289.741 C 147.297 289.693,147.095 289.654,146.600 289.654 C 146.105 289.654,145.903 289.693,146.150 289.741 M251.152 289.741 C 251.401 289.789,251.761 289.787,251.952 289.737 C 252.144 289.687,251.940 289.648,251.500 289.650 C 251.060 289.653,250.904 289.694,251.152 289.741 M142.453 289.944 C 142.757 289.989,143.207 289.988,143.453 289.941 C 143.699 289.893,143.450 289.856,142.900 289.857 C 142.350 289.859,142.149 289.898,142.453 289.944 M254.352 289.941 C 254.601 289.989,254.961 289.987,255.152 289.937 C 255.344 289.887,255.140 289.848,254.700 289.850 C 254.260 289.853,254.104 289.894,254.352 289.941 M139.253 290.144 C 139.557 290.189,140.007 290.188,140.253 290.141 C 140.499 290.093,140.250 290.056,139.700 290.057 C 139.150 290.059,138.949 290.098,139.253 290.144 M257.552 290.141 C 257.801 290.189,258.161 290.187,258.352 290.137 C 258.544 290.087,258.340 290.048,257.900 290.050 C 257.460 290.053,257.304 290.094,257.552 290.141 M129.200 290.718 C 125.735 290.977,121.145 291.349,119.000 291.544 L 115.100 291.900 115.049 307.262 L 114.998 322.625 115.849 322.509 C 116.971 322.356,127.264 321.482,131.200 321.206 C 132.905 321.086,134.683 320.940,135.150 320.882 L 136.000 320.775 136.000 305.600 L 136.000 290.424 136.750 290.346 C 139.244 290.085,134.648 290.312,129.200 290.718 M260.450 290.338 C 260.643 290.388,260.957 290.388,261.150 290.338 C 261.343 290.288,261.185 290.246,260.800 290.246 C 260.415 290.246,260.257 290.288,260.450 290.338 M263.352 290.541 C 263.601 290.589,263.961 290.587,264.152 290.537 C 264.344 290.487,264.140 290.448,263.700 290.450 C 263.260 290.453,263.104 290.494,263.352 290.541 M266.250 290.738 C 266.443 290.788,266.757 290.788,266.950 290.738 C 267.143 290.688,266.985 290.646,266.600 290.646 C 266.215 290.646,266.058 290.688,266.250 290.738 M268.850 290.938 C 269.043 290.988,269.358 290.988,269.550 290.938 C 269.743 290.888,269.585 290.846,269.200 290.846 C 268.815 290.846,268.657 290.888,268.850 290.938 M271.450 291.138 C 271.643 291.188,271.957 291.188,272.150 291.138 C 272.343 291.088,272.185 291.046,271.800 291.046 C 271.415 291.046,271.257 291.088,271.450 291.138 M273.850 291.338 C 274.043 291.388,274.358 291.388,274.550 291.338 C 274.743 291.288,274.585 291.246,274.200 291.246 C 273.815 291.246,273.657 291.288,273.850 291.338 M276.450 291.538 C 276.643 291.588,276.957 291.588,277.150 291.538 C 277.343 291.488,277.185 291.446,276.800 291.446 C 276.415 291.446,276.257 291.488,276.450 291.538 M293.650 293.138 C 293.843 293.188,294.157 293.188,294.350 293.138 C 294.543 293.088,294.385 293.046,294.000 293.046 C 293.615 293.046,293.457 293.088,293.650 293.138 M295.650 293.338 C 295.843 293.388,296.157 293.388,296.350 293.338 C 296.543 293.288,296.385 293.246,296.000 293.246 C 295.615 293.246,295.457 293.288,295.650 293.338 M299.450 293.738 C 299.643 293.788,299.957 293.788,300.150 293.738 C 300.343 293.688,300.185 293.646,299.800 293.646 C 299.415 293.646,299.257 293.688,299.450 293.738 M305.050 294.338 C 305.243 294.388,305.558 294.388,305.750 294.338 C 305.943 294.288,305.785 294.246,305.400 294.246 C 305.015 294.246,304.858 294.288,305.050 294.338 M313.552 295.366 C 313.753 295.494,313.794 298.661,313.752 310.735 L 313.700 325.944 315.600 326.190 C 321.337 326.933,333.989 329.032,341.660 330.513 C 343.618 330.891,345.261 331.200,345.310 331.200 C 345.360 331.200,345.400 324.062,345.400 315.338 L 345.400 299.477 335.950 298.135 C 321.283 296.052,313.025 295.031,313.552 295.366 M180.457 318.948 C 181.094 318.988,182.084 318.987,182.657 318.947 C 183.231 318.907,182.710 318.874,181.500 318.875 C 180.290 318.875,179.821 318.908,180.457 318.948 M216.457 318.948 C 217.094 318.988,218.084 318.987,218.657 318.947 C 219.231 318.907,218.710 318.874,217.500 318.875 C 216.290 318.875,215.821 318.908,216.457 318.948 M171.550 319.145 C 171.908 319.189,172.493 319.189,172.850 319.145 C 173.208 319.100,172.915 319.064,172.200 319.064 C 171.485 319.064,171.192 319.100,171.550 319.145 M226.350 319.145 C 226.707 319.189,227.293 319.189,227.650 319.145 C 228.007 319.100,227.715 319.064,227.000 319.064 C 226.285 319.064,225.993 319.100,226.350 319.145 M165.050 319.343 C 165.353 319.389,165.847 319.389,166.150 319.343 C 166.453 319.297,166.205 319.260,165.600 319.260 C 164.995 319.260,164.748 319.297,165.050 319.343 M233.253 319.344 C 233.557 319.389,234.007 319.388,234.253 319.341 C 234.499 319.293,234.250 319.256,233.700 319.257 C 233.150 319.259,232.949 319.298,233.253 319.344 M159.853 319.544 C 160.157 319.589,160.607 319.588,160.853 319.541 C 161.099 319.493,160.850 319.456,160.300 319.457 C 159.750 319.459,159.549 319.498,159.853 319.544 M238.754 319.545 C 239.113 319.589,239.653 319.589,239.954 319.543 C 240.254 319.497,239.960 319.461,239.300 319.462 C 238.640 319.463,238.394 319.500,238.754 319.545 M154.950 319.741 C 155.197 319.789,155.603 319.789,155.850 319.741 C 156.097 319.693,155.895 319.654,155.400 319.654 C 154.905 319.654,154.703 319.693,154.950 319.741 M243.453 319.744 C 243.757 319.789,244.207 319.788,244.453 319.741 C 244.699 319.693,244.450 319.656,243.900 319.657 C 243.350 319.659,243.149 319.698,243.453 319.744 M150.850 319.938 C 151.042 319.988,151.358 319.988,151.550 319.938 C 151.743 319.888,151.585 319.846,151.200 319.846 C 150.815 319.846,150.657 319.888,150.850 319.938 M247.850 319.938 C 248.043 319.988,248.357 319.988,248.550 319.938 C 248.743 319.888,248.585 319.846,248.200 319.846 C 247.815 319.846,247.657 319.888,247.850 319.938 M146.952 320.141 C 147.201 320.189,147.561 320.187,147.752 320.137 C 147.944 320.087,147.740 320.048,147.300 320.050 C 146.860 320.053,146.704 320.094,146.952 320.141 M251.550 320.141 C 251.798 320.189,252.203 320.189,252.450 320.141 C 252.697 320.093,252.495 320.054,252.000 320.054 C 251.505 320.054,251.303 320.093,251.550 320.141 M143.552 320.341 C 143.801 320.389,144.161 320.387,144.352 320.337 C 144.544 320.287,144.340 320.248,143.900 320.250 C 143.460 320.253,143.304 320.294,143.552 320.341 M255.250 320.338 C 255.443 320.388,255.757 320.388,255.950 320.338 C 256.143 320.288,255.985 320.246,255.600 320.246 C 255.215 320.246,255.058 320.288,255.250 320.338 M140.152 320.541 C 140.401 320.589,140.761 320.587,140.952 320.537 C 141.144 320.487,140.940 320.448,140.500 320.450 C 140.060 320.453,139.904 320.494,140.152 320.541 M258.552 320.541 C 258.801 320.589,259.161 320.587,259.352 320.537 C 259.544 320.487,259.340 320.448,258.900 320.450 C 258.460 320.453,258.304 320.494,258.552 320.541 M137.152 320.741 C 137.401 320.789,137.761 320.787,137.952 320.737 C 138.144 320.687,137.940 320.648,137.500 320.650 C 137.060 320.653,136.904 320.694,137.152 320.741 M261.850 320.738 C 262.043 320.788,262.358 320.788,262.550 320.738 C 262.743 320.688,262.585 320.646,262.200 320.646 C 261.815 320.646,261.657 320.688,261.850 320.738 M264.650 320.938 C 264.843 320.988,265.157 320.988,265.350 320.938 C 265.543 320.888,265.385 320.846,265.000 320.846 C 264.615 320.846,264.457 320.888,264.650 320.938 M267.650 321.138 C 267.843 321.188,268.157 321.188,268.350 321.138 C 268.543 321.088,268.385 321.046,268.000 321.046 C 267.615 321.046,267.457 321.088,267.650 321.138 M270.250 321.338 C 270.443 321.388,270.757 321.388,270.950 321.338 C 271.143 321.288,270.985 321.246,270.600 321.246 C 270.215 321.246,270.058 321.288,270.250 321.338 M272.850 321.538 C 273.043 321.588,273.358 321.588,273.550 321.538 C 273.743 321.488,273.585 321.446,273.200 321.446 C 272.815 321.446,272.657 321.488,272.850 321.538 M195.800 339.009 C 189.181 340.714,182.200 348.686,182.200 354.539 C 182.200 355.093,185.218 356.117,189.249 356.930 C 192.204 357.526,192.299 357.510,192.478 356.391 C 193.789 348.197,205.189 348.129,207.019 356.305 C 207.190 357.072,207.359 357.399,207.582 357.398 C 208.377 357.393,212.787 356.374,214.982 355.689 L 217.406 354.933 217.277 354.216 C 215.396 343.714,205.296 336.562,195.800 339.009 M196.752 357.941 C 197.001 357.989,197.361 357.987,197.552 357.937 C 197.744 357.887,197.540 357.848,197.100 357.850 C 196.660 357.853,196.504 357.894,196.752 357.941 M201.952 357.941 C 202.201 357.989,202.561 357.987,202.752 357.937 C 202.944 357.887,202.740 357.848,202.300 357.850 C 201.860 357.853,201.704 357.894,201.952 357.941 " stroke="none" fill="#fbd276" fill-rule="evenodd"></path></g></svg>