<svg id="svg" version="1.1" xmlns="http://www.w3.org/2000/svg" xmlns:xlink="http://www.w3.org/1999/xlink" width="400" height="400" viewBox="0, 0, 400,400"><g id="svgg"><path id="path0" d="M183.000 1.600 C 182.864 1.820,181.154 2.000,179.200 2.000 C 177.246 2.000,175.536 2.180,175.400 2.400 C 175.264 2.620,173.914 2.800,172.400 2.800 C 170.886 2.800,169.536 2.980,169.400 3.200 C 169.264 3.420,168.184 3.600,167.000 3.600 C 165.816 3.600,164.736 3.780,164.600 4.000 C 164.464 4.220,163.553 4.400,162.576 4.400 C 161.599 4.400,160.800 4.580,160.800 4.800 C 160.800 5.020,159.900 5.200,158.800 5.200 C 157.700 5.200,156.800 5.380,156.800 5.600 C 156.800 5.820,156.080 6.000,155.200 6.000 C 154.320 6.000,153.600 6.180,153.600 6.400 C 153.600 6.620,152.880 6.800,152.000 6.800 C 151.120 6.800,150.400 6.980,150.400 7.200 C 150.400 7.420,149.680 7.600,148.800 7.600 C 147.920 7.600,147.200 7.780,147.200 8.000 C 147.200 8.220,146.668 8.400,146.019 8.400 C 145.369 8.400,144.424 8.568,143.919 8.773 C 143.413 8.978,141.920 9.443,140.600 9.806 C 139.280 10.169,137.887 10.632,137.505 10.833 C 137.123 11.035,136.459 11.200,136.029 11.200 C 135.599 11.200,135.136 11.380,135.000 11.600 C 134.864 11.820,134.324 12.000,133.800 12.000 C 133.276 12.000,132.736 12.180,132.600 12.400 C 132.464 12.620,131.924 12.800,131.400 12.800 C 130.876 12.800,130.336 12.980,130.200 13.200 C 130.064 13.420,129.603 13.600,129.176 13.600 C 128.749 13.600,128.400 13.780,128.400 14.000 C 128.400 14.220,127.950 14.400,127.400 14.400 C 126.850 14.400,126.400 14.580,126.400 14.800 C 126.400 15.020,126.051 15.200,125.624 15.200 C 125.197 15.200,124.736 15.380,124.600 15.600 C 124.464 15.820,123.913 16.000,123.376 16.000 C 122.839 16.000,122.400 16.180,122.400 16.400 C 122.400 16.620,122.040 16.800,121.600 16.800 C 121.160 16.800,120.800 16.980,120.800 17.200 C 120.800 17.420,120.528 17.600,120.195 17.600 C 119.862 17.600,119.187 17.808,118.695 18.062 C 116.818 19.033,116.393 19.200,115.805 19.200 C 115.472 19.200,115.200 19.380,115.200 19.600 C 115.200 19.820,114.840 20.000,114.400 20.000 C 113.960 20.000,113.600 20.180,113.600 20.400 C 113.600 20.620,113.240 20.800,112.800 20.800 C 112.360 20.800,112.000 20.946,112.000 21.125 C 112.000 21.304,111.370 21.698,110.600 22.000 C 109.830 22.302,109.200 22.696,109.200 22.875 C 109.200 23.054,108.840 23.200,108.400 23.200 C 107.960 23.200,107.600 23.380,107.600 23.600 C 107.600 23.820,107.240 24.000,106.800 24.000 C 106.360 24.000,106.000 24.180,106.000 24.400 C 106.000 24.620,105.655 24.800,105.233 24.800 C 104.812 24.800,104.407 24.935,104.333 25.100 C 104.260 25.265,103.120 25.934,101.800 26.587 C 100.480 27.239,98.680 28.235,97.800 28.799 C 96.920 29.363,95.705 30.074,95.100 30.380 C 94.495 30.685,94.000 31.085,94.000 31.268 C 94.000 31.450,93.730 31.600,93.400 31.600 C 93.070 31.600,92.800 31.780,92.800 32.000 C 92.800 32.220,92.564 32.400,92.275 32.400 C 91.987 32.400,91.364 32.760,90.892 33.200 C 90.420 33.640,89.796 34.000,89.505 34.000 C 89.214 34.000,88.717 34.360,88.400 34.800 C 88.083 35.240,87.638 35.600,87.412 35.601 C 87.185 35.601,86.370 36.141,85.600 36.800 C 84.830 37.459,84.015 37.999,83.788 37.999 C 83.562 38.000,83.117 38.360,82.800 38.800 C 82.483 39.240,82.020 39.600,81.771 39.600 C 81.522 39.600,80.754 40.140,80.063 40.800 C 79.372 41.460,78.671 42.000,78.503 42.000 C 78.336 42.000,77.412 42.720,76.449 43.600 C 75.487 44.480,74.548 45.200,74.363 45.200 C 74.178 45.200,73.436 45.788,72.713 46.507 C 71.991 47.225,70.778 48.254,70.018 48.792 C 67.041 50.901,50.901 67.041,48.792 70.018 C 48.254 70.778,47.225 71.991,46.507 72.713 C 45.788 73.436,45.200 74.178,45.200 74.363 C 45.200 74.548,44.480 75.487,43.600 76.449 C 42.720 77.412,42.000 78.336,42.000 78.503 C 42.000 78.671,41.460 79.372,40.800 80.063 C 40.140 80.754,39.600 81.522,39.600 81.771 C 39.600 82.020,39.240 82.483,38.800 82.800 C 38.360 83.117,38.000 83.562,37.999 83.788 C 37.999 84.015,37.459 84.830,36.800 85.600 C 36.141 86.370,35.601 87.185,35.601 87.412 C 35.600 87.638,35.240 88.083,34.800 88.400 C 34.360 88.717,34.000 89.257,34.000 89.600 C 34.000 89.943,33.640 90.483,33.200 90.800 C 32.760 91.117,32.400 91.533,32.400 91.725 C 32.400 92.189,29.315 96.692,27.964 98.200 C 27.372 98.860,26.757 99.850,26.597 100.400 C 26.437 100.950,26.028 101.716,25.688 102.103 C 24.914 102.984,24.685 103.401,21.352 110.000 C 19.852 112.970,18.484 115.460,18.312 115.533 C 18.141 115.607,18.000 115.993,18.000 116.393 C 18.000 116.792,17.460 118.145,16.800 119.400 C 16.140 120.655,15.600 121.995,15.600 122.379 C 15.600 122.762,15.240 123.402,14.800 123.800 C 14.360 124.198,14.000 124.935,14.000 125.438 C 14.000 125.941,13.820 126.464,13.600 126.600 C 13.380 126.736,13.200 127.611,13.200 128.544 C 13.200 129.477,13.051 130.411,12.870 130.620 C 12.543 130.995,12.254 131.902,10.961 136.600 C 10.597 137.920,10.158 139.360,9.984 139.800 C 9.476 141.087,8.731 144.078,8.516 145.700 C 8.406 146.525,8.155 147.200,7.958 147.200 C 7.761 147.200,7.600 147.920,7.600 148.800 C 7.600 149.680,7.420 150.400,7.200 150.400 C 6.980 150.400,6.800 151.120,6.800 152.000 C 6.800 152.880,6.620 153.600,6.400 153.600 C 6.180 153.600,6.000 154.320,6.000 155.200 C 6.000 156.080,5.820 156.800,5.600 156.800 C 5.380 156.800,5.200 157.700,5.200 158.800 C 5.200 159.900,5.020 160.800,4.800 160.800 C 4.580 160.800,4.400 161.599,4.400 162.576 C 4.400 163.553,4.220 164.464,4.000 164.600 C 3.780 164.736,3.600 165.827,3.600 167.024 C 3.600 168.221,3.420 169.200,3.200 169.200 C 2.980 169.200,2.799 170.145,2.798 171.300 C 2.796 172.455,2.526 173.916,2.198 174.546 C 1.869 175.176,1.600 176.065,1.600 176.522 C 1.600 177.905,0.660 182.000,0.343 182.000 C -0.493 182.000,-0.019 224.407,0.829 225.554 C 1.436 226.375,1.675 227.354,1.728 229.236 C 1.786 231.296,1.977 231.981,2.700 232.718 C 3.195 233.223,3.600 234.068,3.600 234.595 C 3.600 235.122,3.780 235.664,4.000 235.800 C 4.220 235.936,4.400 236.757,4.400 237.624 C 4.400 238.491,4.580 239.200,4.800 239.200 C 5.020 239.200,5.200 240.100,5.200 241.200 C 5.200 242.300,5.380 243.200,5.600 243.200 C 5.820 243.200,6.000 243.920,6.000 244.800 C 6.000 245.680,6.180 246.400,6.400 246.400 C 6.620 246.400,6.800 247.120,6.800 248.000 C 6.800 248.880,6.980 249.600,7.200 249.600 C 7.420 249.600,7.600 250.320,7.600 251.200 C 7.600 252.080,7.780 252.800,8.000 252.800 C 8.220 252.800,8.400 253.284,8.400 253.876 C 8.400 254.968,10.167 261.220,10.836 262.495 C 11.036 262.877,11.200 263.541,11.200 263.971 C 11.200 264.401,11.380 264.864,11.600 265.000 C 11.820 265.136,12.000 265.676,12.000 266.200 C 12.000 266.724,12.180 267.264,12.400 267.400 C 12.620 267.536,12.800 268.076,12.800 268.600 C 12.800 269.124,12.980 269.664,13.200 269.800 C 13.420 269.936,13.600 270.397,13.600 270.824 C 13.600 271.251,13.780 271.600,14.000 271.600 C 14.220 271.600,14.400 272.050,14.400 272.600 C 14.400 273.150,14.580 273.600,14.800 273.600 C 15.020 273.600,15.200 273.949,15.200 274.376 C 15.200 274.803,15.380 275.264,15.600 275.400 C 15.820 275.536,16.000 276.087,16.000 276.624 C 16.000 277.161,16.180 277.600,16.400 277.600 C 16.620 277.600,16.800 277.960,16.800 278.400 C 16.800 278.840,16.980 279.200,17.200 279.200 C 17.420 279.200,17.600 279.549,17.600 279.976 C 17.600 280.403,17.780 280.864,18.000 281.000 C 18.220 281.136,18.400 281.687,18.400 282.224 C 18.400 282.761,18.580 283.200,18.800 283.200 C 19.020 283.200,19.200 283.560,19.200 284.000 C 19.200 284.440,19.380 284.800,19.600 284.800 C 19.820 284.800,20.000 285.160,20.000 285.600 C 20.000 286.040,20.180 286.400,20.400 286.400 C 20.620 286.400,20.800 286.760,20.800 287.200 C 20.800 287.640,20.946 288.000,21.125 288.000 C 21.304 288.000,21.698 288.630,22.000 289.400 C 22.302 290.170,22.696 290.800,22.875 290.800 C 23.054 290.800,23.200 291.160,23.200 291.600 C 23.200 292.040,23.380 292.400,23.600 292.400 C 23.820 292.400,24.000 292.760,24.000 293.200 C 24.000 293.640,24.180 294.000,24.400 294.000 C 24.620 294.000,24.800 294.345,24.800 294.767 C 24.800 295.188,24.935 295.593,25.100 295.667 C 25.265 295.740,25.934 296.880,26.587 298.200 C 27.239 299.520,28.235 301.320,28.799 302.200 C 29.363 303.080,30.074 304.295,30.380 304.900 C 30.685 305.505,31.085 306.000,31.268 306.000 C 31.450 306.000,31.600 306.270,31.600 306.600 C 31.600 306.930,31.780 307.200,32.000 307.200 C 32.220 307.200,32.400 307.436,32.400 307.725 C 32.400 308.013,32.760 308.636,33.200 309.108 C 33.640 309.580,34.000 310.204,34.000 310.495 C 34.000 310.786,34.360 311.283,34.800 311.600 C 35.240 311.917,35.600 312.362,35.601 312.588 C 35.601 312.815,36.141 313.630,36.800 314.400 C 37.459 315.170,37.999 315.985,37.999 316.212 C 38.000 316.438,38.360 316.883,38.800 317.200 C 39.240 317.517,39.600 317.980,39.600 318.229 C 39.600 318.478,40.140 319.246,40.800 319.937 C 41.460 320.628,42.000 321.329,42.000 321.497 C 42.000 321.664,42.720 322.588,43.600 323.551 C 44.480 324.513,45.200 325.421,45.200 325.567 C 45.200 325.714,45.786 326.456,46.503 327.217 C 47.220 327.977,48.248 329.222,48.788 329.982 C 50.911 332.967,67.033 349.089,70.018 351.212 C 70.778 351.752,72.023 352.780,72.783 353.497 C 73.544 354.214,74.286 354.800,74.433 354.800 C 74.579 354.800,75.487 355.520,76.449 356.400 C 77.412 357.280,78.336 358.000,78.503 358.000 C 78.671 358.000,79.372 358.540,80.063 359.200 C 80.754 359.860,81.522 360.400,81.771 360.400 C 82.020 360.400,82.483 360.760,82.800 361.200 C 83.117 361.640,83.562 362.000,83.788 362.001 C 84.015 362.001,84.830 362.541,85.600 363.200 C 86.370 363.859,87.185 364.399,87.412 364.399 C 87.638 364.400,88.083 364.760,88.400 365.200 C 88.717 365.640,89.214 366.000,89.505 366.000 C 89.796 366.000,90.420 366.360,90.892 366.800 C 91.364 367.240,91.987 367.600,92.275 367.600 C 92.564 367.600,92.800 367.780,92.800 368.000 C 92.800 368.220,93.070 368.400,93.400 368.400 C 93.730 368.400,94.000 368.550,94.000 368.732 C 94.000 368.915,94.495 369.315,95.100 369.620 C 95.705 369.926,96.920 370.637,97.800 371.201 C 98.680 371.765,100.480 372.761,101.800 373.413 C 103.120 374.066,104.260 374.735,104.333 374.900 C 104.407 375.065,104.812 375.200,105.233 375.200 C 105.655 375.200,106.000 375.380,106.000 375.600 C 106.000 375.820,106.360 376.000,106.800 376.000 C 107.240 376.000,107.600 376.180,107.600 376.400 C 107.600 376.620,107.960 376.800,108.400 376.800 C 108.840 376.800,109.200 376.946,109.200 377.125 C 109.200 377.304,109.830 377.698,110.600 378.000 C 111.370 378.302,112.000 378.696,112.000 378.875 C 112.000 379.054,112.360 379.200,112.800 379.200 C 113.240 379.200,113.600 379.380,113.600 379.600 C 113.600 379.820,113.960 380.000,114.400 380.000 C 114.840 380.000,115.200 380.180,115.200 380.400 C 115.200 380.620,115.472 380.800,115.805 380.800 C 116.138 380.800,116.813 381.008,117.305 381.262 C 119.182 382.233,119.607 382.400,120.195 382.400 C 120.528 382.400,120.800 382.580,120.800 382.800 C 120.800 383.020,121.160 383.200,121.600 383.200 C 122.040 383.200,122.400 383.380,122.400 383.600 C 122.400 383.820,122.839 384.000,123.376 384.000 C 123.913 384.000,124.464 384.180,124.600 384.400 C 124.736 384.620,125.197 384.800,125.624 384.800 C 126.051 384.800,126.400 384.980,126.400 385.200 C 126.400 385.420,126.762 385.600,127.205 385.600 C 127.648 385.600,128.323 385.759,128.705 385.953 C 129.087 386.148,129.940 386.529,130.600 386.800 C 131.260 387.071,132.113 387.452,132.495 387.647 C 132.877 387.841,133.464 388.000,133.800 388.000 C 134.136 388.000,134.723 388.163,135.105 388.361 C 136.338 389.003,142.427 390.801,145.051 391.299 C 146.453 391.565,147.600 391.921,147.600 392.091 C 147.600 392.261,148.320 392.400,149.200 392.400 C 150.080 392.400,150.800 392.580,150.800 392.800 C 150.800 393.020,151.419 393.200,152.176 393.200 C 152.933 393.200,153.664 393.380,153.800 393.600 C 153.936 393.820,154.746 394.000,155.600 394.000 C 156.454 394.000,157.264 394.180,157.400 394.400 C 157.536 394.620,158.447 394.800,159.424 394.800 C 160.401 394.800,161.200 394.980,161.200 395.200 C 161.200 395.420,162.089 395.600,163.176 395.600 C 164.263 395.600,165.264 395.780,165.400 396.000 C 165.536 396.220,166.616 396.400,167.800 396.400 C 168.984 396.400,170.064 396.580,170.200 396.800 C 170.336 397.020,171.596 397.200,173.000 397.200 C 174.404 397.200,175.664 397.380,175.800 397.600 C 175.936 397.820,177.711 398.000,179.744 398.000 C 181.777 398.000,183.626 398.186,183.853 398.413 C 184.675 399.235,223.706 398.430,224.580 397.573 C 224.789 397.368,226.173 397.200,227.656 397.200 C 229.139 397.200,230.464 397.020,230.600 396.800 C 230.736 396.580,231.816 396.400,233.000 396.400 C 234.184 396.400,235.264 396.220,235.400 396.000 C 235.536 395.780,236.447 395.600,237.424 395.600 C 238.401 395.600,239.200 395.420,239.200 395.200 C 239.200 394.980,240.100 394.800,241.200 394.800 C 242.300 394.800,243.200 394.620,243.200 394.400 C 243.200 394.180,243.920 394.000,244.800 394.000 C 245.680 394.000,246.400 393.820,246.400 393.600 C 246.400 393.380,247.120 393.200,248.000 393.200 C 248.880 393.200,249.600 393.020,249.600 392.800 C 249.600 392.580,250.320 392.400,251.200 392.400 C 252.080 392.400,252.800 392.220,252.800 392.000 C 252.800 391.780,253.332 391.600,253.981 391.600 C 254.631 391.600,255.576 391.432,256.081 391.227 C 256.587 391.022,258.080 390.557,259.400 390.194 C 260.720 389.831,262.113 389.368,262.495 389.167 C 262.877 388.965,263.541 388.800,263.971 388.800 C 264.401 388.800,264.864 388.620,265.000 388.400 C 265.136 388.180,265.676 388.000,266.200 388.000 C 266.724 388.000,267.264 387.820,267.400 387.600 C 267.536 387.380,268.076 387.200,268.600 387.200 C 269.124 387.200,269.664 387.020,269.800 386.800 C 269.936 386.580,270.397 386.400,270.824 386.400 C 271.251 386.400,271.600 386.220,271.600 386.000 C 271.600 385.780,272.050 385.600,272.600 385.600 C 273.150 385.600,273.600 385.420,273.600 385.200 C 273.600 384.980,273.949 384.800,274.376 384.800 C 274.803 384.800,275.264 384.620,275.400 384.400 C 275.536 384.180,276.087 384.000,276.624 384.000 C 277.161 384.000,277.600 383.820,277.600 383.600 C 277.600 383.380,277.960 383.200,278.400 383.200 C 278.840 383.200,279.200 383.020,279.200 382.800 C 279.200 382.580,279.549 382.400,279.976 382.400 C 280.403 382.400,280.864 382.220,281.000 382.000 C 281.136 381.780,281.687 381.600,282.224 381.600 C 282.761 381.600,283.200 381.420,283.200 381.200 C 283.200 380.980,283.560 380.800,284.000 380.800 C 284.440 380.800,284.800 380.620,284.800 380.400 C 284.800 380.180,285.160 380.000,285.600 380.000 C 286.040 380.000,286.400 379.820,286.400 379.600 C 286.400 379.380,286.760 379.200,287.200 379.200 C 287.640 379.200,288.000 379.054,288.000 378.875 C 288.000 378.696,288.630 378.302,289.400 378.000 C 290.170 377.698,290.800 377.304,290.800 377.125 C 290.800 376.946,291.160 376.800,291.600 376.800 C 292.040 376.800,292.400 376.620,292.400 376.400 C 292.400 376.180,292.760 376.000,293.200 376.000 C 293.640 376.000,294.000 375.820,294.000 375.600 C 294.000 375.380,294.360 375.200,294.800 375.200 C 295.240 375.200,295.600 375.020,295.600 374.800 C 295.600 374.580,295.949 374.400,296.376 374.400 C 296.803 374.400,297.261 374.225,297.393 374.011 C 297.526 373.797,298.301 373.314,299.117 372.937 C 299.933 372.561,301.352 371.746,302.272 371.127 C 303.192 370.507,304.109 370.000,304.310 370.000 C 304.511 370.000,305.002 369.640,305.400 369.200 C 305.798 368.760,306.366 368.400,306.662 368.400 C 306.958 368.400,307.200 368.220,307.200 368.000 C 307.200 367.780,307.436 367.600,307.725 367.600 C 308.013 367.600,308.598 367.285,309.025 366.900 C 309.451 366.515,310.295 365.945,310.900 365.632 C 311.505 365.320,312.000 364.915,312.000 364.732 C 312.000 364.550,312.225 364.400,312.500 364.399 C 312.775 364.399,313.630 363.859,314.400 363.200 C 315.170 362.541,315.985 362.001,316.212 362.001 C 316.438 362.000,316.883 361.640,317.200 361.200 C 317.517 360.760,317.980 360.400,318.229 360.400 C 318.478 360.400,319.246 359.860,319.937 359.200 C 320.628 358.540,321.329 358.000,321.497 358.000 C 321.664 358.000,322.588 357.280,323.551 356.400 C 324.513 355.520,325.452 354.800,325.637 354.800 C 325.822 354.800,326.564 354.212,327.287 353.493 C 328.009 352.775,329.230 351.741,330.000 351.197 C 330.770 350.653,332.699 348.946,334.286 347.404 C 335.873 345.862,338.393 343.415,339.886 341.967 C 343.203 338.750,349.816 331.649,350.705 330.350 C 351.063 329.827,351.640 329.130,351.989 328.800 C 352.338 328.470,353.246 327.390,354.008 326.400 C 354.770 325.410,355.723 324.240,356.127 323.800 C 356.531 323.360,357.157 322.505,357.517 321.900 C 357.878 321.295,358.314 320.800,358.486 320.800 C 358.659 320.800,358.800 320.530,358.800 320.200 C 358.800 319.870,358.980 319.600,359.200 319.600 C 359.420 319.600,359.600 319.370,359.600 319.088 C 359.600 318.807,359.960 318.317,360.400 318.000 C 360.840 317.683,361.200 317.193,361.200 316.912 C 361.200 316.630,361.380 316.400,361.600 316.400 C 361.820 316.400,362.000 316.170,362.000 315.888 C 362.000 315.607,362.360 315.117,362.800 314.800 C 363.240 314.483,363.600 313.943,363.600 313.600 C 363.600 313.257,363.960 312.717,364.400 312.400 C 364.840 312.083,365.200 311.543,365.200 311.200 C 365.200 310.857,365.560 310.317,366.000 310.000 C 366.440 309.683,366.800 309.118,366.800 308.745 C 366.800 308.372,366.945 308.007,367.123 307.933 C 367.862 307.629,370.990 302.584,373.653 297.400 C 374.557 295.640,375.455 294.140,375.649 294.067 C 375.842 293.993,376.000 293.588,376.000 293.167 C 376.000 292.745,376.180 292.400,376.400 292.400 C 376.620 292.400,376.800 292.040,376.800 291.600 C 376.800 291.160,376.980 290.800,377.200 290.800 C 377.420 290.800,377.600 290.440,377.600 290.000 C 377.600 289.560,377.780 289.200,378.000 289.200 C 378.220 289.200,378.400 288.840,378.400 288.400 C 378.400 287.960,378.580 287.600,378.800 287.600 C 379.020 287.600,379.200 287.240,379.200 286.800 C 379.200 286.360,379.380 286.000,379.600 286.000 C 379.820 286.000,380.000 285.735,380.000 285.412 C 380.000 285.089,380.360 284.183,380.800 283.400 C 381.240 282.617,381.600 281.711,381.600 281.388 C 381.600 281.065,381.780 280.800,382.000 280.800 C 382.220 280.800,382.400 280.564,382.400 280.275 C 382.400 279.986,382.760 279.005,383.200 278.094 C 383.640 277.184,384.000 276.160,384.000 275.819 C 384.000 275.479,384.180 275.200,384.400 275.200 C 384.620 275.200,384.800 274.928,384.800 274.595 C 384.800 274.262,384.980 273.632,385.200 273.195 C 385.420 272.758,385.780 272.042,386.000 271.605 C 386.220 271.168,386.400 270.536,386.400 270.200 C 386.400 269.864,386.559 269.277,386.753 268.895 C 387.953 266.536,389.938 260.503,390.996 256.000 C 391.383 254.350,391.858 252.687,392.050 252.305 C 392.243 251.923,392.400 251.169,392.400 250.629 C 392.400 250.089,392.580 249.536,392.800 249.400 C 393.020 249.264,393.200 248.544,393.200 247.800 C 393.200 247.056,393.380 246.336,393.600 246.200 C 393.820 246.064,394.000 245.254,394.000 244.400 C 394.000 243.546,394.180 242.736,394.400 242.600 C 394.620 242.464,394.800 241.643,394.800 240.776 C 394.800 239.909,394.980 239.200,395.200 239.200 C 395.420 239.200,395.600 238.311,395.600 237.224 C 395.600 236.137,395.780 235.136,396.000 235.000 C 396.220 234.864,396.400 233.874,396.400 232.800 C 396.400 231.726,396.580 230.736,396.800 230.600 C 397.020 230.464,397.200 229.204,397.200 227.800 C 397.200 226.396,397.380 225.136,397.600 225.000 C 397.820 224.864,398.000 223.154,398.000 221.200 C 398.000 219.246,398.180 217.536,398.400 217.400 C 398.656 217.241,398.800 211.070,398.800 200.200 C 398.800 189.330,398.656 183.159,398.400 183.000 C 398.180 182.864,398.000 181.244,398.000 179.400 C 398.000 177.556,397.820 175.936,397.600 175.800 C 397.380 175.664,397.200 174.404,397.200 173.000 C 397.200 171.596,397.020 170.336,396.800 170.200 C 396.580 170.064,396.400 168.984,396.400 167.800 C 396.400 166.616,396.220 165.536,396.000 165.400 C 395.780 165.264,395.600 164.263,395.600 163.176 C 395.600 162.089,395.420 161.200,395.200 161.200 C 394.980 161.200,394.800 160.390,394.800 159.400 C 394.800 158.410,394.620 157.600,394.400 157.600 C 394.180 157.600,394.000 156.801,394.000 155.824 C 394.000 154.847,393.820 153.936,393.600 153.800 C 393.380 153.664,393.200 152.944,393.200 152.200 C 393.200 151.456,393.020 150.736,392.800 150.600 C 392.580 150.464,392.400 149.733,392.400 148.976 C 392.400 148.219,392.220 147.600,392.000 147.600 C 391.780 147.600,391.600 147.148,391.600 146.595 C 391.600 146.042,391.220 144.287,390.756 142.695 C 390.292 141.103,389.821 139.303,389.710 138.695 C 389.599 138.087,389.349 137.492,389.154 137.371 C 388.959 137.251,388.800 136.724,388.800 136.200 C 388.800 135.676,388.620 135.136,388.400 135.000 C 388.180 134.864,388.000 134.324,388.000 133.800 C 388.000 133.276,387.820 132.736,387.600 132.600 C 387.380 132.464,387.200 131.924,387.200 131.400 C 387.200 130.876,387.020 130.336,386.800 130.200 C 386.580 130.064,386.400 129.603,386.400 129.176 C 386.400 128.749,386.220 128.400,386.000 128.400 C 385.780 128.400,385.600 127.950,385.600 127.400 C 385.600 126.850,385.420 126.400,385.200 126.400 C 384.980 126.400,384.800 126.051,384.800 125.624 C 384.800 125.197,384.620 124.736,384.400 124.600 C 384.180 124.464,384.000 123.913,384.000 123.376 C 384.000 122.839,383.820 122.400,383.600 122.400 C 383.380 122.400,383.200 122.040,383.200 121.600 C 383.200 121.160,383.020 120.800,382.800 120.800 C 382.580 120.800,382.400 120.528,382.400 120.195 C 382.400 119.862,382.192 119.187,381.938 118.695 C 380.967 116.818,380.800 116.393,380.800 115.805 C 380.800 115.472,380.620 115.200,380.400 115.200 C 380.180 115.200,380.000 114.840,380.000 114.400 C 380.000 113.960,379.820 113.600,379.600 113.600 C 379.380 113.600,379.200 113.240,379.200 112.800 C 379.200 112.360,379.054 112.000,378.875 112.000 C 378.696 112.000,378.302 111.370,378.000 110.600 C 377.698 109.830,377.304 109.200,377.125 109.200 C 376.946 109.200,376.800 108.840,376.800 108.400 C 376.800 107.960,376.620 107.600,376.400 107.600 C 376.180 107.600,376.000 107.240,376.000 106.800 C 376.000 106.360,375.820 106.000,375.600 106.000 C 375.380 106.000,375.200 105.655,375.200 105.233 C 375.200 104.812,375.065 104.407,374.900 104.333 C 374.735 104.260,374.066 103.120,373.413 101.800 C 372.761 100.480,371.765 98.680,371.201 97.800 C 370.637 96.920,369.926 95.705,369.620 95.100 C 369.315 94.495,368.915 94.000,368.732 94.000 C 368.550 94.000,368.400 93.730,368.400 93.400 C 368.400 93.070,368.220 92.800,368.000 92.800 C 367.780 92.800,367.600 92.564,367.600 92.275 C 367.600 91.987,367.240 91.364,366.800 90.892 C 366.360 90.420,366.000 89.796,366.000 89.505 C 366.000 89.214,365.640 88.717,365.200 88.400 C 364.760 88.083,364.400 87.638,364.399 87.412 C 364.399 87.185,363.859 86.370,363.200 85.600 C 362.541 84.830,362.001 84.015,362.001 83.788 C 362.000 83.562,361.640 83.117,361.200 82.800 C 360.760 82.483,360.400 82.020,360.400 81.771 C 360.400 81.522,359.860 80.754,359.200 80.063 C 358.540 79.372,358.000 78.671,358.000 78.503 C 358.000 78.336,357.280 77.412,356.400 76.449 C 355.520 75.487,354.800 74.579,354.800 74.433 C 354.800 74.286,354.214 73.544,353.497 72.783 C 352.780 72.023,351.752 70.778,351.212 70.018 C 349.089 67.033,332.967 50.911,329.982 48.788 C 329.222 48.248,327.977 47.220,327.217 46.503 C 326.456 45.786,325.714 45.200,325.567 45.200 C 325.421 45.200,324.513 44.480,323.551 43.600 C 322.588 42.720,321.664 42.000,321.497 42.000 C 321.329 42.000,320.628 41.460,319.937 40.800 C 319.246 40.140,318.478 39.600,318.229 39.600 C 317.980 39.600,317.517 39.240,317.200 38.800 C 316.883 38.360,316.438 38.000,316.212 37.999 C 315.985 37.999,315.170 37.459,314.400 36.800 C 313.630 36.141,312.815 35.601,312.588 35.601 C 312.362 35.600,311.917 35.240,311.600 34.800 C 311.283 34.360,310.786 34.000,310.495 34.000 C 310.204 34.000,309.580 33.640,309.108 33.200 C 308.636 32.760,308.013 32.400,307.725 32.400 C 307.436 32.400,307.200 32.220,307.200 32.000 C 307.200 31.780,306.930 31.600,306.600 31.600 C 306.270 31.600,306.000 31.450,306.000 31.268 C 306.000 31.085,305.505 30.685,304.900 30.380 C 304.295 30.074,303.080 29.363,302.200 28.799 C 301.320 28.235,299.520 27.239,298.200 26.587 C 296.880 25.934,295.740 25.265,295.667 25.100 C 295.593 24.935,295.188 24.800,294.767 24.800 C 294.345 24.800,294.000 24.620,294.000 24.400 C 294.000 24.180,293.640 24.000,293.200 24.000 C 292.760 24.000,292.400 23.820,292.400 23.600 C 292.400 23.380,292.040 23.200,291.600 23.200 C 291.160 23.200,290.800 23.054,290.800 22.875 C 290.800 22.696,290.170 22.302,289.400 22.000 C 288.630 21.698,288.000 21.304,288.000 21.125 C 288.000 20.946,287.640 20.800,287.200 20.800 C 286.760 20.800,286.400 20.620,286.400 20.400 C 286.400 20.180,286.040 20.000,285.600 20.000 C 285.160 20.000,284.800 19.820,284.800 19.600 C 284.800 19.380,284.440 19.200,284.000 19.200 C 283.560 19.200,283.200 19.020,283.200 18.800 C 283.200 18.580,282.761 18.400,282.224 18.400 C 281.687 18.400,281.136 18.220,281.000 18.000 C 280.864 17.780,280.403 17.600,279.976 17.600 C 279.549 17.600,279.200 17.420,279.200 17.200 C 279.200 16.980,278.840 16.800,278.400 16.800 C 277.960 16.800,277.600 16.620,277.600 16.400 C 277.600 16.180,277.161 16.000,276.624 16.000 C 276.087 16.000,275.536 15.820,275.400 15.600 C 275.264 15.380,274.803 15.200,274.376 15.200 C 273.949 15.200,273.600 15.020,273.600 14.800 C 273.600 14.580,273.150 14.400,272.600 14.400 C 272.050 14.400,271.600 14.220,271.600 14.000 C 271.600 13.780,271.251 13.600,270.824 13.600 C 270.397 13.600,269.936 13.420,269.800 13.200 C 269.664 12.980,269.124 12.800,268.600 12.800 C 268.076 12.800,267.536 12.620,267.400 12.400 C 267.264 12.180,266.724 12.000,266.200 12.000 C 265.676 12.000,265.136 11.820,265.000 11.600 C 264.864 11.380,264.324 11.200,263.800 11.200 C 263.276 11.200,262.736 11.020,262.600 10.800 C 262.464 10.580,262.001 10.400,261.571 10.400 C 261.141 10.400,260.477 10.240,260.095 10.043 C 258.911 9.436,254.985 8.400,253.865 8.400 C 253.279 8.400,252.800 8.220,252.800 8.000 C 252.800 7.780,252.080 7.600,251.200 7.600 C 250.320 7.600,249.600 7.420,249.600 7.200 C 249.600 6.980,248.880 6.800,248.000 6.800 C 247.120 6.800,246.400 6.620,246.400 6.400 C 246.400 6.180,245.680 6.000,244.800 6.000 C 243.920 6.000,243.200 5.820,243.200 5.600 C 243.200 5.380,242.300 5.200,241.200 5.200 C 240.100 5.200,239.200 5.020,239.200 4.800 C 239.200 4.580,238.401 4.400,237.424 4.400 C 236.447 4.400,235.536 4.220,235.400 4.000 C 235.264 3.780,234.184 3.600,233.000 3.600 C 231.816 3.600,230.736 3.420,230.600 3.200 C 230.464 2.980,229.204 2.800,227.800 2.800 C 226.396 2.800,225.136 2.620,225.000 2.400 C 224.864 2.180,223.154 2.000,221.200 2.000 C 219.246 2.000,217.536 1.820,217.400 1.600 C 217.061 1.052,183.339 1.052,183.000 1.600 M207.333 64.802 C 218.297 67.564,225.133 76.466,225.186 88.051 C 225.207 92.637,220.986 92.171,264.561 92.400 L 302.600 92.600 305.200 93.533 C 312.284 96.076,318.178 101.958,319.896 108.200 C 320.138 109.080,320.531 110.541,320.768 111.446 C 321.034 112.459,321.200 118.010,321.200 125.866 C 321.200 139.778,321.170 139.600,323.497 139.600 C 328.476 139.600,336.151 142.629,339.494 145.913 C 346.802 153.092,347.422 159.396,343.614 187.800 C 343.408 189.340,343.043 192.490,342.803 194.800 C 342.563 197.110,342.199 200.170,341.995 201.600 C 341.791 203.030,341.513 205.190,341.379 206.400 C 341.244 207.610,340.964 210.130,340.756 212.000 C 340.548 213.870,340.205 216.840,339.994 218.600 C 339.391 223.614,338.784 228.730,338.403 232.000 C 338.211 233.650,337.856 236.620,337.614 238.600 C 337.372 240.580,337.009 243.640,336.808 245.400 C 336.077 251.782,335.549 256.256,335.200 259.000 C 335.004 260.540,334.659 263.420,334.432 265.400 C 333.956 269.566,333.484 273.597,332.011 286.100 C 331.797 287.915,331.447 290.840,331.233 292.600 C 330.588 297.896,330.065 302.399,329.654 306.200 C 328.905 313.124,328.397 315.356,326.835 318.600 C 324.170 324.133,319.659 328.269,314.182 330.202 L 311.400 331.183 200.138 331.192 L 88.877 331.200 86.045 330.242 C 80.834 328.479,77.376 325.913,74.745 321.858 C 72.117 317.807,71.394 315.221,70.364 306.200 C 70.138 304.220,69.778 301.160,69.563 299.400 C 69.349 297.640,68.997 294.670,68.782 292.800 C 68.567 290.930,68.218 287.960,68.006 286.200 C 67.795 284.440,67.433 281.380,67.203 279.400 C 66.973 277.420,66.608 274.315,66.392 272.500 C 66.176 270.685,65.820 267.670,65.600 265.800 C 65.380 263.930,65.008 260.825,64.773 258.900 C 64.538 256.975,64.189 254.050,63.997 252.400 C 63.805 250.750,63.446 247.690,63.200 245.600 C 62.954 243.510,62.594 240.450,62.400 238.800 C 61.975 235.180,61.328 229.744,60.806 225.400 C 60.413 222.128,59.916 217.910,59.192 211.700 C 58.968 209.775,58.614 206.760,58.405 205.000 C 57.898 200.721,57.315 195.740,56.835 191.600 C 56.618 189.730,56.340 187.390,56.215 186.400 C 52.925 160.156,53.199 155.241,58.334 148.290 C 62.009 143.314,69.715 139.600,76.363 139.600 C 78.844 139.600,78.799 139.848,78.812 126.220 C 78.828 109.579,79.608 106.436,85.159 100.645 C 89.283 96.342,92.792 94.443,98.897 93.208 C 102.015 92.578,102.400 91.948,102.400 87.469 C 102.400 76.440,109.988 66.648,119.969 64.797 C 121.163 64.575,122.228 64.306,122.336 64.197 C 123.063 63.470,204.342 64.048,207.333 64.802 M125.600 85.878 C 124.428 86.296,124.000 87.370,124.000 89.893 C 124.000 102.135,116.890 111.003,105.018 113.567 C 101.974 114.224,101.822 114.310,101.501 115.551 C 100.871 117.980,101.311 139.174,102.000 139.609 C 102.816 140.124,297.985 140.124,298.800 139.609 C 299.793 138.981,299.687 116.316,298.686 115.315 C 298.012 114.640,295.867 114.594,260.686 114.489 C 220.312 114.369,221.237 114.418,216.642 112.168 C 208.696 108.277,204.666 101.446,204.045 90.810 C 203.814 86.856,203.744 86.593,202.800 86.116 C 201.785 85.604,127.011 85.373,125.600 85.878 M77.301 162.281 C 75.613 162.608,75.657 164.106,77.817 180.000 C 77.951 180.990,78.220 183.330,78.413 185.200 C 78.607 187.070,78.961 190.130,79.200 192.000 C 79.439 193.870,79.817 197.020,80.040 199.000 C 80.264 200.980,80.622 204.040,80.837 205.800 C 81.051 207.560,81.395 210.530,81.600 212.400 C 81.805 214.270,82.166 217.330,82.403 219.200 C 82.639 221.070,82.992 224.040,83.187 225.800 C 83.383 227.560,83.735 230.575,83.971 232.500 C 85.269 243.090,86.035 249.918,86.188 252.270 C 86.262 253.408,86.456 254.938,86.619 255.670 C 86.782 256.401,86.965 257.900,87.027 259.000 C 87.089 260.100,87.339 262.620,87.583 264.600 C 87.827 266.580,88.201 269.730,88.415 271.600 C 88.628 273.470,88.982 276.440,89.200 278.200 C 89.418 279.960,89.778 282.930,89.998 284.800 C 90.219 286.670,90.585 289.730,90.812 291.600 C 91.038 293.470,91.399 296.530,91.613 298.400 C 92.901 309.640,92.731 309.032,94.740 309.590 C 96.346 310.036,302.235 310.184,304.915 309.741 C 306.829 309.424,307.219 308.703,307.682 304.617 C 307.882 302.847,308.216 300.050,308.424 298.400 C 308.632 296.750,308.992 293.690,309.224 291.600 C 309.455 289.510,309.813 286.450,310.018 284.800 C 310.458 281.268,310.989 276.797,311.561 271.800 C 311.788 269.820,312.175 266.580,312.421 264.600 C 312.667 262.620,312.912 260.190,312.967 259.200 C 313.021 258.210,313.213 256.590,313.394 255.600 C 313.574 254.610,313.758 253.080,313.803 252.200 C 313.878 250.724,314.259 247.093,314.641 244.200 C 314.728 243.540,314.985 241.380,315.211 239.400 C 315.437 237.420,315.810 234.270,316.040 232.400 C 316.270 230.530,316.619 227.560,316.816 225.800 C 317.680 218.078,317.957 215.726,318.138 214.600 C 318.243 213.940,318.533 211.510,318.782 209.200 C 319.030 206.890,319.401 203.830,319.605 202.400 C 319.809 200.970,320.087 198.630,320.222 197.200 C 320.357 195.770,320.638 193.250,320.847 191.600 C 321.056 189.950,321.391 187.070,321.593 185.200 C 321.794 183.330,322.150 180.360,322.383 178.600 C 323.808 167.854,324.115 163.182,323.442 162.509 C 323.125 162.192,78.922 161.966,77.301 162.281 " stroke="none" fill="#fc9c0c" fill-rule="evenodd"></path><path id="path1" d="M122.336 64.197 C 122.228 64.306,121.163 64.575,119.969 64.797 C 109.988 66.648,102.400 76.440,102.400 87.469 C 102.400 91.948,102.015 92.578,98.897 93.208 C 92.792 94.443,89.283 96.342,85.159 100.645 C 79.608 106.436,78.828 109.579,78.812 126.220 C 78.799 139.848,78.844 139.600,76.363 139.600 C 69.715 139.600,62.009 143.314,58.334 148.290 C 53.199 155.241,52.925 160.156,56.215 186.400 C 56.340 187.390,56.618 189.730,56.835 191.600 C 57.315 195.740,57.898 200.721,58.405 205.000 C 58.614 206.760,58.968 209.775,59.192 211.700 C 59.916 217.910,60.413 222.128,60.806 225.400 C 61.328 229.744,61.975 235.180,62.400 238.800 C 62.594 240.450,62.954 243.510,63.200 245.600 C 63.446 247.690,63.805 250.750,63.997 252.400 C 64.189 254.050,64.538 256.975,64.773 258.900 C 65.008 260.825,65.380 263.930,65.600 265.800 C 65.820 267.670,66.176 270.685,66.392 272.500 C 66.608 274.315,66.973 277.420,67.203 279.400 C 67.433 281.380,67.795 284.440,68.006 286.200 C 68.218 287.960,68.567 290.930,68.782 292.800 C 68.997 294.670,69.349 297.640,69.563 299.400 C 69.778 301.160,70.138 304.220,70.364 306.200 C 71.394 315.221,72.117 317.807,74.745 321.858 C 77.376 325.913,80.834 328.479,86.045 330.242 L 88.877 331.200 200.138 331.192 L 311.400 331.183 314.182 330.202 C 319.659 328.269,324.170 324.133,326.835 318.600 C 328.397 315.356,328.905 313.124,329.654 306.200 C 330.065 302.399,330.588 297.896,331.233 292.600 C 331.447 290.840,331.797 287.915,332.011 286.100 C 333.484 273.597,333.956 269.566,334.432 265.400 C 334.659 263.420,335.004 260.540,335.200 259.000 C 335.549 256.256,336.077 251.782,336.808 245.400 C 337.009 243.640,337.372 240.580,337.614 238.600 C 337.856 236.620,338.211 233.650,338.403 232.000 C 338.784 228.730,339.391 223.614,339.994 218.600 C 340.205 216.840,340.548 213.870,340.756 212.000 C 340.964 210.130,341.244 207.610,341.379 206.400 C 341.513 205.190,341.791 203.030,341.995 201.600 C 342.199 200.170,342.563 197.110,342.803 194.800 C 343.043 192.490,343.408 189.340,343.614 187.800 C 347.422 159.396,346.802 153.092,339.494 145.913 C 336.151 142.629,328.476 139.600,323.497 139.600 C 321.170 139.600,321.200 139.778,321.200 125.866 C 321.200 118.010,321.034 112.459,320.768 111.446 C 320.531 110.541,320.138 109.080,319.896 108.200 C 318.178 101.958,312.284 96.076,305.200 93.533 L 302.600 92.600 264.561 92.400 C 220.986 92.171,225.207 92.637,225.186 88.051 C 225.133 76.466,218.297 67.564,207.333 64.802 C 204.342 64.048,123.063 63.470,122.336 64.197 M202.200 68.400 C 202.336 68.620,203.416 68.800,204.600 68.800 C 205.784 68.800,206.864 68.980,207.000 69.200 C 207.136 69.420,207.749 69.600,208.362 69.600 C 209.617 69.600,211.667 70.516,212.407 71.408 C 212.677 71.734,213.108 72.000,213.364 72.000 C 213.906 72.000,217.175 75.334,218.070 76.800 C 219.325 78.853,220.331 82.738,220.754 87.163 C 221.010 89.836,221.416 91.990,221.734 92.363 C 222.034 92.713,222.392 93.319,222.530 93.709 C 222.669 94.099,223.101 94.537,223.491 94.682 C 223.881 94.827,224.710 95.318,225.333 95.773 C 226.455 96.591,226.865 96.602,264.133 96.822 C 288.036 96.963,302.385 97.195,303.400 97.457 C 305.571 98.019,308.556 99.424,309.184 100.180 C 309.466 100.521,309.892 100.800,310.130 100.800 C 310.715 100.800,313.200 103.242,313.200 103.816 C 313.200 104.069,313.560 104.602,314.000 105.000 C 314.440 105.398,314.800 106.135,314.800 106.638 C 314.800 107.141,314.980 107.664,315.200 107.800 C 315.420 107.936,315.600 108.476,315.600 109.000 C 315.600 109.524,315.780 110.064,316.000 110.200 C 316.220 110.336,316.400 111.416,316.400 112.600 C 316.400 113.784,316.580 114.864,316.800 115.000 C 317.052 115.156,317.200 119.725,317.200 127.387 L 317.200 139.527 318.992 141.370 C 321.109 143.549,321.752 143.831,325.420 144.194 C 328.662 144.515,332.646 145.772,333.826 146.848 C 334.280 147.261,334.840 147.600,335.071 147.600 C 335.916 147.600,339.064 151.472,340.274 154.000 C 342.253 158.134,342.367 162.819,340.786 175.000 C 340.557 176.760,340.210 179.640,340.015 181.400 C 339.819 183.160,339.452 186.220,339.200 188.200 C 338.948 190.180,338.580 193.240,338.384 195.000 C 338.187 196.760,337.840 199.775,337.613 201.700 C 337.386 203.625,337.014 206.775,336.787 208.700 C 335.797 217.087,335.593 218.776,335.208 221.800 C 334.983 223.560,334.690 226.620,334.557 228.600 C 334.424 230.580,334.154 232.371,333.958 232.580 C 333.761 232.789,333.600 234.263,333.600 235.856 C 333.600 237.449,333.420 238.864,333.200 239.000 C 332.980 239.136,332.800 240.756,332.800 242.600 C 332.800 244.444,332.620 246.064,332.400 246.200 C 332.180 246.336,332.000 247.686,332.000 249.200 C 332.000 250.714,331.820 252.064,331.600 252.200 C 331.380 252.336,331.200 253.956,331.200 255.800 C 331.200 257.644,331.020 259.264,330.800 259.400 C 330.580 259.536,330.400 260.976,330.400 262.600 C 330.400 264.224,330.220 265.664,330.000 265.800 C 329.780 265.936,329.600 267.466,329.600 269.200 C 329.600 270.934,329.420 272.464,329.200 272.600 C 328.980 272.736,328.800 274.176,328.800 275.800 C 328.800 277.424,328.620 278.864,328.400 279.000 C 328.180 279.136,328.000 280.756,328.000 282.600 C 328.000 284.444,327.820 286.064,327.600 286.200 C 327.380 286.336,327.190 287.652,327.178 289.124 C 327.167 290.596,326.998 293.150,326.803 294.800 C 325.720 303.983,325.517 305.660,325.162 308.400 C 324.499 313.512,324.327 314.398,323.958 314.626 C 323.761 314.748,323.600 315.169,323.600 315.562 C 323.600 316.474,322.561 318.568,321.792 319.207 C 321.466 319.477,321.200 319.893,321.200 320.132 C 321.200 320.723,318.353 323.600,317.768 323.600 C 317.509 323.600,317.066 323.879,316.784 324.220 C 314.243 327.281,318.486 327.174,200.000 327.174 C 87.159 327.174,88.786 327.201,84.752 325.267 C 78.772 322.401,75.983 317.619,74.801 308.200 C 74.479 305.641,74.247 303.696,73.197 294.800 C 73.002 293.150,72.833 290.596,72.822 289.124 C 72.810 287.652,72.620 286.336,72.400 286.200 C 72.180 286.064,72.000 284.444,72.000 282.600 C 72.000 280.756,71.820 279.136,71.600 279.000 C 71.380 278.864,71.200 277.424,71.200 275.800 C 71.200 274.176,71.020 272.736,70.800 272.600 C 70.580 272.464,70.400 270.934,70.400 269.200 C 70.400 267.466,70.220 265.936,70.000 265.800 C 69.780 265.664,69.600 264.224,69.600 262.600 C 69.600 260.976,69.420 259.536,69.200 259.400 C 68.980 259.264,68.800 257.644,68.800 255.800 C 68.800 253.956,68.620 252.336,68.400 252.200 C 68.180 252.064,68.000 250.714,68.000 249.200 C 68.000 247.686,67.820 246.336,67.600 246.200 C 67.380 246.064,67.200 244.444,67.200 242.600 C 67.200 240.756,67.020 239.136,66.800 239.000 C 66.580 238.864,66.400 237.449,66.400 235.856 C 66.400 234.263,66.239 232.789,66.042 232.580 C 65.846 232.371,65.576 230.580,65.443 228.600 C 65.310 226.620,65.017 223.560,64.792 221.800 C 64.568 220.040,64.214 217.160,64.005 215.400 C 63.463 210.821,62.860 205.712,62.412 201.900 C 62.199 200.085,61.849 197.160,61.635 195.400 C 60.977 190.007,60.358 184.755,59.985 181.400 C 59.790 179.640,59.443 176.760,59.214 175.000 C 56.441 153.638,60.453 145.595,74.580 144.195 C 78.248 143.831,78.891 143.549,81.008 141.370 L 82.800 139.527 82.800 127.787 C 82.800 120.392,82.948 115.956,83.200 115.800 C 83.420 115.664,83.600 114.584,83.600 113.400 C 83.600 112.216,83.780 111.136,84.000 111.000 C 84.220 110.864,84.400 110.439,84.400 110.055 C 84.400 109.158,86.261 105.413,87.019 104.784 C 87.339 104.519,87.600 104.111,87.600 103.877 C 87.600 103.281,89.239 101.600,89.821 101.600 C 90.085 101.600,90.523 101.334,90.792 101.009 C 91.395 100.283,94.837 98.656,97.000 98.074 C 97.880 97.837,99.470 97.410,100.534 97.124 C 101.981 96.736,102.947 96.099,104.368 94.597 L 106.267 92.589 106.525 87.794 C 106.799 82.706,107.855 78.521,109.253 76.974 C 109.664 76.520,110.000 75.973,110.000 75.758 C 110.000 75.227,113.320 72.000,113.866 72.000 C 114.106 72.000,114.523 71.734,114.793 71.408 C 115.533 70.516,117.583 69.600,118.838 69.600 C 119.451 69.600,120.064 69.420,120.200 69.200 C 120.336 68.980,121.416 68.800,122.600 68.800 C 123.784 68.800,124.864 68.620,125.000 68.400 C 125.162 68.138,138.463 68.000,163.600 68.000 C 188.737 68.000,202.038 68.138,202.200 68.400 M125.800 81.600 C 125.664 81.820,125.151 82.000,124.660 82.000 C 122.080 82.000,120.024 85.716,119.570 91.200 C 119.184 95.851,118.824 97.938,118.356 98.227 C 118.160 98.348,118.000 98.797,118.000 99.224 C 118.000 99.651,117.820 100.000,117.600 100.000 C 117.380 100.000,117.200 100.236,117.200 100.525 C 117.200 100.813,116.840 101.436,116.400 101.908 C 115.960 102.380,115.600 102.918,115.600 103.102 C 115.600 103.616,112.631 106.400,112.083 106.400 C 111.817 106.400,111.600 106.548,111.600 106.729 C 111.600 107.136,107.982 108.800,107.096 108.800 C 106.739 108.800,106.336 108.980,106.200 109.200 C 106.064 109.420,105.241 109.600,104.371 109.600 C 101.879 109.600,97.600 112.797,97.600 114.660 C 97.600 115.151,97.420 115.664,97.200 115.800 C 96.575 116.186,96.668 138.174,97.300 139.305 C 98.118 140.771,100.517 143.199,101.761 143.820 C 103.374 144.625,297.466 144.704,298.905 143.900 C 300.371 143.082,302.799 140.683,303.420 139.439 C 304.123 138.030,304.289 117.026,303.600 116.600 C 303.380 116.464,303.200 115.952,303.200 115.461 C 303.200 114.920,302.408 113.790,301.185 112.585 L 299.170 110.600 260.885 110.387 C 239.828 110.270,222.150 110.027,221.600 109.847 C 220.625 109.528,217.531 108.050,215.674 107.016 C 214.368 106.288,212.400 104.340,212.400 103.774 C 212.400 103.512,212.134 103.077,211.809 102.808 C 211.171 102.278,209.607 99.075,208.862 96.772 C 208.608 95.986,208.400 93.681,208.400 91.650 C 208.400 86.189,207.181 83.926,203.225 82.044 C 201.231 81.096,126.377 80.666,125.800 81.600 M202.800 86.116 C 203.744 86.593,203.814 86.856,204.045 90.810 C 204.666 101.446,208.696 108.277,216.642 112.168 C 221.237 114.418,220.312 114.369,260.686 114.489 C 295.867 114.594,298.012 114.640,298.686 115.315 C 299.687 116.316,299.793 138.981,298.800 139.609 C 297.985 140.124,102.816 140.124,102.000 139.609 C 101.311 139.174,100.871 117.980,101.501 115.551 C 101.822 114.310,101.974 114.224,105.018 113.567 C 116.890 111.003,124.000 102.135,124.000 89.893 C 124.000 87.370,124.428 86.296,125.600 85.878 C 127.011 85.373,201.785 85.604,202.800 86.116 M76.800 157.666 C 75.081 158.150,72.548 160.517,71.735 162.400 C 71.119 163.826,71.123 163.966,72.014 171.400 C 72.827 178.183,73.186 181.231,73.567 184.600 C 73.790 186.580,74.160 189.640,74.388 191.400 C 74.616 193.160,74.981 196.220,75.200 198.200 C 75.419 200.180,75.790 203.240,76.024 205.000 C 76.259 206.760,76.665 210.841,76.926 214.069 C 77.187 217.296,77.535 220.071,77.700 220.235 C 77.865 220.399,78.000 222.023,78.000 223.843 C 78.000 225.663,78.180 227.264,78.400 227.400 C 78.620 227.536,78.800 228.886,78.800 230.400 C 78.800 231.914,78.980 233.264,79.200 233.400 C 79.420 233.536,79.600 235.156,79.600 237.000 C 79.600 238.844,79.780 240.464,80.000 240.600 C 80.220 240.736,80.400 242.176,80.400 243.800 C 80.400 245.424,80.580 246.864,80.800 247.000 C 81.020 247.136,81.200 248.666,81.200 250.400 C 81.200 252.134,81.380 253.664,81.600 253.800 C 81.820 253.936,82.000 255.531,82.000 257.344 C 82.000 259.157,82.166 260.811,82.369 261.020 C 82.572 261.229,82.837 262.660,82.959 264.200 C 83.265 268.070,83.894 273.716,85.211 284.400 C 85.414 286.050,85.765 288.975,85.990 290.900 C 87.468 303.518,87.925 307.151,88.226 308.651 C 88.565 310.342,92.156 313.812,94.000 314.229 C 95.830 314.644,304.170 314.644,306.000 314.229 C 307.844 313.812,311.435 310.342,311.774 308.651 C 312.074 307.154,312.452 304.156,314.000 291.000 C 314.438 287.276,315.027 282.361,315.630 277.400 C 316.305 271.837,316.813 267.092,317.041 264.200 C 317.163 262.660,317.428 261.229,317.631 261.020 C 317.834 260.811,318.000 259.157,318.000 257.344 C 318.000 255.531,318.180 253.936,318.400 253.800 C 318.620 253.664,318.800 252.134,318.800 250.400 C 318.800 248.666,318.980 247.136,319.200 247.000 C 319.420 246.864,319.600 245.424,319.600 243.800 C 319.600 242.176,319.780 240.736,320.000 240.600 C 320.220 240.464,320.400 238.844,320.400 237.000 C 320.400 235.156,320.580 233.536,320.800 233.400 C 321.020 233.264,321.200 231.914,321.200 230.400 C 321.200 228.886,321.380 227.536,321.600 227.400 C 321.820 227.264,322.000 225.663,322.000 223.843 C 322.000 222.023,322.135 220.399,322.300 220.235 C 322.465 220.071,322.818 217.296,323.085 214.069 C 323.351 210.841,323.745 206.760,323.961 205.000 C 324.176 203.240,324.553 200.090,324.799 198.000 C 325.045 195.910,325.413 192.850,325.616 191.200 C 326.596 183.240,327.613 174.598,327.828 172.400 C 327.925 171.410,328.207 169.410,328.456 167.957 C 329.313 162.938,327.097 158.746,323.000 157.637 C 320.869 157.061,78.851 157.089,76.800 157.666 M323.442 162.509 C 324.115 163.182,323.808 167.854,322.383 178.600 C 322.150 180.360,321.794 183.330,321.593 185.200 C 321.391 187.070,321.056 189.950,320.847 191.600 C 320.638 193.250,320.357 195.770,320.222 197.200 C 320.087 198.630,319.809 200.970,319.605 202.400 C 319.401 203.830,319.030 206.890,318.782 209.200 C 318.533 211.510,318.243 213.940,318.138 214.600 C 317.957 215.726,317.680 218.078,316.816 225.800 C 316.619 227.560,316.270 230.530,316.040 232.400 C 315.810 234.270,315.437 237.420,315.211 239.400 C 314.985 241.380,314.728 243.540,314.641 244.200 C 314.259 247.093,313.878 250.724,313.803 252.200 C 313.758 253.080,313.574 254.610,313.394 255.600 C 313.213 256.590,313.021 258.210,312.967 259.200 C 312.912 260.190,312.667 262.620,312.421 264.600 C 312.175 266.580,311.788 269.820,311.561 271.800 C 310.989 276.797,310.458 281.268,310.018 284.800 C 309.813 286.450,309.455 289.510,309.224 291.600 C 308.992 293.690,308.632 296.750,308.424 298.400 C 308.216 300.050,307.882 302.847,307.682 304.617 C 307.219 308.703,306.829 309.424,304.915 309.741 C 302.235 310.184,96.346 310.036,94.740 309.590 C 92.731 309.032,92.901 309.640,91.613 298.400 C 91.399 296.530,91.038 293.470,90.812 291.600 C 90.585 289.730,90.219 286.670,89.998 284.800 C 89.778 282.930,89.418 279.960,89.200 278.200 C 88.982 276.440,88.628 273.470,88.415 271.600 C 88.201 269.730,87.827 266.580,87.583 264.600 C 87.339 262.620,87.089 260.100,87.027 259.000 C 86.965 257.900,86.782 256.401,86.619 255.670 C 86.456 254.938,86.262 253.408,86.188 252.270 C 86.035 249.918,85.269 243.090,83.971 232.500 C 83.735 230.575,83.383 227.560,83.187 225.800 C 82.992 224.040,82.639 221.070,82.403 219.200 C 82.166 217.330,81.805 214.270,81.600 212.400 C 81.395 210.530,81.051 207.560,80.837 205.800 C 80.622 204.040,80.264 200.980,80.040 199.000 C 79.817 197.020,79.439 193.870,79.200 192.000 C 78.961 190.130,78.607 187.070,78.413 185.200 C 78.220 183.330,77.951 180.990,77.817 180.000 C 75.657 164.106,75.613 162.608,77.301 162.281 C 78.922 161.966,323.125 162.192,323.442 162.509 " stroke="none" fill="#fcb167" fill-rule="evenodd"></path></g></svg>