<?xml version="1.0" encoding="UTF-8"?>
<svg version="1.1" xmlns="http://www.w3.org/2000/svg" width="192" height="192">
<path d="M0 0 C1.42338436 1.17943955 2.8427544 2.36385054 4.25 3.5625 C8.06225129 2.19353969 11.08544654 0.43956391 14.375 -1.9140625 C15.32890625 -2.584375 16.2828125 -3.2546875 17.265625 -3.9453125 C19.25890196 -5.35939118 21.24848505 -6.77869085 23.234375 -8.203125 C24.18828125 -8.87085938 25.1421875 -9.53859375 26.125 -10.2265625 C26.98867187 -10.84225098 27.85234375 -11.45793945 28.7421875 -12.09228516 C31.51039227 -13.57717693 33.15770247 -13.7222075 36.25 -13.4375 C36.42112759 -8.44176842 35.89733344 -4.2850138 34.5703125 0.52734375 C34.31107498 1.48284874 34.31107498 1.48284874 34.04660034 2.45765686 C33.49765359 4.47414018 32.93672186 6.48704238 32.375 8.5 C32.00567928 9.84547526 31.63718302 11.19117711 31.26953125 12.53710938 C31.09056305 13.1909108 30.91159485 13.84471222 30.72720337 14.51832581 C30.2075967 16.41988826 29.69043847 18.32211923 29.17333984 20.22436523 C28.63058302 22.18658469 28.07068678 24.14445291 27.47119141 26.09008789 C26.14279931 30.57619415 26.25230825 32.95845934 28.375 37.125 C30.55929929 41.82780831 32.19554293 46.37541023 33.5 51.375 C33.81453125 52.57769531 34.1290625 53.78039062 34.453125 55.01953125 C39.92362777 79.3418156 35.1205904 104.61428415 22.828125 126.09375 C20.240146 130.14227161 17.28818908 133.84752303 14.25 137.5625 C13.72792969 138.30628906 13.20585937 139.05007812 12.66796875 139.81640625 C12.20003906 140.39261719 11.73210937 140.96882812 11.25 141.5625 C10.59 141.5625 9.93 141.5625 9.25 141.5625 C8.92 142.5525 8.59 143.5425 8.25 144.5625 C7.59 144.5625 6.93 144.5625 6.25 144.5625 C5.92 145.5525 5.59 146.5425 5.25 147.5625 C-14.68165587 165.54354898 -40.89636933 172.96648359 -67.33984375 171.73535156 C-94.53032972 169.78530455 -116.67201976 156.34226541 -134.75 136.5625 C-144.29389617 125.10603733 -150.41283968 110.98254537 -153.75 96.5625 C-154.08644531 95.26892578 -154.08644531 95.26892578 -154.4296875 93.94921875 C-160.03465888 69.26431056 -153.42844102 43.62822409 -140.62109375 22.40625 C-137.65259626 17.89462959 -134.50132275 13.46042617 -130.75 9.5625 C-130.09 9.5625 -129.43 9.5625 -128.75 9.5625 C-128.42 8.5725 -128.09 7.5825 -127.75 6.5625 C-127.09 6.5625 -126.43 6.5625 -125.75 6.5625 C-125.42 5.5725 -125.09 4.5825 -124.75 3.5625 C-90.19753804 -27.60849326 -36.14765162 -28.70548805 0 0 Z " fill="#082125" transform="translate(155.75,20.4375)"/>
<path d="M0 0 C0.16757059 4.99288721 -0.34913389 9.18163696 -1.64453125 14 C-1.81498459 14.639375 -1.98543793 15.27875 -2.16105652 15.9375 C-2.52092544 17.27977083 -2.8850232 18.62091447 -3.25317383 19.9609375 C-3.81032563 21.99207317 -4.35245357 24.02677817 -4.89257812 26.0625 C-9.58289175 43.45882665 -9.58289175 43.45882665 -14.75 47.4375 C-18.20384066 50.27190185 -21.06773646 53.2312306 -23.953125 56.6328125 C-26.56598235 59.65455211 -29.28067128 62.57422462 -32 65.5 C-35.78932214 69.58522694 -39.5217363 73.70395315 -43.16796875 77.91796875 C-45.53250078 80.60516614 -47.95222063 83.24046524 -50.375 85.875 C-53.90788808 89.71836503 -57.43531782 93.56605973 -60.9375 97.4375 C-61.62714844 98.19933594 -62.31679687 98.96117188 -63.02734375 99.74609375 C-65.09436447 102.10781841 -67.04014246 104.54916365 -69 107 C-70.6436814 108.68933922 -72.3142876 110.35259924 -74 112 C-78.63282958 116.53509056 -83.05877823 121.15000732 -87.28515625 126.06640625 C-89.49629412 128.55960271 -91.85892734 130.87189286 -94.23828125 133.203125 C-96.73857465 135.75331339 -99.03111707 138.46672681 -101.32421875 141.203125 C-104.14414739 144.22682471 -106.14680321 145.83592369 -110.25 146.625 C-118.74749413 145.20875098 -125.60701636 135.54014955 -131.49609375 129.63671875 C-132.37024429 128.76352493 -133.24439484 127.89033112 -134.14503479 126.99067688 C-135.97739427 125.15899384 -137.80850784 123.32606365 -139.63842773 121.49194336 C-141.51523402 119.6115357 -143.39330548 117.73253517 -145.27416992 115.85620117 C-147.99665351 113.13986795 -150.71568323 110.42012689 -153.43359375 107.69921875 C-154.70063393 106.43521492 -154.70063393 106.43521492 -155.99327087 105.14567566 C-156.76820389 104.36759048 -157.5431369 103.58950531 -158.34155273 102.7878418 C-159.02579819 102.10280075 -159.71004364 101.4177597 -160.4150238 100.71195984 C-162.59988332 98.35205579 -162.98330608 97.10433698 -163.5 93.875 C-162.77308216 88.24138672 -159.93827674 85.90551238 -156 82 C-154.97681404 80.95415174 -153.95475387 79.90720136 -152.93359375 78.859375 C-143.43005762 69.18255257 -143.43005762 69.18255257 -139.20581055 68.64331055 C-134.93989163 69.11795129 -133.66270291 70.64475532 -130.70703125 73.70703125 C-130.23432297 74.18822922 -129.76161469 74.66942719 -129.27458191 75.16520691 C-127.77249414 76.70074861 -126.29261128 78.25579387 -124.8125 79.8125 C-123.80674579 80.8483734 -122.79959693 81.88289463 -121.79101562 82.91601562 C-119.94003705 84.81589746 -118.09976513 86.72427269 -116.26489258 88.63989258 C-115.51747803 89.41872803 -114.77006348 90.19756348 -114 91 C-113.46592529 91.57967529 -112.93185059 92.15935059 -112.3815918 92.7565918 C-110.90213642 94.25460812 -110.90213642 94.25460812 -108 95 C-107.66713486 94.17965019 -107.66713486 94.17965019 -107.32754517 93.34272766 C-105.5865387 90.27036214 -103.24920255 87.97851394 -100.75927734 85.51635742 C-100.22563568 84.98081741 -99.69199402 84.4452774 -99.1421814 83.89350891 C-97.37828053 82.12590689 -95.60728471 80.36560616 -93.8359375 78.60546875 C-92.60206215 77.37278653 -91.36855735 76.13973328 -90.13540649 74.90632629 C-87.54761707 72.32010103 -84.95650451 69.73726814 -82.36279297 67.15698242 C-79.0560424 63.86714126 -75.75583134 60.57083723 -72.45790672 57.27215099 C-69.9084087 54.72292657 -67.35629928 52.17632994 -64.80333328 49.63057899 C-63.58685243 48.41725789 -62.37095656 47.20334997 -61.15568161 45.98882103 C-52.61537147 37.45948121 -43.92513025 29.41342937 -34.39453125 21.9921875 C-31.95923363 20.04937666 -31.95923363 20.04937666 -29.88671875 17.74609375 C-25.62604987 13.69298113 -20.84583973 10.50157233 -16 7.1875 C-15.01515625 6.49462891 -14.0303125 5.80175781 -13.015625 5.08789062 C-12.06171875 4.43369141 -11.1078125 3.77949219 -10.125 3.10546875 C-9.26132813 2.50887451 -8.39765625 1.91228027 -7.5078125 1.29760742 C-4.74771147 -0.13054065 -3.06183654 -0.27264337 0 0 Z " fill="#F6F7F2" transform="translate(192,7)"/>
<path d="M0 0 C2.97 0 5.94 0 9 0 C10.55086554 19.81661517 2.09808107 38.85302063 -10.33984375 53.96484375 C-20.77307881 66.117126 -33.89555239 74.760062 -49 80 C-50.08539063 80.39316406 -51.17078125 80.78632813 -52.2890625 81.19140625 C-74.96369965 88.15888041 -99.04139426 85.41656783 -119.875 74.75 C-126.92695856 70.92633166 -133.09329922 66.44718435 -139 61 C-139.76441406 60.33871094 -140.52882813 59.67742187 -141.31640625 58.99609375 C-151.81875843 49.37045966 -158.66403722 36.42444371 -163 23 C-163.24363281 22.30261719 -163.48726562 21.60523437 -163.73828125 20.88671875 C-165.04401186 16.88070172 -165.1709788 13.18898055 -165 9 C-164.01 8.67 -163.02 8.34 -162 8 C-162 8.99 -162 9.98 -162 11 C-160.88625 10.87625 -160.88625 10.87625 -159.75 10.75 C-157 11 -157 11 -154.875 12.375 C-152.61604518 15.53753674 -151.91672687 18.43504007 -150.8984375 22.15234375 C-148.04166524 31.20706973 -143.08769462 38.81679769 -137 46 C-136.50628906 46.62648437 -136.01257813 47.25296875 -135.50390625 47.8984375 C-124.43774055 61.6336784 -105.55394805 70.49696265 -88.25 72.8125 C-86.83448514 72.89716631 -85.41745151 72.95898874 -84 73 C-82.76056641 73.0928125 -82.76056641 73.0928125 -81.49609375 73.1875 C-60.84462712 74.10661952 -41.19600454 66.86351907 -26 53 C-25.3915625 52.48308594 -24.783125 51.96617187 -24.15625 51.43359375 C-9.53650384 38.17614212 -4.19146659 18.54107576 0 0 Z " fill="#F0F1EC" transform="translate(175,99)"/>
<path d="M0 0 C1.66869141 -0.01836914 1.66869141 -0.01836914 3.37109375 -0.03710938 C15.0029304 -0.05742108 25.14587414 1.61313766 35.875 6.125 C36.74125 6.47240234 37.6075 6.81980469 38.5 7.17773438 C42.54738164 8.83603658 45.93364529 10.44656791 49.375 13.1875 C49.045 14.1775 48.715 15.1675 48.375 16.1875 C46.72295544 16.88961894 45.05576231 17.55721413 43.375 18.1875 C43.045 18.8475 42.715 19.5075 42.375 20.1875 C38.66448534 19.80693439 35.74296377 18.95271119 32.4375 17.3125 C15.65837157 9.71335754 -7.37017899 9.36323927 -24.71582031 15.45556641 C-35.62691522 19.63861788 -45.09653452 25.10569719 -53.625 33.1875 C-54.34042969 33.86167969 -55.05585937 34.53585938 -55.79296875 35.23046875 C-63.93126811 43.62063037 -69.57978574 54.96705669 -72.625 66.1875 C-73.625 69.6875 -73.625 69.6875 -74.625 72.1875 C-76.11 72.6825 -76.11 72.6825 -77.625 73.1875 C-77.955 72.8575 -78.285 72.5275 -78.625 72.1875 C-81.09300047 73.33923355 -82.67283565 74.23533565 -84.625 76.1875 C-85.625 75.1875 -85.625 75.1875 -85.6796875 73.17578125 C-84.36949253 53.66526921 -74.14526917 37.55564237 -60.625 24.1875 C-59.82191406 23.37410156 -59.01882812 22.56070312 -58.19140625 21.72265625 C-42.28884419 6.44679614 -21.63520072 0.01227877 0 0 Z " fill="#F3F5F2" transform="translate(95.625,8.8125)"/>
<path d="M0 0 C0 0.33 0 0.66 0 1 C-0.804375 1.12375 -1.60875 1.2475 -2.4375 1.375 C-3.283125 1.58125 -4.12875 1.7875 -5 2 C-5.33 2.66 -5.66 3.32 -6 4 C-6.99 4 -7.98 4 -9 4 C-9 4.66 -9 5.32 -9 6 C-9.61875 6.226875 -10.2375 6.45375 -10.875 6.6875 C-13.61410209 8.37929835 -14.05024472 9.99244161 -15 13 C-16.32 11.68 -17.64 10.36 -19 9 C-19.33 9.66 -19.66 10.32 -20 11 C-23 9 -23 9 -25 7 C-25.66 7.99 -26.32 8.98 -27 10 C-27.99 10 -28.98 10 -30 10 C-30 10.99 -30 11.98 -30 13 C-29.34 13 -28.68 13 -28 13 C-28 13.66 -28 14.32 -28 15 C-28.639375 15.268125 -29.27875 15.53625 -29.9375 15.8125 C-32.33131686 16.88667752 -32.33131686 16.88667752 -33 20 C-33.66 20 -34.32 20 -35 20 C-35.495 18.515 -35.495 18.515 -36 17 C-38.00016466 15.79117904 -38.00016466 15.79117904 -40 15 C-40 14.34 -40 13.68 -40 13 C-39.01 12.67 -38.02 12.34 -37 12 C-36.67 10.02 -36.34 8.04 -36 6 C-37.65 6.33 -39.3 6.66 -41 7 C-41.495 6.01 -41.495 6.01 -42 5 C-43.32 5.33 -44.64 5.66 -46 6 C-46 5.34 -46 4.68 -46 4 C-46.66 4.33 -47.32 4.66 -48 5 C-48 7.64 -48 10.28 -48 13 C-48.99 13.33 -49.98 13.66 -51 14 C-51.66 14.66 -52.32 15.32 -53 16 C-53.33 15.34 -53.66 14.68 -54 14 C-56.12576782 13.53348793 -56.12576782 13.53348793 -58.5625 13.375 C-59.38878906 13.30023438 -60.21507813 13.22546875 -61.06640625 13.1484375 C-61.70449219 13.09945312 -62.34257813 13.05046875 -63 13 C-62.78991116 16.23265726 -62.39354369 19.05633467 -61 22 C-58.13334276 23.69798345 -55.26345988 24.41580039 -52 25 C-54 27 -54 27 -57.5 27.9375 C-61.23685745 28.6673234 -61.23685745 28.6673234 -63 32 C-63.39387788 34.32387947 -63.73486085 36.65793749 -64 39 C-64.66 39 -65.32 39 -66 39 C-66.2475 37.741875 -66.495 36.48375 -66.75 35.1875 C-67.43533835 32.50759072 -67.81358748 31.20712503 -69.6875 29.125 C-72.70259459 27.65819723 -75.75341896 26.81164526 -79 26 C-76.61772756 24.71723792 -74.49957984 23.85988235 -71.875 23.125 C-68.9662674 22.30324245 -68.9662674 22.30324245 -67.859375 20.2890625 C-66.83700466 17.56583967 -66.58203169 15.14844366 -66.375 12.25 C-66.30023438 11.26515625 -66.22546875 10.2803125 -66.1484375 9.265625 C-66.09945312 8.51796875 -66.05046875 7.7703125 -66 7 C-65.01 6.67 -64.02 6.34 -63 6 C-62.67 5.34 -62.34 4.68 -62 4 C-61.01 3.67 -60.02 3.34 -59 3 C-59 1.68 -59 0.36 -59 -1 C-59.66 -1.33 -60.32 -1.66 -61 -2 C-41.31893762 -8.39848763 -19.05139229 -8.5875594 0 0 Z " fill="#1A7160" transform="translate(130,26)"/>
<path d="M0 0 C0.495 1.98 0.495 1.98 1 4 C-0.134375 4.433125 -1.26875 4.86625 -2.4375 5.3125 C-4.45377787 6.32082847 -4.45377787 6.32082847 -6 8 C-6.64516337 10.81447107 -6.75041898 13.36218922 -6.734375 16.24609375 C-7.06320345 19.65527101 -7.82751058 21.35184974 -10 24 C-12.77734375 25.109375 -12.77734375 25.109375 -15.9375 25.75 C-17.49791016 26.08257812 -17.49791016 26.08257812 -19.08984375 26.421875 C-20.83158379 26.7678851 -22.57366043 27.11221688 -24.31640625 27.453125 C-25.14978516 27.72382812 -25.14978516 27.72382812 -26 28 C-26.33 28.66 -26.66 29.32 -27 30 C-29.0625 31.125 -29.0625 31.125 -31 32 C-30.67 33.65 -30.34 35.3 -30 37 C-30.99 37.495 -30.99 37.495 -32 38 C-32.99 37.34 -33.98 36.68 -35 36 C-35.9075 36.639375 -36.815 37.27875 -37.75 37.9375 C-40.39221381 39.61428953 -41.9898499 40.53689998 -45 41 C-41.13336649 26.30679264 -28.83329734 13.51637236 -16 6 C-5.21603563 0 -5.21603563 0 0 0 Z " fill="#196B5B" transform="translate(71,25)"/>
<path d="M0 0 C9.80461731 -0.51203998 17.95809794 1.27305112 27 5 C27 5.33 27 5.66 27 6 C26.195625 6.12375 25.39125 6.2475 24.5625 6.375 C23.716875 6.58125 22.87125 6.7875 22 7 C21.67 7.66 21.34 8.32 21 9 C20.01 9 19.02 9 18 9 C18 9.66 18 10.32 18 11 C17.38125 11.226875 16.7625 11.45375 16.125 11.6875 C13.38589791 13.37929835 12.94975528 14.99244161 12 18 C10.68 16.68 9.36 15.36 8 14 C7.67 14.66 7.34 15.32 7 16 C4 14 4 14 2 12 C1.01 13.485 1.01 13.485 0 15 C-0.99 15 -1.98 15 -3 15 C-3 15.99 -3 16.98 -3 18 C-2.34 18 -1.68 18 -1 18 C-1 18.66 -1 19.32 -1 20 C-1.639375 20.268125 -2.27875 20.53625 -2.9375 20.8125 C-5.33131686 21.88667752 -5.33131686 21.88667752 -6 25 C-6.66 25 -7.32 25 -8 25 C-8.33 24.01 -8.66 23.02 -9 22 C-11.00016466 20.79117904 -11.00016466 20.79117904 -13 20 C-13 19.34 -13 18.68 -13 18 C-12.38125 17.731875 -11.7625 17.46375 -11.125 17.1875 C-8.7004767 16.04443152 -8.7004767 16.04443152 -7 13 C-7 11.68 -7 10.36 -7 9 C-6.01 9 -5.02 9 -4 9 C-3.67 8.34 -3.34 7.68 -3 7 C-1.35636866 6.27840576 0.31050386 5.60648579 2 5 C1.34 3.35 0.68 1.7 0 0 Z " fill="#106756" transform="translate(103,21)"/>
<path d="M0 0 C2.49052569 1.84082333 2.98332646 2.91575476 3.59375 6 C4.16995084 10.63904766 4.10863913 15.27034948 4.0625 19.9375 C4.05798828 20.81212891 4.05347656 21.68675781 4.04882812 22.58789062 C4.03714834 24.72529047 4.01921689 26.86265463 4 29 C3.67 29 3.34 29 3 29 C3 27.35 3 25.7 3 24 C2.071875 24.185625 1.14375 24.37125 0.1875 24.5625 C-3 25 -3 25 -6 24 C-6.33 24.66 -6.66 25.32 -7 26 C-7 21.38 -7 16.76 -7 12 C-6.34 11.67 -5.68 11.34 -5 11 C-4.36442955 8.95205077 -3.9871685 6.92514959 -3.625 4.8125 C-3.41875 4.214375 -3.2125 3.61625 -3 3 C-2.01 2.67 -1.02 2.34 0 2 C0 1.34 0 0.68 0 0 Z " fill="#3C4A4A" transform="translate(181,75)"/>
<path d="M0 0 C0.66 0 1.32 0 2 0 C2.14695313 0.90492187 2.14695313 0.90492187 2.296875 1.828125 C2.98191545 5.48954807 3.54763727 8.34658717 5.6875 11.4375 C8.64963391 13.43894183 11.536525 14.20073654 15 15 C12 17 12 17 8.4375 17.875 C5.01990615 18.64136578 5.01990615 18.64136578 3.625 20.75 C2.86621049 23.48164222 2.38289411 26.19210988 2 29 C1.34 29 0.68 29 0 29 C-0.10054687 28.31292969 -0.20109375 27.62585938 -0.3046875 26.91796875 C-0.91906043 23.97655316 -1.54975639 21.64105947 -3 19 C-6.21655062 17.23374595 -9.38629704 16.52883458 -13 16 C-13 15.34 -13 14.68 -13 14 C-12.38511719 13.92523438 -11.77023438 13.85046875 -11.13671875 13.7734375 C-5.74107629 12.98024088 -5.74107629 12.98024088 -2 9.25 C-1.04777604 6.15527212 -0.38257498 3.21362986 0 0 Z " fill="#E9ECEB" transform="translate(128,126)"/>
<path d="M0 0 C0.66 0.33 1.32 0.66 2 1 C2.3932763 2.28030096 2.74102479 3.57481136 3.0625 4.875 C4.03274763 7.7244641 4.51418469 8.73548134 7.1953125 10.1953125 C9.45387072 10.92456484 11.67406228 11.53188675 14 12 C12 14 12 14 8.5 14.9375 C4.76314255 15.6673234 4.76314255 15.6673234 3 19 C2.60612212 21.32387947 2.26513915 23.65793749 2 26 C1.34 26 0.68 26 0 26 C-0.2475 24.741875 -0.495 23.48375 -0.75 22.1875 C-1.43533835 19.50759072 -1.81358748 18.20712503 -3.6875 16.125 C-6.70259459 14.65819723 -9.75341896 13.81164526 -13 13 C-10.5583336 11.68525655 -8.70158603 10.94518927 -5.9375 10.4375 C-2.88583417 9.31484265 -2.88583417 9.31484265 -1.94921875 6.87109375 C-1.19745844 4.59443574 -0.54740147 2.3336589 0 0 Z " fill="#EFF2F1" transform="translate(64,39)"/>
<path d="M0 0 C0.33 0 0.66 0 1 0 C1.11214844 0.61488281 1.22429687 1.22976562 1.33984375 1.86328125 C1.98513415 4.5077066 2.64058649 6.63361352 4 9 C6.88195705 10.65559235 9.7440112 11.40614041 13 12 C10.63604776 13.21779358 8.38782131 14.22038433 5.875 15.125 C2.68334604 17.20651345 2.49032982 17.68291421 1.625 21.1875 C1.41875 22.445625 1.2125 23.70375 1 25 C0.34 25 -0.32 25 -1 25 C-1.42317708 22.98177083 -1.84635417 20.96354167 -2.26953125 18.9453125 C-2.92308838 16.62953451 -2.92308838 16.62953451 -6 15 C-8.32108669 14.29187186 -10.65377147 13.61975848 -13 13 C-10 11 -10 11 -6.5 9.875 C-2.78032037 7.88231449 -2.42706662 7.51445825 -1.0625 3.8125 C-0.5365625 1.9253125 -0.5365625 1.9253125 0 0 Z " fill="#E9ECEA" transform="translate(148,109)"/>
<path d="M0 0 C2.125 0.9375 2.125 0.9375 4 2 C4.47419355 8.16451613 4.47419355 8.16451613 2.6875 11.3125 C-2.22020223 14.39408047 -8.26675441 15 -14 15 C-14.33 14.01 -14.66 13.02 -15 12 C-14.01 12 -13.02 12 -12 12 C-12.99 10.68 -13.98 9.36 -15 8 C-14.67 7.34 -14.34 6.68 -14 6 C-8.55072464 4.72463768 -8.55072464 4.72463768 -6 6 C-5.34 5.01 -4.68 4.02 -4 3 C-3.34 3.33 -2.68 3.66 -2 4 C-2 3.01 -2 2.02 -2 1 C-1.34 0.67 -0.68 0.34 0 0 Z " fill="#14443E" transform="translate(59,37)"/>
<path d="M0 0 C0 0.66 0 1.32 0 2 C0.99 2.33 1.98 2.66 3 3 C2.319375 3.5775 1.63875 4.155 0.9375 4.75 C0.298125 5.4925 -0.34125 6.235 -1 7 C-0.86358623 9.21858253 -0.86358623 9.21858253 0 11 C-0.99 11.495 -0.99 11.495 -2 12 C-2.99 11.34 -3.98 10.68 -5 10 C-5.9075 10.639375 -6.815 11.27875 -7.75 11.9375 C-10.39221381 13.61428953 -11.9898499 14.53689998 -15 15 C-13.68877561 10.76373658 -12.38798533 6.75254838 -10 3 C-6.9375 1.6875 -6.9375 1.6875 -4 1 C-2 0 -2 0 0 0 Z " fill="#28524D" transform="translate(41,51)"/>
<path d="M0 0 C0 0.99 0 1.98 0 3 C0.33 3.99 0.66 4.98 1 6 C-0.32 6.33 -1.64 6.66 -3 7 C-2.67 7.99 -2.34 8.98 -2 10 C-1.67 10.99 -1.34 11.98 -1 13 C-1.99 13.495 -1.99 13.495 -3 14 C-3.65213292 16.02463255 -3.65213292 16.02463255 -4 18 C-4.99 17.67 -5.98 17.34 -7 17 C-7 16.34 -7 15.68 -7 15 C-8.97536745 15.34786708 -8.97536745 15.34786708 -11 16 C-11.33 16.66 -11.66 17.32 -12 18 C-13.32 17.67 -14.64 17.34 -16 17 C-11.17008141 10.6157725 -6.25039805 5.02026652 0 0 Z " fill="#196154" transform="translate(48,36)"/>
<path d="M0 0 C0.33 0 0.66 0 1 0 C1.15855469 0.61488281 1.31710938 1.22976562 1.48046875 1.86328125 C2.93946287 7.18349762 2.93946287 7.18349762 6.6875 11.0625 C7.450625 11.371875 8.21375 11.68125 9 12 C8.01 12.66 7.02 13.32 6 14 C2.88120519 16.49503585 2.09209483 19.21967175 1 23 C-1 20 -1 20 -1.8125 17.4375 C-2.81004016 14.76236228 -2.81004016 14.76236228 -5.625 13.6875 C-6.40875 13.460625 -7.1925 13.23375 -8 13 C-7 11 -7 11 -5.046875 10.1640625 C-2.33599299 8.62237769 -2.09272928 7.32455246 -1.25 4.375 C-1.00765625 3.55773438 -0.7653125 2.74046875 -0.515625 1.8984375 C-0.34546875 1.27195313 -0.1753125 0.64546875 0 0 Z " fill="#EFF2F1" transform="translate(84,52)"/>
<path d="M0 0 C4 0 4 0 7.0625 1.0625 C10.01455543 2.3227566 10.01455543 2.3227566 13 1 C12.67 3.31 12.34 5.62 12 8 C11.360625 8.12375 10.72125 8.2475 10.0625 8.375 C9.381875 8.58125 8.70125 8.7875 8 9 C7.67 9.66 7.34 10.32 7 11 C7 10.01 7 9.02 7 8 C5.9171875 8.495 5.9171875 8.495 4.8125 9 C1.98302573 10.00603529 -0.02895466 10.16977402 -3 10 C-2.01 9.67 -1.02 9.34 0 9 C-0.185625 7.700625 -0.37125 6.40125 -0.5625 5.0625 C-0.87890625 2.84765625 -0.87890625 2.84765625 -1 1 C-0.67 0.67 -0.34 0.34 0 0 Z " fill="#14433D" transform="translate(82,30)"/>
<path d="M0 0 C1.2065625 0.0309375 1.2065625 0.0309375 2.4375 0.0625 C2.4375 0.7225 2.4375 1.3825 2.4375 2.0625 C3.4275 2.3925 4.4175 2.7225 5.4375 3.0625 C7.73383824 6.50700737 7.97766485 9.00062283 8.4375 13.0625 C7.12278432 12.78098913 5.81074233 12.48696661 4.5 12.1875 C3.76910156 12.02507812 3.03820312 11.86265625 2.28515625 11.6953125 C0.4375 11.0625 0.4375 11.0625 -0.5625 9.0625 C-1.2225 9.0625 -1.8825 9.0625 -2.5625 9.0625 C-2.8925 9.7225 -3.2225 10.3825 -3.5625 11.0625 C-3.58938151 9.41675434 -3.60884123 7.77088587 -3.625 6.125 C-3.63660156 5.20847656 -3.64820313 4.29195313 -3.66015625 3.34765625 C-3.52086326 0.08820018 -3.27895972 0.07997463 0 0 Z " fill="#2C3A3B" transform="translate(12.5625,98.9375)"/>
<path d="M0 0 C0.33 0.99 0.66 1.98 1 3 C2.11375 2.87625 2.11375 2.87625 3.25 2.75 C6 3 6 3 8.3125 4.8125 C10 7 10 7 10 10 C8.27473958 10.71614583 6.54947917 11.43229167 4.82421875 12.1484375 C2.73466068 13.06806692 2.73466068 13.06806692 0 15 C-1.5912689 10.126739 -2.21192221 6.19209404 -2 1 C-1.34 0.67 -0.68 0.34 0 0 Z " fill="#D3D6D1" transform="translate(12,107)"/>
<path d="M0 0 C2.97 0 5.94 0 9 0 C9 4.29 9 8.58 9 13 C8.34 11.68 7.68 10.36 7 9 C6.21625 9.185625 5.4325 9.37125 4.625 9.5625 C2 10 2 10 0 9 C-0.66 9.66 -1.32 10.32 -2 11 C-1.85892253 9.54119891 -1.71197585 8.08296449 -1.5625 6.625 C-1.48128906 5.81289062 -1.40007812 5.00078125 -1.31640625 4.1640625 C-1 2 -1 2 0 0 Z " fill="#D0D2CE" transform="translate(175,99)"/>
<path d="M0 0 C1.0828125 0.37125 1.0828125 0.37125 2.1875 0.75 C2.1875 3.06 2.1875 5.37 2.1875 7.75 C-1.7725 8.41 -5.7325 9.07 -9.8125 9.75 C-9.8125 7.11 -9.8125 4.47 -9.8125 1.75 C-9.1525 2.41 -8.4925 3.07 -7.8125 3.75 C-7.090625 3.069375 -6.36875 2.38875 -5.625 1.6875 C-2.8125 -0.25 -2.8125 -0.25 0 0 Z " fill="#3B4B4C" transform="translate(18.8125,80.25)"/>
<path d="M0 0 C0.66 0.33 1.32 0.66 2 1 C2 5.62 2 10.24 2 15 C1.67 15 1.34 15 1 15 C1 13.35 1 11.7 1 10 C0.071875 10.185625 -0.85625 10.37125 -1.8125 10.5625 C-5 11 -5 11 -8 10 C-8.33 10.66 -8.66 11.32 -9 12 C-8.67 10.35 -8.34 8.7 -8 7 C-7.01 7 -6.02 7 -5 7 C-4.731875 6.21625 -4.46375 5.4325 -4.1875 4.625 C-3 2 -3 2 0 0 Z " fill="#798382" transform="translate(183,89)"/>
<path d="M0 0 C2.375 1 2.375 1 3.6875 2.75 C4.45905427 5.27508669 4.52089484 7.37389293 4.375 10 C3.385 10.33 2.395 10.66 1.375 11 C0.715 11.66 0.055 12.32 -0.625 13 C-2.1875 10.6875 -2.1875 10.6875 -3.625 8 C-3.295 7.01 -2.965 6.02 -2.625 5 C-3.945 4.67 -5.265 4.34 -6.625 4 C-3.35227273 0 -3.35227273 0 0 0 Z " fill="#1B564C" transform="translate(77.625,29)"/>
<path d="M0 0 C0.99 0.66 1.98 1.32 3 2 C2.67 3.11375 2.34 4.2275 2 5.375 C0.911357 8.69459717 0.911357 8.69459717 1 11 C-0.98 11.33 -2.96 11.66 -5 12 C-5 8.7 -5 5.4 -5 2 C-2.6875 0.875 -2.6875 0.875 0 0 Z " fill="#1C2E30" transform="translate(14,88)"/>
<path d="M0 0 C1.051875 0.433125 1.051875 0.433125 2.125 0.875 C5.05452503 2.02133588 8.00921653 3.02625654 11 4 C9.84826645 6.46800047 8.95216435 8.04783565 7 10 C6.30251417 11.31747324 5.63040043 12.64914193 5 14 C4.16235732 12.04350603 3.33000941 10.08474444 2.5 8.125 C2.0359375 7.03445312 1.571875 5.94390625 1.09375 4.8203125 C0 2 0 2 0 0 Z " fill="#317C6E" transform="translate(22,117)"/>
<path d="M0 0 C0.33 0.99 0.66 1.98 1 3 C0.67 3.66 0.34 4.32 0 5 C-0.66 5 -1.32 5 -2 5 C-2 6.65 -2 8.3 -2 10 C-5.90355692 11.95177846 -10.91974925 10.14247021 -15 9 C-14.67 8.01 -14.34 7.02 -14 6 C-8.25 4.875 -8.25 4.875 -6 6 C-5.34 5.01 -4.68 4.02 -4 3 C-3.34 3.33 -2.68 3.66 -2 4 C-2 3.01 -2 2.02 -2 1 C-1.34 0.67 -0.68 0.34 0 0 Z " fill="#0F4940" transform="translate(59,37)"/>
<path d="M0 0 C0.66 0.99 1.32 1.98 2 3 C4.19454681 3.57993699 4.19454681 3.57993699 6.625 3.6875 C7.44226562 3.75324219 8.25953125 3.81898437 9.1015625 3.88671875 C9.72804688 3.92410156 10.35453125 3.96148437 11 4 C10.6875 5.9375 10.6875 5.9375 10 8 C9.01 8.33 8.02 8.66 7 9 C6.67 8.67 6.34 8.34 6 8 C3.53199953 9.15173355 1.95216435 10.04783565 0 12 C-0.33 11.67 -0.66 11.34 -1 11 C-0.91015699 9.14227838 -0.75388139 7.28752015 -0.5625 5.4375 C-0.46066406 4.42558594 -0.35882813 3.41367188 -0.25390625 2.37109375 C-0.17011719 1.58863281 -0.08632812 0.80617188 0 0 Z " fill="#ACB3AF" transform="translate(11,73)"/>
<path d="M0 0 C2.64850992 2.64850992 4.33103223 5.66206447 6 9 C5.071875 9.8971875 5.071875 9.8971875 4.125 10.8125 C1.86323046 13.00811144 1.86323046 13.00811144 0 16 C-0.0825 15.05125 -0.165 14.1025 -0.25 13.125 C-0.65074923 9.89538209 -0.65074923 9.89538209 -3.0625 8.625 C-3.701875 8.41875 -4.34125 8.2125 -5 8 C-4.0409375 7.13375 -4.0409375 7.13375 -3.0625 6.25 C-1.01776132 4.01937599 -0.41794801 2.92563609 0 0 Z " fill="#E0E4E2" transform="translate(105,149)"/>
<path d="M0 0 C0.433125 0.639375 0.86625 1.27875 1.3125 1.9375 C2.91239177 4.26746003 2.91239177 4.26746003 6 5 C6 5.66 6 6.32 6 7 C5.360625 7.268125 4.72125 7.53625 4.0625 7.8125 C1.66868314 8.88667752 1.66868314 8.88667752 1 12 C0.34 12 -0.32 12 -1 12 C-1.33 11.01 -1.66 10.02 -2 9 C-4.00016466 7.79117904 -4.00016466 7.79117904 -6 7 C-6 6.34 -6 5.68 -6 5 C-5.38125 4.731875 -4.7625 4.46375 -4.125 4.1875 C-1.7004767 3.04443152 -1.7004767 3.04443152 0 0 Z " fill="#E6EBEA" transform="translate(96,34)"/>
<path d="M0 0 C1.32 0.66 2.64 1.32 4 2 C3.34 3.32 2.68 4.64 2 6 C1.34 6 0.68 6 0 6 C0 6.66 0 7.32 0 8 C-6.625 9.25 -6.625 9.25 -10 7 C-9.01 7 -8.02 7 -7 7 C-6.7525 6.360625 -6.505 5.72125 -6.25 5.0625 C-5 3 -5 3 -2.9375 2.375 C-2.298125 2.25125 -1.65875 2.1275 -1 2 C-0.67 1.34 -0.34 0.68 0 0 Z " fill="#2C3C3E" transform="translate(145,22)"/>
<path d="M0 0 C0.66 0 1.32 0 2 0 C2.103125 0.763125 2.20625 1.52625 2.3125 2.3125 C3.04364039 5.17059424 3.76951913 6.15742885 6 8 C5.01 8.66 4.02 9.32 3 10 C1.79549696 12.55183404 1.79549696 12.55183404 1 15 C0.67 15 0.34 15 0 15 C-0.268125 14.05125 -0.53625 13.1025 -0.8125 12.125 C-1.74986588 8.74732727 -1.74986588 8.74732727 -5 7 C-4.360625 6.5875 -3.72125 6.175 -3.0625 5.75 C-0.79009069 3.82189513 -0.39803561 2.88575819 0 0 Z " fill="#D9E5E3" transform="translate(114,24)"/>
<path d="M0 0 C0.66 0.33 1.32 0.66 2 1 C1.34 2.65 0.68 4.3 0 6 C-0.99 5.67 -1.98 5.34 -3 5 C-3.33 7.97 -3.66 10.94 -4 14 C-4.99 14 -5.98 14 -7 14 C-6.98839844 13.30132812 -6.97679687 12.60265625 -6.96484375 11.8828125 C-6.95582031 10.97273438 -6.94679687 10.06265625 -6.9375 9.125 C-6.92589844 8.22007813 -6.91429687 7.31515625 -6.90234375 6.3828125 C-6.83750743 3.9831415 -6.83750743 3.9831415 -8 2 C-5.03 2.495 -5.03 2.495 -2 3 C-2 2.34 -2 1.68 -2 1 C-1.34 0.67 -0.68 0.34 0 0 Z " fill="#2C3A3B" transform="translate(181,73)"/>
<path d="M0 0 C5.41538462 -0.36923077 5.41538462 -0.36923077 8.375 1.5 C8.91125 1.995 9.4475 2.49 10 3 C9.6875 5.875 9.6875 5.875 9 9 C8.01 9.66 7.02 10.32 6 11 C5.27034634 13.56282742 5.27034634 13.56282742 5 16 C3 14 3 14 2.625 11.125 C3.07508184 7.37431801 4.12601252 6.33511483 7 4 C6.401875 3.896875 5.80375 3.79375 5.1875 3.6875 C2.71756736 2.91123545 1.67748765 1.92911079 0 0 Z " fill="#135F51" transform="translate(25,118)"/>
<path d="M0 0 C3.53571429 0.53571429 3.53571429 0.53571429 5 2 C5.125 4.5 5.125 4.5 5 7 C4 8 4 8 0.9375 8.0625 C-0.031875 8.041875 -1.00125 8.02125 -2 8 C-2.125 5.125 -2.125 5.125 -2 2 C-1.34 1.34 -0.68 0.68 0 0 Z " fill="#142A2D" transform="translate(167,78)"/>
<path d="M0 0 C0.66 0.33 1.32 0.66 2 1 C1.67 2.65 1.34 4.3 1 6 C0.34 6 -0.32 6 -1 6 C-1.474375 6.825 -1.94875 7.65 -2.4375 8.5 C-2.953125 9.325 -3.46875 10.15 -4 11 C-4.99 11 -5.98 11 -7 11 C-7.3125 8.1875 -7.3125 8.1875 -7 5 C-4.625 3.25 -4.625 3.25 -2 2 C-1.34 1.34 -0.68 0.68 0 0 Z " fill="#586564" transform="translate(182,85)"/>
<path d="M0 0 C0.0825 0.5775 0.165 1.155 0.25 1.75 C1.23210917 4.69632751 2.62275066 6.03027912 5 8 C7.1381966 8.7872678 7.1381966 8.7872678 9 9 C9 9.66 9 10.32 9 11 C4.94568308 12.15837626 2.78187881 11.83691257 -1 10 C-1.125 3.375 -1.125 3.375 0 0 Z " fill="#D7D9D5" transform="translate(13,66)"/>
<path d="M0 0 C-2.54184196 3.10669573 -5.20900211 3.89429228 -9 5 C-12.0745356 5.7763932 -12.0745356 5.7763932 -14 8 C-14.33 7.01 -14.66 6.02 -15 5 C-14.01 4.01 -13.02 3.02 -12 2 C-11.34 2.33 -10.68 2.66 -10 3 C-9.67 2.01 -9.34 1.02 -9 0 C-5.93109813 -1.53445094 -3.29905734 -0.54984289 0 0 Z " fill="#113633" transform="translate(54,52)"/>
<path d="M0 0 C2.97 0 5.94 0 9 0 C9 1.65 9 3.3 9 5 C6.03 5 3.06 5 0 5 C0 3.35 0 1.7 0 0 Z " fill="#164B43" transform="translate(66,34)"/>
<path d="M0 0 C1.2065625 0.0309375 1.2065625 0.0309375 2.4375 0.0625 C3.0625 2.4375 3.0625 2.4375 3.4375 5.0625 C2.7775 5.7225 2.1175 6.3825 1.4375 7.0625 C-0.6875 6.6875 -0.6875 6.6875 -2.5625 6.0625 C-2.94468767 4.40635343 -3.27645102 2.73792976 -3.5625 1.0625 C-2.5625 0.0625 -2.5625 0.0625 0 0 Z " fill="#DFE4E3" transform="translate(161.5625,92.9375)"/>
<path d="M0 0 C0.33 0.99 0.66 1.98 1 3 C2.11375 2.87625 2.11375 2.87625 3.25 2.75 C6.78157027 3.07105184 7.76630364 4.35265617 10 7 C9.67 7.66 9.34 8.32 9 9 C8.34 9 7.68 9 7 9 C7 8.34 7 7.68 7 7 C4.36 6.34 1.72 5.68 -1 5 C-1.33 5.99 -1.66 6.98 -2 8 C-2 5.69 -2 3.38 -2 1 C-1.34 0.67 -0.68 0.34 0 0 Z " fill="#939C9A" transform="translate(12,107)"/>
<path d="M0 0 C0.66 0.66 1.32 1.32 2 2 C1.195625 2.12375 0.39125 2.2475 -0.4375 2.375 C-1.7059375 2.684375 -1.7059375 2.684375 -3 3 C-3.33 3.66 -3.66 4.32 -4 5 C-4.99 5 -5.98 5 -7 5 C-7.33 5.66 -7.66 6.32 -8 7 C-8.99 5.35 -9.98 3.7 -11 2 C-7.18610442 0.20522561 -4.21354337 -0.37453719 0 0 Z " fill="#1C554C" transform="translate(128,25)"/>
<path d="M0 0 C1.98 1.32 3.96 2.64 6 4 C3.4013299 6.5986701 1.60157242 6.63249261 -2 7 C-2.99 6.67 -3.98 6.34 -5 6 C-5 5.34 -5 4.68 -5 4 C-4.0409375 3.8453125 -4.0409375 3.8453125 -3.0625 3.6875 C-2.381875 3.460625 -1.70125 3.23375 -1 3 C-0.67 2.01 -0.34 1.02 0 0 Z " fill="#DEE3E0" transform="translate(49,62)"/>
<path d="M0 0 C0.66 0.66 1.32 1.32 2 2 C1.625 4.125 1.625 4.125 1 6 C0.34 6 -0.32 6 -1 6 C-1 6.66 -1 7.32 -1 8 C-2.9375 7.625 -2.9375 7.625 -5 7 C-5.33 6.34 -5.66 5.68 -6 5 C-2.25 1.125 -2.25 1.125 0 0 Z " fill="#203134" transform="translate(180,68)"/>
<path d="M0 0 C1.45922693 0.11409593 2.91740598 0.24165544 4.375 0.375 C5.59316406 0.47941406 5.59316406 0.47941406 6.8359375 0.5859375 C9 1 9 1 11 3 C10.030625 3.268125 9.06125 3.53625 8.0625 3.8125 C7.051875 4.204375 6.04125 4.59625 5 5 C4.67 5.99 4.34 6.98 4 8 C3.34 7.67 2.68 7.34 2 7 C2 5.35 2 3.7 2 2 C1.34 2 0.68 2 0 2 C0 1.34 0 0.68 0 0 Z " fill="#247364" transform="translate(114,22)"/>
<path d="M0 0 C0.66 0.33 1.32 0.66 2 1 C-2.46351289 6.22325977 -7.0744893 11.20922972 -12 16 C-12.66 15.67 -13.32 15.34 -14 15 C-13.40832031 14.41992188 -12.81664062 13.83984375 -12.20703125 13.2421875 C-7.90148281 8.98580519 -3.76799131 4.74037617 0 0 Z " fill="#1F3133" transform="translate(148,85)"/>
<path d="M0 0 C0.66 0.33 1.32 0.66 2 1 C2.4140625 3.06640625 2.4140625 3.06640625 2.625 5.5625 C2.69976562 6.38878906 2.77453125 7.21507813 2.8515625 8.06640625 C2.90054688 8.70449219 2.94953125 9.34257813 3 10 C2 9 1 8 0 7 C-0.66 7.66 -1.32 8.32 -2 9 C-2.66 7.02 -3.32 5.04 -4 3 C-2.68 2.01 -1.36 1.02 0 0 Z " fill="#4B5858" transform="translate(182,80)"/>
<path d="M0 0 C-2.36292656 2.52588702 -3.66462511 3.88820837 -7 5 C-7.66 5.66 -8.32 6.32 -9 7 C-9 4.69 -9 2.38 -9 0 C-5.52176885 -1.15941038 -3.54104422 -0.70820884 0 0 Z " fill="#113734" transform="translate(76,39)"/>
<path d="M0 0 C1.65 0.99 3.3 1.98 5 3 C4.67 3.99 4.34 4.98 4 6 C2.34795544 6.70211894 0.68076231 7.36971413 -1 8 C-1.33 8.66 -1.66 9.32 -2 10 C-3.32 9.67 -4.64 9.34 -6 9 C-5.67 8.01 -5.34 7.02 -5 6 C-3.02 5.67 -1.04 5.34 1 5 C0.67 3.35 0.34 1.7 0 0 Z " fill="#9DA5A2" transform="translate(140,19)"/>
<path d="M0 0 C4 0 4 0 7.0625 1.0625 C10.01455543 2.3227566 10.01455543 2.3227566 13 1 C12.67 1.99 12.34 2.98 12 4 C9.4375 5.1875 9.4375 5.1875 7 6 C6.34 5.34 5.68 4.68 5 4 C3.01643517 3.28591666 1.01684563 2.61382258 -1 2 C-0.67 1.34 -0.34 0.68 0 0 Z " fill="#135449" transform="translate(82,30)"/>
<path d="M0 0 C3.3 0.33 6.6 0.66 10 1 C10.33 2.65 10.66 4.3 11 6 C9.68528432 5.71848913 8.37324233 5.42446661 7.0625 5.125 C6.33160156 4.96257812 5.60070312 4.80015625 4.84765625 4.6328125 C3 4 3 4 2 2 C1.34 2 0.68 2 0 2 C0 1.34 0 0.68 0 0 Z " fill="#626E6E" transform="translate(10,106)"/>
<path d="M0 0 C0.763125 0.20625 1.52625 0.4125 2.3125 0.625 C1.9825 1.945 1.6525 3.265 1.3125 4.625 C-0.9975 4.955 -3.3075 5.285 -5.6875 5.625 C-5.6875 4.305 -5.6875 2.985 -5.6875 1.625 C-2.6875 -0.375 -2.6875 -0.375 0 0 Z " fill="#768180" transform="translate(18.6875,80.375)"/>
<path d="M0 0 C1.5 1.3125 1.5 1.3125 3 3 C3 3.99 3 4.98 3 6 C2.195625 6.28875 1.39125 6.5775 0.5625 6.875 C-2.1326468 7.73262568 -2.1326468 7.73262568 -3 10 C-4.65 9.67 -6.3 9.34 -8 9 C-4.375 6 -4.375 6 -1 6 C-0.67 4.02 -0.34 2.04 0 0 Z " fill="#C9CDC9" transform="translate(138,18)"/>
<path d="M0 0 C2.97 0 5.94 0 9 0 C8 3 8 3 6 4 C3.6670134 4.04022391 1.33293334 4.04320247 -1 4 C-0.67 2.68 -0.34 1.36 0 0 Z " fill="#ACB1AE" transform="translate(175,99)"/>
<path d="M0 0 C0.33 0 0.66 0 1 0 C2.14507772 5.19689119 2.14507772 5.19689119 2 8 C-0.4375 11 -0.4375 11 -3 13 C-2.52060632 8.28596212 -2.03165952 4.33420699 0 0 Z " fill="#294846" transform="translate(25,66)"/>
<path d="M0 0 C0.66 0 1.32 0 2 0 C2 3.63 2 7.26 2 11 C1.67 11 1.34 11 1 11 C1 9.35 1 7.7 1 6 C-0.65 6.33 -2.3 6.66 -4 7 C-3.01595171 4.04785514 -2.01178391 2.33366933 0 0 Z " fill="#8F9795" transform="translate(183,93)"/>
<path d="M0 0 C1.32 1.65 2.64 3.3 4 5 C2.515 7.475 2.515 7.475 1 10 C-0.32 8.35 -1.64 6.7 -3 5 C-2.01 3.35 -1.02 1.7 0 0 Z " fill="#DCE1E1" transform="translate(107,45)"/>
<path d="M0 0 C1.65 0 3.3 0 5 0 C5.66 1.32 6.32 2.64 7 4 C6.34 4.66 5.68 5.32 5 6 C5 5.34 5 4.68 5 4 C3.68 4 2.36 4 1 4 C0.67 5.32 0.34 6.64 0 8 C0 5.36 0 2.72 0 0 Z " fill="#445253" transform="translate(9,102)"/>
<path d="M0 0 C0 0.66 0 1.32 0 2 C0.99 2.33 1.98 2.66 3 3 C-0.93905597 4.14889133 -4.93565958 4.52582695 -9 5 C-9 4.34 -9 3.68 -9 3 C-2.25 0 -2.25 0 0 0 Z " fill="#144C43" transform="translate(41,51)"/>
<path d="M0 0 C0 0.99 0 1.98 0 3 C0.33 3.99 0.66 4.98 1 6 C-0.32 6 -1.64 6 -3 6 C-5.22743787 7.41977909 -5.22743787 7.41977909 -7 9 C-7.66 8.67 -8.32 8.34 -9 8 C-6.03 5.36 -3.06 2.72 0 0 Z " fill="#277264" transform="translate(48,36)"/>
<path d="M0 0 C-0.33 0.99 -0.66 1.98 -1 3 C-3.31 3.33 -5.62 3.66 -8 4 C-8.33 3.34 -8.66 2.68 -9 2 C-6.98558063 -2.02883874 -3.72407517 -0.90585612 0 0 Z " fill="#105B4D" transform="translate(53,43)"/>
<path d="M0 0 C1.98 0.495 1.98 0.495 4 1 C3.67 2.65 3.34 4.3 3 6 C1.68 5.67 0.36 5.34 -1 5 C-0.67 3.35 -0.34 1.7 0 0 Z " fill="#DEE3E2" transform="translate(116,147)"/>
<path d="M0 0 C1.32 1.32 2.64 2.64 4 4 C2.68 5.32 1.36 6.64 0 8 C-0.99 6.35 -1.98 4.7 -3 3 C-2.01 2.01 -1.02 1.02 0 0 Z " fill="#D9DEDD" transform="translate(53,142)"/>
<path d="M0 0 C1.65 0.33 3.3 0.66 5 1 C4.67 2.32 4.34 3.64 4 5 C2.35 4.67 0.7 4.34 -1 4 C-0.67 2.68 -0.34 1.36 0 0 Z " fill="#E2E7E6" transform="translate(30,73)"/>
<path d="M0 0 C1.2065625 0.0309375 1.2065625 0.0309375 2.4375 0.0625 C1.4375 3.0625 1.4375 3.0625 -0.5625 4.0625 C-1.21805119 6.58983235 -1.21805119 6.58983235 -1.5625 9.0625 C-3.5625 7.0625 -3.5625 7.0625 -3.75 4 C-3.50012994 0.08536902 -3.50012994 0.08536902 0 0 Z " fill="#125449" transform="translate(31.5625,124.9375)"/>
<path d="M0 0 C0.66 0.33 1.32 0.66 2 1 C2 1.66 2 2.32 2 3 C2.66 3.33 3.32 3.66 4 4 C2.68 5.32 1.36 6.64 0 8 C-0.99 6.35 -1.98 4.7 -3 3 C-2.01 2.01 -1.02 1.02 0 0 Z " fill="#DBE5E4" transform="translate(77,34)"/>
<path d="M0 0 C0 3.3 0 6.6 0 10 C-0.33 10 -0.66 10 -1 10 C-1 8.35 -1 6.7 -1 5 C-1.66 5 -2.32 5 -3 5 C-3.33 5.66 -3.66 6.32 -4 7 C-4.33 5.35 -4.66 3.7 -5 2 C-1.125 0 -1.125 0 0 0 Z " fill="#1F5E53" transform="translate(64,34)"/>
<path d="M0 0 C3.375 0.25 3.375 0.25 7 1 C8.4375 3.0625 8.4375 3.0625 9 5 C8.01 4.67 7.02 4.34 6 4 C5.67 4.66 5.34 5.32 5 6 C1.9890638 3.9927092 1.36983503 3.16115776 0 0 Z " fill="#1F4C46" transform="translate(105,31)"/>
<path d="M0 0 C0 0.66 0 1.32 0 2 C0.99 1.67 1.98 1.34 3 1 C2.67 1.99 2.34 2.98 2 4 C1.01 4 0.02 4 -1 4 C-1.33 4.99 -1.66 5.98 -2 7 C-4 4 -4 4 -4 1 C-2 0 -2 0 0 0 Z " fill="#1A4D46" transform="translate(101,32)"/>
<path d="M0 0 C0.66 0 1.32 0 2 0 C2.433125 0.45375 2.86625 0.9075 3.3125 1.375 C5.35628817 3.34309231 7.34530324 4.06726871 10 5 C10 5.33 10 5.66 10 6 C3.25 6.125 3.25 6.125 1 5 C0.375 2.4375 0.375 2.4375 0 0 Z " fill="#143533" transform="translate(21,112)"/>
<path d="M0 0 C2.16874252 0.50603992 3.99967627 0.99983813 6 2 C6 2.66 6 3.32 6 4 C5.21625 4.12375 4.4325 4.2475 3.625 4.375 C0.85942178 4.79117993 0.85942178 4.79117993 -1 7 C-0.67 4.69 -0.34 2.38 0 0 Z " fill="#C7CAC6" transform="translate(174,103)"/>
<path d="M0 0 C0.33 0.66 0.66 1.32 1 2 C0.01 2.495 0.01 2.495 -1 3 C-1 3.99 -1 4.98 -1 6 C-5.455 5.01 -5.455 5.01 -10 4 C-6.66189518 2.33094759 -3.53842155 1.1258614 0 0 Z " fill="#D3DCDA" transform="translate(61,48)"/>
<path d="M0 0 C-0.33 1.32 -0.66 2.64 -1 4 C-1.66 4 -2.32 4 -3 4 C-3.33 4.66 -3.66 5.32 -4 6 C-5.32 5.67 -6.64 5.34 -8 5 C-5.81209839 1.71814759 -4.05191042 0 0 0 Z " fill="#225E54" transform="translate(40,48)"/>
<path d="M0 0 C0.93065133 2.60582371 1.14917407 3.64198224 0.0625 6.25 C-0.4634375 7.11625 -0.4634375 7.11625 -1 8 C-1.66 8 -2.32 8 -3 8 C-3.33 9.32 -3.66 10.64 -4 12 C-4.33 12 -4.66 12 -5 12 C-5.1875 9.625 -5.1875 9.625 -5 7 C-4.01 6.34 -3.02 5.68 -2 5 C-0.79549696 2.44816596 -0.79549696 2.44816596 0 0 Z " fill="#0D3935" transform="translate(35,122)"/>
<path d="M0 0 C0.99 0.33 1.98 0.66 3 1 C2.67 1.33 2.34 1.66 2 2 C1.92794489 3.68608966 1.91613932 5.37500659 1.9375 7.0625 C1.94652344 7.98160156 1.95554687 8.90070312 1.96484375 9.84765625 C1.97644531 10.55792969 1.98804687 11.26820312 2 12 C1.690625 11.360625 1.38125 10.72125 1.0625 10.0625 C0.1654837 8.06389179 0.1654837 8.06389179 -1 7 C-1.125 4 -1.125 4 -1 1 C-0.67 0.67 -0.34 0.34 0 0 Z " fill="#407169" transform="translate(65,32)"/>
<path d="M0 0 C2.31 0 4.62 0 7 0 C3.39042389 3.2910841 0.87362847 4.54663921 -4 5 C-4 4.34 -4 3.68 -4 3 C-3.01 3 -2.02 3 -1 3 C-0.67 2.01 -0.34 1.02 0 0 Z " fill="#103230" transform="translate(125,27)"/>
<path d="M0 0 C0.99 0 1.98 0 3 0 C3.33 1.32 3.66 2.64 4 4 C2.35 4.33 0.7 4.66 -1 5 C-0.67 3.35 -0.34 1.7 0 0 Z " fill="#D9DEDE" transform="translate(77,75)"/>
<path d="M0 0 C0.0825 0.556875 0.165 1.11375 0.25 1.6875 C1.22610013 4.69714206 2.95188814 6.62154752 5 9 C3.33388095 9.042721 1.66617115 9.04063832 0 9 C-0.33 8.67 -0.66 8.34 -1 8 C-0.82364548 5.30917128 -0.38164079 2.67148554 0 0 Z " fill="#CDD1CE" transform="translate(13,66)"/>
<path d="M0 0 C1.98 0.495 1.98 0.495 4 1 C3.67 2.32 3.34 3.64 3 5 C1.68 4.67 0.36 4.34 -1 4 C-0.67 2.68 -0.34 1.36 0 0 Z " fill="#E9EDED" transform="translate(123,37)"/>
<path d="M0 0 C0.33 0.99 0.66 1.98 1 3 C1.66 3 2.32 3 3 3 C3 3.66 3 4.32 3 5 C1.68 5 0.36 5 -1 5 C-1.33 5.99 -1.66 6.98 -2 8 C-2 5.69 -2 3.38 -2 1 C-1.34 0.67 -0.68 0.34 0 0 Z " fill="#8B9392" transform="translate(12,107)"/>
<path d="M0 0 C0.99 0.66 1.98 1.32 3 2 C0.08235 3.9451 -1.62537285 4.45276317 -5 5 C-5 4.01 -5 3.02 -5 2 C-2.6875 0.875 -2.6875 0.875 0 0 Z " fill="#283A3B" transform="translate(14,88)"/>
<path d="M0 0 C0.75 1.625 0.75 1.625 1 4 C-0.9375 7.25 -0.9375 7.25 -3 10 C-4.32 9.34 -5.64 8.68 -7 8 C-5.824375 7.4121875 -5.824375 7.4121875 -4.625 6.8125 C-1.64843582 4.75725331 -1.01176437 3.40320742 0 0 Z " fill="#D1D9D8" transform="translate(83,56)"/>
<path d="M0 0 C0.66 0.33 1.32 0.66 2 1 C1.67 2.65 1.34 4.3 1 6 C-0.32 6 -1.64 6 -3 6 C-3 5.34 -3 4.68 -3 4 C-3.66 3.67 -4.32 3.34 -5 3 C-4.360625 2.87625 -3.72125 2.7525 -3.0625 2.625 C-2.0415625 2.315625 -2.0415625 2.315625 -1 2 C-0.67 1.34 -0.34 0.68 0 0 Z " fill="#606B6B" transform="translate(182,85)"/>
<path d="M0 0 C2 3 2 3 1.625 5.1875 C1.41875 5.785625 1.2125 6.38375 1 7 C0.01 6.67 -0.98 6.34 -2 6 C-1.125 1.125 -1.125 1.125 0 0 Z " fill="#4F7F78" transform="translate(43,47)"/>
<path d="M0 0 C1.32 0 2.64 0 4 0 C4 0.66 4 1.32 4 2 C3.38125 2.28875 2.7625 2.5775 2.125 2.875 C-0.13325765 3.93720042 -0.13325765 3.93720042 -2 6 C-2.99 5.34 -3.98 4.68 -5 4 C-4.01 4 -3.02 4 -2 4 C-1.34 2.68 -0.68 1.36 0 0 Z " fill="#5E6B6B" transform="translate(140,25)"/>
<path d="M0 0 C1.98 0 3.96 0 6 0 C6.33 0.99 6.66 1.98 7 3 C5.1875 3.6875 5.1875 3.6875 3 4 C1.25 2.625 1.25 2.625 0 1 C0 0.67 0 0.34 0 0 Z " fill="#B4B9B6" transform="translate(11,112)"/>
<path d="M0 0 C0 2.64 0 5.28 0 8 C-0.66 7.01 -1.32 6.02 -2 5 C-1.67 4.34 -1.34 3.68 -1 3 C-2.32 3.33 -3.64 3.66 -5 4 C-5 3.01 -5 2.02 -5 1 C-1.125 0 -1.125 0 0 0 Z " fill="#E8E9E4" transform="translate(183,107)"/>
<path d="M0 0 C1.75 1.3125 1.75 1.3125 3 3 C3 3.66 3 4.32 3 5 C1.68 5 0.36 5 -1 5 C-2.75 3 -2.75 3 -4 1 C-2.1875 0.3125 -2.1875 0.3125 0 0 Z " fill="#374546" transform="translate(17,102)"/>
<path d="M0 0 C0.66 0.33 1.32 0.66 2 1 C2 1.99 2 2.98 2 4 C0.35 4.66 -1.3 5.32 -3 6 C-2.625 3.5625 -2.625 3.5625 -2 1 C-1.34 0.67 -0.68 0.34 0 0 Z " fill="#6E7877" transform="translate(183,89)"/>
<path d="M0 0 C2 1.3125 2 1.3125 4 3 C4 3.99 4 4.98 4 6 C3.34 6 2.68 6 2 6 C1.34 6.66 0.68 7.32 0 8 C0 5.36 0 2.72 0 0 Z " fill="#4E5C5D" transform="translate(9,82)"/>
<path d="M0 0 C0.33 0 0.66 0 1 0 C1.042721 1.66611905 1.04063832 3.33382885 1 5 C0 6 0 6 -3.0625 6.0625 C-4.5165625 6.0315625 -4.5165625 6.0315625 -6 6 C-6 5.01 -6 4.02 -6 3 C-3.525 3.495 -3.525 3.495 -1 4 C-0.67 2.68 -0.34 1.36 0 0 Z " fill="#576768" transform="translate(171,80)"/>
<path d="M0 0 C0.66 0.33 1.32 0.66 2 1 C1.34 2.65 0.68 4.3 0 6 C-1.32 5.34 -2.64 4.68 -4 4 C-3.34 3.67 -2.68 3.34 -2 3 C-2 2.34 -2 1.68 -2 1 C-1.34 0.67 -0.68 0.34 0 0 Z " fill="#2D3B3C" transform="translate(181,73)"/>
<path d="M0 0 C0.66 1.32 1.32 2.64 2 4 C0.35 4.66 -1.3 5.32 -3 6 C-2.625 3.5625 -2.625 3.5625 -2 1 C-1.34 0.67 -0.68 0.34 0 0 Z " fill="#16292B" transform="translate(180,68)"/>
<path d="M0 0 C0.33 0.99 0.66 1.98 1 3 C0.67 3.66 0.34 4.32 0 5 C-1.32 5 -2.64 5 -4 5 C-4.33 5.66 -4.66 6.32 -5 7 C-4.67 5.68 -4.34 4.36 -4 3 C-3.34 3.33 -2.68 3.66 -2 4 C-2 3.01 -2 2.02 -2 1 C-1.34 0.67 -0.68 0.34 0 0 Z " fill="#125549" transform="translate(59,37)"/>
<path d="M0 0 C0.66 0.33 1.32 0.66 2 1 C2 1.66 2 2.32 2 3 C1.01 3 0.02 3 -1 3 C-1.33 3.66 -1.66 4.32 -2 5 C-3.65 5 -5.3 5 -7 5 C-4 3 -4 3 -2 3 C-2 2.34 -2 1.68 -2 1 C-1.34 0.67 -0.68 0.34 0 0 Z " fill="#E2E5E0" transform="translate(135,21)"/>
</svg>
