<svg id="svg" version="1.1" xmlns="http://www.w3.org/2000/svg" xmlns:xlink="http://www.w3.org/1999/xlink" width="400" height="400" viewBox="0, 0, 400,400"><g id="svgg"><path id="path0" d="M176.400 0.406 C 171.610 0.841,169.490 1.215,168.823 1.743 C 168.361 2.109,168.313 2.081,168.582 1.600 C 168.855 1.112,168.817 1.093,168.379 1.500 C 168.057 1.798,166.742 2.000,165.120 2.000 C 163.573 2.000,162.400 2.173,162.400 2.400 C 162.400 2.620,161.896 2.800,161.280 2.800 C 160.664 2.800,159.978 2.982,159.754 3.206 C 159.531 3.429,158.415 3.632,157.274 3.658 C 156.134 3.683,155.200 3.861,155.200 4.052 C 155.200 4.244,154.660 4.400,154.000 4.400 C 153.340 4.400,152.800 4.580,152.800 4.800 C 152.800 5.020,152.026 5.200,151.080 5.200 C 150.134 5.200,149.189 5.371,148.979 5.581 C 148.770 5.790,147.911 6.008,147.071 6.064 C 146.231 6.121,145.456 6.310,145.348 6.484 C 145.241 6.658,144.803 6.800,144.376 6.800 C 143.949 6.800,143.600 6.980,143.600 7.200 C 143.600 7.420,142.998 7.600,142.261 7.600 C 141.525 7.600,140.359 7.881,139.670 8.225 C 138.981 8.569,137.919 8.932,137.309 9.032 C 136.699 9.132,135.570 9.457,134.800 9.754 C 134.030 10.052,132.687 10.524,131.815 10.804 C 130.943 11.084,129.993 11.550,129.703 11.840 C 129.414 12.129,128.905 12.262,128.574 12.134 C 128.242 12.007,127.647 12.195,127.253 12.552 C 126.858 12.910,126.434 13.101,126.311 12.978 C 126.189 12.855,125.303 13.106,124.344 13.537 C 123.385 13.967,122.028 14.555,121.329 14.844 C 120.630 15.133,120.145 15.512,120.252 15.685 C 120.360 15.858,119.919 16.000,119.273 16.000 C 118.627 16.000,117.876 16.268,117.604 16.596 C 117.332 16.923,116.970 17.105,116.800 17.000 C 116.630 16.895,116.277 17.066,116.016 17.381 C 115.755 17.695,115.285 17.854,114.971 17.733 C 114.657 17.613,114.400 17.714,114.400 17.957 C 114.400 18.201,113.939 18.400,113.376 18.400 C 112.796 18.400,112.460 18.573,112.600 18.800 C 112.736 19.020,112.477 19.200,112.024 19.200 C 111.571 19.200,111.200 19.380,111.200 19.600 C 111.200 19.820,110.816 20.000,110.347 20.000 C 109.878 20.000,109.203 20.333,108.847 20.741 C 108.491 21.148,107.525 21.724,106.700 22.021 C 105.875 22.318,105.200 22.705,105.200 22.880 C 105.200 23.056,104.840 23.200,104.400 23.200 C 103.960 23.200,103.600 23.380,103.600 23.600 C 103.600 23.820,103.364 24.000,103.075 24.000 C 102.787 24.000,102.196 24.331,101.762 24.735 C 101.328 25.139,100.497 25.589,99.915 25.736 C 99.332 25.882,98.614 26.226,98.318 26.501 C 98.023 26.775,97.515 27.055,97.190 27.122 C 96.866 27.189,96.400 27.504,96.156 27.822 C 95.912 28.140,95.445 28.400,95.118 28.400 C 94.791 28.400,94.198 28.760,93.800 29.200 C 93.402 29.640,92.828 30.000,92.525 30.000 C 92.223 30.000,91.872 30.269,91.746 30.598 C 91.619 30.926,91.362 31.100,91.173 30.983 C 90.984 30.866,90.502 31.092,90.102 31.485 C 89.703 31.878,88.886 32.455,88.288 32.768 C 87.690 33.080,87.200 33.485,87.200 33.668 C 87.200 33.850,86.930 34.000,86.600 34.000 C 86.270 34.000,86.000 34.180,86.000 34.400 C 86.000 34.620,85.749 34.800,85.443 34.800 C 85.136 34.800,84.781 35.072,84.654 35.404 C 84.527 35.736,84.260 35.961,84.061 35.904 C 83.862 35.847,83.138 36.295,82.453 36.900 C 81.768 37.505,81.070 38.000,80.903 38.000 C 80.737 38.001,80.060 38.456,79.400 39.012 C 78.740 39.569,77.604 40.513,76.875 41.112 C 76.146 41.710,75.336 42.380,75.075 42.601 C 74.814 42.821,73.939 43.445,73.130 43.988 C 72.322 44.530,71.735 45.095,71.827 45.243 C 71.918 45.391,71.365 45.810,70.596 46.175 C 69.828 46.539,69.200 47.099,69.200 47.419 C 69.200 47.738,68.975 48.006,68.700 48.013 C 68.064 48.029,66.000 49.829,66.000 50.368 C 66.000 50.592,65.730 50.671,65.400 50.545 C 65.070 50.418,64.800 50.495,64.800 50.715 C 64.800 51.274,62.574 53.600,62.040 53.600 C 61.630 53.600,61.429 54.160,61.563 54.930 C 61.594 55.111,61.448 55.153,61.239 55.024 C 60.910 54.821,56.000 59.239,56.000 59.738 C 56.000 60.086,53.205 62.712,52.579 62.953 C 52.233 63.086,52.062 63.377,52.200 63.600 C 52.338 63.823,52.169 64.114,51.825 64.246 C 51.481 64.378,51.200 64.766,51.200 65.109 C 51.200 65.453,51.091 65.624,50.957 65.491 C 50.607 65.140,46.693 69.491,46.109 70.881 C 45.837 71.528,45.471 71.967,45.294 71.858 C 45.118 71.749,44.532 72.322,43.992 73.130 C 43.452 73.939,42.603 74.966,42.105 75.413 C 41.607 75.860,41.200 76.445,41.200 76.713 C 41.200 76.981,40.990 77.200,40.733 77.200 C 40.477 77.200,40.376 77.309,40.509 77.442 C 40.642 77.575,40.312 78.091,39.775 78.588 C 39.239 79.085,38.800 79.666,38.800 79.879 C 38.800 80.092,38.080 81.047,37.200 82.000 C 36.320 82.953,35.600 83.973,35.600 84.267 C 35.600 84.560,35.420 84.800,35.200 84.800 C 34.980 84.800,34.800 85.070,34.800 85.400 C 34.800 85.730,34.620 86.000,34.400 86.000 C 34.180 86.000,34.000 86.268,34.000 86.597 C 34.000 86.925,33.640 87.418,33.200 87.693 C 32.760 87.968,32.400 88.509,32.400 88.896 C 32.400 89.283,32.220 89.600,32.000 89.600 C 31.780 89.600,31.600 89.842,31.600 90.138 C 31.600 90.434,31.240 91.002,30.800 91.400 C 30.360 91.798,30.000 92.338,30.000 92.600 C 30.000 92.862,29.644 93.398,29.209 93.791 C 28.775 94.185,28.501 94.640,28.602 94.803 C 28.703 94.966,28.380 95.536,27.886 96.070 C 27.391 96.603,26.638 97.886,26.211 98.920 C 25.785 99.954,25.293 100.800,25.118 100.800 C 24.943 100.800,24.800 101.070,24.800 101.400 C 24.800 101.730,24.601 102.000,24.357 102.000 C 24.114 102.000,24.021 102.277,24.150 102.615 C 24.285 102.965,24.131 103.328,23.793 103.458 C 23.467 103.583,23.200 103.944,23.200 104.260 C 23.200 104.575,22.840 105.220,22.400 105.692 C 21.960 106.164,21.600 106.927,21.600 107.387 C 21.600 107.847,21.240 108.483,20.800 108.800 C 20.360 109.117,20.000 109.787,20.000 110.288 C 20.000 110.790,19.820 111.200,19.600 111.200 C 19.380 111.200,19.200 111.650,19.200 112.200 C 19.200 112.750,19.020 113.200,18.800 113.200 C 18.580 113.200,18.400 113.470,18.400 113.800 C 18.400 114.130,18.220 114.400,18.000 114.400 C 17.780 114.400,17.600 114.749,17.600 115.176 C 17.600 115.603,17.417 116.066,17.193 116.204 C 16.970 116.342,16.878 116.602,16.989 116.782 C 17.100 116.962,16.923 117.332,16.596 117.604 C 16.268 117.876,16.000 118.526,16.000 119.049 C 16.000 119.572,15.809 120.000,15.576 120.000 C 15.343 120.000,15.251 120.160,15.372 120.355 C 15.493 120.550,15.345 120.914,15.044 121.164 C 14.561 121.565,13.824 123.754,13.934 124.462 C 13.956 124.606,13.710 124.943,13.387 125.211 C 13.064 125.479,12.800 126.036,12.800 126.449 C 12.800 126.862,12.620 127.200,12.400 127.200 C 12.180 127.200,12.000 127.730,12.000 128.377 C 12.000 129.025,11.626 130.189,11.168 130.964 C 10.711 131.740,10.402 132.695,10.483 133.087 C 10.563 133.479,10.386 133.986,10.088 134.214 C 9.790 134.442,9.440 135.432,9.309 136.414 C 9.178 137.396,8.776 138.740,8.415 139.400 C 8.055 140.060,7.718 141.223,7.667 141.984 C 7.616 142.746,7.444 143.466,7.285 143.584 C 6.821 143.930,6.000 146.563,6.000 147.705 C 6.000 148.281,5.820 148.864,5.600 149.000 C 5.380 149.136,5.200 150.047,5.200 151.024 C 5.200 152.001,5.020 152.800,4.800 152.800 C 4.580 152.800,4.400 153.340,4.400 154.000 C 4.400 154.660,4.244 155.200,4.052 155.200 C 3.861 155.200,3.683 156.134,3.658 157.274 C 3.632 158.415,3.429 159.531,3.206 159.754 C 2.982 159.978,2.800 160.664,2.800 161.280 C 2.800 161.896,2.620 162.400,2.400 162.400 C 2.173 162.400,2.000 163.573,2.000 165.120 C 2.000 166.616,1.832 168.011,1.626 168.220 C 1.420 168.429,1.196 169.635,1.128 170.900 C 1.060 172.165,0.879 173.200,0.725 173.200 C 0.092 173.200,-0.068 225.204,0.560 226.600 C 0.991 227.557,1.112 228.122,1.313 230.099 C 1.396 230.923,1.585 231.718,1.732 231.866 C 1.880 232.013,2.000 233.363,2.000 234.867 C 2.000 236.422,2.172 237.600,2.400 237.600 C 2.620 237.600,2.800 238.125,2.800 238.767 C 2.800 239.408,2.975 239.993,3.188 240.067 C 3.401 240.140,3.609 241.235,3.649 242.500 C 3.690 243.765,3.876 244.800,4.062 244.800 C 4.248 244.800,4.400 245.340,4.400 246.000 C 4.400 246.660,4.580 247.200,4.800 247.200 C 5.020 247.200,5.200 247.999,5.200 248.976 C 5.200 249.953,5.380 250.864,5.600 251.000 C 5.820 251.136,6.000 251.946,6.000 252.800 C 6.000 253.654,6.180 254.464,6.400 254.600 C 6.620 254.736,6.800 255.197,6.800 255.624 C 6.800 256.051,6.980 256.400,7.200 256.400 C 7.420 256.400,7.600 257.120,7.600 258.000 C 7.600 258.880,7.740 259.600,7.911 259.600 C 8.083 259.600,8.541 260.725,8.931 262.100 C 9.320 263.475,9.841 265.050,10.089 265.600 C 10.337 266.150,10.506 266.742,10.464 266.916 C 10.423 267.090,10.609 267.630,10.879 268.116 C 11.148 268.602,11.322 269.225,11.266 269.500 C 11.211 269.775,11.353 270.000,11.582 270.000 C 11.812 270.000,12.000 270.529,12.000 271.176 C 12.000 271.823,12.180 272.464,12.400 272.600 C 12.620 272.736,12.800 273.184,12.800 273.595 C 12.800 274.006,13.115 274.658,13.500 275.043 C 13.885 275.428,14.159 275.800,14.110 275.870 C 13.864 276.214,14.565 278.439,15.044 278.836 C 15.345 279.086,15.493 279.450,15.372 279.645 C 15.251 279.840,15.343 280.000,15.576 280.000 C 15.809 280.000,16.000 280.428,16.000 280.951 C 16.000 281.474,16.268 282.124,16.596 282.396 C 16.923 282.668,17.093 283.050,16.972 283.245 C 16.851 283.440,16.943 283.600,17.176 283.600 C 17.409 283.600,17.600 283.949,17.600 284.376 C 17.600 284.803,17.780 285.264,18.000 285.400 C 18.220 285.536,18.400 286.097,18.400 286.647 C 18.400 287.197,18.550 287.555,18.732 287.442 C 18.915 287.329,19.309 287.858,19.607 288.618 C 19.905 289.378,20.296 290.000,20.475 290.000 C 20.654 290.000,20.800 290.278,20.800 290.617 C 20.800 290.956,21.160 291.620,21.600 292.092 C 22.040 292.564,22.400 293.367,22.400 293.875 C 22.400 294.384,22.580 294.800,22.800 294.800 C 23.020 294.800,23.200 295.160,23.200 295.600 C 23.200 296.040,23.345 296.400,23.522 296.400 C 23.700 296.400,24.710 298.110,25.769 300.200 C 26.827 302.290,27.852 304.000,28.047 304.000 C 28.241 304.000,28.400 304.360,28.400 304.800 C 28.400 305.240,28.552 305.600,28.737 305.600 C 28.923 305.600,29.497 306.422,30.014 307.427 C 30.531 308.432,31.279 309.428,31.677 309.641 C 32.075 309.854,32.407 310.337,32.416 310.714 C 32.425 311.091,32.965 312.023,33.616 312.785 C 34.267 313.547,34.800 314.402,34.800 314.685 C 34.800 314.968,34.980 315.200,35.200 315.200 C 35.420 315.200,35.601 315.425,35.602 315.700 C 35.603 315.975,36.143 316.775,36.802 317.478 C 37.461 318.181,38.000 318.901,38.000 319.078 C 38.001 319.403,39.121 320.801,41.143 323.000 C 41.750 323.660,42.831 325.056,43.545 326.103 C 44.259 327.150,45.283 328.447,45.821 328.985 C 46.360 329.523,46.800 330.152,46.800 330.382 C 46.800 330.612,47.070 330.800,47.400 330.800 C 47.730 330.800,48.000 330.999,48.000 331.242 C 48.000 331.872,49.862 334.005,50.156 333.711 C 50.290 333.577,50.400 333.681,50.400 333.942 C 50.400 334.622,54.664 338.796,55.026 338.471 C 55.192 338.322,55.210 338.407,55.066 338.659 C 54.773 339.172,56.613 341.304,57.700 341.712 C 58.085 341.857,58.400 342.251,58.400 342.587 C 58.400 342.933,58.748 343.200,59.200 343.200 C 59.733 343.200,60.000 343.467,60.000 344.000 C 60.000 344.440,60.172 344.800,60.382 344.800 C 60.592 344.800,61.778 345.790,63.018 347.000 C 64.257 348.210,65.435 349.200,65.635 349.200 C 65.836 349.200,66.000 349.500,66.000 349.867 C 66.000 350.233,66.110 350.423,66.244 350.289 C 66.379 350.154,66.935 350.574,67.480 351.222 C 68.025 351.870,68.659 352.400,68.888 352.400 C 69.118 352.400,70.118 353.213,71.112 354.207 C 72.106 355.201,72.997 355.936,73.093 355.840 C 73.189 355.745,73.578 355.967,73.958 356.333 C 74.339 356.700,75.526 357.720,76.596 358.600 C 77.666 359.480,78.767 360.425,79.042 360.700 C 79.318 360.975,79.666 361.200,79.816 361.200 C 79.966 361.200,80.949 361.920,82.000 362.800 C 83.051 363.680,84.111 364.400,84.356 364.400 C 84.600 364.400,84.800 364.580,84.800 364.800 C 84.800 365.020,85.025 365.200,85.300 365.201 C 85.575 365.201,86.419 365.731,87.176 366.378 C 87.932 367.024,88.699 367.463,88.879 367.351 C 89.058 367.240,89.314 367.431,89.446 367.775 C 89.578 368.119,89.908 368.400,90.181 368.400 C 90.453 368.400,90.998 368.756,91.391 369.191 C 91.785 369.625,92.230 369.905,92.381 369.812 C 92.531 369.719,93.129 370.083,93.710 370.621 C 94.290 371.160,95.028 371.600,95.349 371.600 C 95.670 371.600,95.993 371.742,96.067 371.915 C 96.271 372.397,99.998 374.478,100.012 374.117 C 100.019 373.943,100.208 374.115,100.432 374.500 C 100.656 374.885,101.157 375.200,101.544 375.200 C 101.932 375.200,102.636 375.560,103.108 376.000 C 103.580 376.440,104.244 376.800,104.583 376.800 C 104.922 376.800,105.200 376.980,105.200 377.200 C 105.200 377.420,105.560 377.600,106.000 377.600 C 106.440 377.600,106.800 377.780,106.800 378.000 C 106.800 378.220,107.160 378.400,107.600 378.400 C 108.040 378.400,108.400 378.580,108.400 378.800 C 108.400 379.020,108.745 379.200,109.167 379.200 C 109.588 379.200,109.993 379.342,110.067 379.515 C 110.224 379.886,114.733 382.129,115.593 382.264 C 115.919 382.315,116.249 382.547,116.327 382.781 C 116.405 383.014,116.613 383.116,116.789 383.007 C 116.965 382.898,117.332 383.077,117.604 383.404 C 117.876 383.732,118.526 384.000,119.049 384.000 C 119.572 384.000,120.000 384.136,120.000 384.302 C 120.000 384.617,120.608 384.896,124.600 386.413 C 125.920 386.914,127.171 387.477,127.380 387.662 C 127.589 387.848,128.264 388.000,128.880 388.000 C 129.496 388.000,130.000 388.210,130.000 388.467 C 130.000 388.723,130.114 388.820,130.253 388.681 C 130.392 388.542,130.853 388.614,131.279 388.842 C 132.060 389.260,133.383 389.635,134.300 389.699 C 134.575 389.718,134.800 389.875,134.800 390.049 C 134.800 390.222,135.475 390.472,136.300 390.604 C 137.125 390.736,138.113 391.014,138.495 391.222 C 138.877 391.430,139.562 391.600,140.018 391.600 C 140.474 391.600,140.758 391.744,140.649 391.920 C 140.541 392.096,141.115 392.284,141.926 392.337 C 142.737 392.391,143.460 392.607,143.533 392.818 C 143.607 393.028,144.181 393.200,144.810 393.200 C 145.438 393.200,146.064 393.380,146.200 393.600 C 146.336 393.820,146.966 394.000,147.600 394.000 C 148.234 394.000,148.864 394.180,149.000 394.400 C 149.136 394.620,150.047 394.800,151.024 394.800 C 152.032 394.800,152.800 394.987,152.800 395.233 C 152.800 395.472,153.025 395.592,153.300 395.500 C 154.445 395.118,152.454 393.023,122.300 362.877 C 104.975 345.557,90.800 331.164,90.800 330.893 C 90.800 330.504,107.037 330.400,167.700 330.399 C 240.122 330.399,244.680 330.358,245.972 329.699 C 249.044 328.133,248.986 328.451,249.119 312.483 C 249.205 302.311,249.370 298.142,249.697 297.940 C 249.950 297.784,263.715 297.648,280.287 297.638 C 298.103 297.627,310.700 297.467,311.109 297.246 C 311.489 297.041,312.250 296.392,312.800 295.805 L 313.800 294.736 313.899 211.868 C 313.954 166.291,314.097 128.739,314.217 128.421 C 314.363 128.033,328.599 141.970,357.118 170.421 L 399.800 213.000 399.905 197.682 C 400.017 181.230,399.391 169.435,398.336 168.134 C 398.129 167.878,397.953 166.574,397.947 165.238 C 397.941 163.901,397.770 162.705,397.568 162.580 C 397.365 162.455,397.200 161.838,397.200 161.210 C 397.200 160.581,397.025 160.007,396.812 159.933 C 396.599 159.860,396.391 158.765,396.351 157.500 C 396.310 156.235,396.124 155.200,395.938 155.200 C 395.752 155.200,395.600 154.660,395.600 154.000 C 395.600 153.340,395.420 152.800,395.200 152.800 C 394.980 152.800,394.800 151.990,394.800 151.000 C 394.800 150.010,394.620 149.200,394.400 149.200 C 394.180 149.200,394.000 148.401,394.000 147.424 C 394.000 146.447,393.820 145.536,393.600 145.400 C 393.380 145.264,393.200 144.803,393.200 144.376 C 393.200 143.949,393.020 143.600,392.800 143.600 C 392.580 143.600,392.400 142.880,392.400 142.000 C 392.400 141.120,392.248 140.400,392.063 140.400 C 391.664 140.400,390.800 137.683,390.800 136.430 C 390.800 135.948,390.640 135.651,390.445 135.772 C 390.250 135.893,390.110 135.768,390.134 135.496 C 390.212 134.625,388.708 130.000,388.347 130.000 C 388.156 130.000,388.000 129.648,388.000 129.219 C 388.000 128.789,387.798 127.934,387.550 127.319 C 387.303 126.703,386.922 125.750,386.704 125.200 C 386.485 124.650,386.148 123.887,385.953 123.505 C 385.759 123.123,385.600 122.560,385.600 122.254 C 385.600 121.948,385.332 121.476,385.004 121.204 C 384.677 120.932,384.507 120.550,384.628 120.355 C 384.749 120.160,384.657 120.000,384.424 120.000 C 384.191 120.000,384.000 119.638,384.000 119.195 C 384.000 118.372,383.260 116.791,382.673 116.360 C 382.494 116.228,382.300 115.868,382.242 115.560 C 382.050 114.533,380.616 111.600,380.306 111.600 C 380.138 111.600,380.000 111.240,380.000 110.800 C 380.000 110.360,379.864 110.000,379.698 110.000 C 379.349 110.000,378.177 107.549,378.311 107.100 C 378.360 106.935,378.220 106.800,378.000 106.800 C 377.780 106.800,377.600 106.440,377.600 106.000 C 377.600 105.560,377.465 105.199,377.300 105.197 C 377.135 105.195,376.797 104.790,376.550 104.297 C 374.023 99.268,373.310 98.014,373.075 98.192 C 372.924 98.306,372.887 98.283,372.992 98.141 C 373.204 97.857,371.691 94.908,370.910 94.081 C 370.640 93.796,370.122 92.935,369.758 92.168 C 369.394 91.400,368.759 90.592,368.348 90.372 C 367.937 90.152,367.600 89.652,367.600 89.261 C 367.600 88.871,367.285 88.202,366.900 87.775 C 366.515 87.349,365.945 86.505,365.632 85.900 C 365.320 85.295,364.915 84.800,364.732 84.800 C 364.550 84.800,364.395 84.575,364.389 84.300 C 364.382 84.025,363.662 82.997,362.789 82.014 C 361.915 81.032,361.200 80.086,361.200 79.911 C 361.200 79.635,359.923 78.048,358.572 76.644 C 358.337 76.400,357.449 75.210,356.599 74.000 C 355.749 72.790,354.637 71.472,354.127 71.071 C 353.617 70.670,353.200 70.085,353.200 69.771 C 353.200 69.457,353.055 69.200,352.877 69.200 C 352.699 69.200,352.024 68.484,351.377 67.609 C 350.730 66.735,349.945 66.015,349.633 66.009 C 349.322 66.004,349.179 65.888,349.315 65.751 C 349.452 65.615,348.852 64.819,347.982 63.983 C 347.112 63.147,346.400 62.375,346.400 62.268 C 346.400 61.877,342.960 58.547,342.290 58.290 C 341.911 58.144,341.600 57.841,341.600 57.616 C 341.600 56.930,339.128 54.799,338.649 55.072 C 338.402 55.213,338.324 55.190,338.476 55.022 C 338.796 54.665,337.049 52.800,336.395 52.800 C 336.152 52.800,336.064 52.620,336.200 52.400 C 336.336 52.180,336.137 52.000,335.757 52.000 C 335.377 52.000,335.181 51.885,335.321 51.745 C 335.685 51.382,331.911 48.008,331.455 48.290 C 331.247 48.418,331.206 48.315,331.364 48.059 C 331.530 47.790,331.346 47.483,330.925 47.329 C 330.526 47.183,329.704 46.554,329.098 45.933 C 328.492 45.311,327.052 44.142,325.898 43.336 C 324.744 42.529,323.485 41.511,323.100 41.073 C 322.715 40.636,322.400 40.404,322.400 40.559 C 322.400 40.714,321.974 40.382,321.454 39.821 C 320.934 39.259,320.342 38.800,320.140 38.800 C 319.937 38.800,318.968 38.085,317.986 37.211 C 317.003 36.338,315.955 35.618,315.656 35.611 C 315.356 35.605,314.251 34.880,313.200 34.000 C 312.149 33.120,311.089 32.400,310.844 32.400 C 310.600 32.400,310.400 32.220,310.400 32.000 C 310.400 31.780,310.152 31.600,309.849 31.600 C 309.546 31.600,309.058 31.311,308.765 30.958 C 308.222 30.303,306.441 29.419,305.900 29.535 C 305.735 29.571,305.600 29.433,305.600 29.229 C 305.600 28.802,302.344 26.798,298.000 24.552 C 296.350 23.698,294.940 22.865,294.867 22.700 C 294.793 22.535,294.388 22.400,293.967 22.400 C 293.545 22.400,293.200 22.220,293.200 22.000 C 293.200 21.780,292.840 21.600,292.400 21.600 C 291.960 21.600,291.600 21.420,291.600 21.200 C 291.600 20.980,291.330 20.800,291.000 20.800 C 290.670 20.800,290.400 20.609,290.400 20.376 C 290.400 20.143,290.209 20.071,289.975 20.216 C 289.741 20.360,289.246 20.218,288.875 19.900 C 288.269 19.380,286.923 18.753,286.400 18.746 C 286.290 18.744,285.930 18.513,285.600 18.232 C 285.025 17.743,283.709 17.107,283.120 17.035 C 282.966 17.016,282.615 16.775,282.340 16.500 C 282.065 16.225,281.426 16.000,280.920 16.000 C 280.414 16.000,280.000 15.841,280.000 15.647 C 280.000 15.287,278.481 14.666,277.858 14.771 C 277.670 14.802,277.265 14.620,276.958 14.365 C 276.651 14.110,276.397 14.059,276.394 14.251 C 276.391 14.443,276.256 14.420,276.094 14.199 C 275.594 13.519,272.773 12.329,271.235 12.150 C 270.705 12.088,270.165 11.884,270.035 11.696 C 269.662 11.154,267.287 10.299,266.869 10.557 C 266.661 10.686,266.285 10.543,266.033 10.239 C 265.781 9.936,264.230 9.371,262.587 8.984 C 260.944 8.597,259.600 8.127,259.600 7.940 C 259.600 7.753,258.880 7.600,258.000 7.600 C 257.120 7.600,256.400 7.420,256.400 7.200 C 256.400 6.980,255.871 6.800,255.224 6.800 C 254.577 6.800,253.936 6.620,253.800 6.400 C 253.664 6.180,253.034 6.000,252.400 6.000 C 251.766 6.000,251.158 5.856,251.049 5.680 C 250.940 5.504,250.075 5.315,249.126 5.260 C 248.177 5.205,247.340 4.989,247.267 4.780 C 247.193 4.571,246.608 4.400,245.967 4.400 C 245.325 4.400,244.800 4.220,244.800 4.000 C 244.800 3.780,243.821 3.600,242.624 3.600 C 241.427 3.600,240.360 3.459,240.254 3.287 C 240.148 3.115,239.465 2.929,238.737 2.874 C 238.009 2.818,237.239 2.599,237.027 2.387 C 236.814 2.174,235.632 2.000,234.400 2.000 C 233.168 2.000,231.989 1.833,231.780 1.630 C 231.571 1.426,230.410 1.214,229.200 1.158 C 227.990 1.101,226.872 0.863,226.715 0.628 C 226.374 0.117,181.746 -0.080,176.400 0.406 M282.799 100.999 L 310.400 128.598 310.400 210.367 C 310.400 285.894,310.349 292.193,309.738 292.869 C 309.108 293.564,307.660 293.600,279.999 293.600 C 248.044 293.600,249.767 293.469,247.397 296.081 C 245.159 298.547,245.200 298.251,245.200 311.873 L 245.200 324.556 244.125 325.678 L 243.050 326.800 167.487 326.800 L 91.923 326.800 90.762 325.973 L 89.600 325.146 89.600 216.504 C 89.600 115.974,89.649 107.808,90.262 107.131 C 90.892 106.436,92.342 106.400,120.067 106.400 C 151.486 106.400,149.769 106.517,152.319 104.203 C 154.793 101.958,154.800 101.911,154.800 88.200 C 154.800 77.633,154.897 75.529,155.432 74.457 L 156.063 73.191 205.631 73.295 L 255.198 73.400 282.799 100.999 M162.800 77.818 C 162.250 78.111,161.170 79.002,160.400 79.798 L 159.000 81.244 159.000 91.800 L 159.000 102.356 160.397 103.797 C 162.951 106.432,162.745 106.400,177.309 106.400 L 190.494 106.400 191.947 107.641 C 193.077 108.606,205.889 121.293,211.657 127.159 C 212.176 127.687,219.472 134.947,227.870 143.293 C 236.269 151.640,243.246 158.678,243.375 158.934 C 243.503 159.190,243.954 159.940,244.375 160.600 C 245.121 161.769,245.142 163.413,245.171 223.439 C 245.203 290.751,245.040 286.166,247.485 288.473 C 249.545 290.418,250.051 290.449,277.085 290.321 L 302.370 290.200 304.385 288.215 L 306.400 286.230 306.371 211.015 C 306.338 125.934,306.702 134.369,302.974 132.309 L 301.000 131.219 277.180 131.209 C 259.197 131.202,253.242 131.082,252.880 130.720 C 252.517 130.357,252.400 124.434,252.400 106.515 C 252.400 80.956,252.503 82.216,250.203 79.681 C 247.800 77.032,250.816 77.196,205.239 77.242 C 171.552 77.277,163.613 77.385,162.800 77.818 M248.400 106.400 C 248.588 129.895,248.645 131.474,249.347 132.633 C 250.844 135.105,249.516 134.982,277.000 135.200 L 302.200 135.400 302.200 210.722 L 302.200 286.044 275.800 286.045 L 249.400 286.047 249.200 223.123 C 249.050 175.777,248.883 160.002,248.528 159.400 C 247.915 158.362,192.716 103.209,191.741 102.661 C 191.266 102.393,187.304 102.283,180.687 102.353 C 175.015 102.413,168.580 102.335,166.387 102.180 L 162.400 101.897 162.400 91.815 C 162.400 86.270,162.521 81.613,162.668 81.465 C 162.816 81.317,182.121 81.242,205.568 81.298 L 248.200 81.400 248.400 106.400 M258.001 87.847 L 256.400 89.293 256.400 106.562 L 256.400 123.830 258.415 125.815 L 260.430 127.800 276.115 127.923 C 294.657 128.069,295.367 127.958,297.070 124.665 C 298.057 122.755,297.254 121.814,279.718 104.339 C 260.363 85.049,260.762 85.352,258.001 87.847 M293.598 123.304 C 293.599 123.472,286.085 123.562,276.900 123.504 L 260.200 123.400 260.095 107.201 C 260.038 98.291,260.091 90.739,260.215 90.418 C 260.426 89.867,293.592 122.539,293.598 123.304 M98.000 109.879 C 97.670 109.998,96.545 110.922,95.500 111.932 L 93.600 113.770 93.629 215.985 C 93.657 312.722,93.696 318.264,94.361 319.399 C 94.747 320.058,95.949 321.077,97.032 321.662 L 99.000 322.728 167.439 322.764 C 243.030 322.804,236.864 323.023,239.603 320.197 L 241.000 318.756 241.000 243.393 L 241.000 168.031 239.015 166.015 L 237.030 164.000 212.795 164.000 C 194.479 164.000,188.443 163.883,188.080 163.520 C 187.717 163.157,187.600 157.160,187.600 138.981 C 187.600 112.786,187.679 113.738,185.315 111.544 C 184.702 110.975,183.588 110.304,182.840 110.054 C 181.443 109.588,99.282 109.418,98.000 109.879 M182.688 113.996 C 183.066 113.999,183.202 119.633,183.288 138.931 L 183.400 163.863 184.516 165.326 C 186.490 167.914,185.112 167.782,212.400 168.000 L 237.400 168.200 237.400 243.400 L 237.400 318.600 167.500 318.701 L 97.600 318.802 97.600 216.468 C 97.600 160.184,97.675 114.058,97.767 113.967 C 97.883 113.851,168.300 113.875,182.688 113.996 M192.978 120.100 C 190.734 122.576,190.800 121.992,190.803 139.295 C 190.806 161.964,188.829 160.084,212.481 159.916 L 228.762 159.800 230.381 158.219 C 233.598 155.077,234.202 155.914,214.544 136.256 C 195.182 116.895,195.600 117.208,192.978 120.100 M212.096 139.100 L 228.815 155.800 227.507 156.076 C 225.828 156.430,198.577 156.502,196.427 156.158 L 194.800 155.898 194.800 139.149 C 194.800 129.937,194.930 122.400,195.089 122.400 C 195.248 122.400,202.901 129.915,212.096 139.100 M398.800 226.400 C 398.800 227.147,398.907 227.253,399.280 226.880 C 399.653 226.507,399.653 226.293,399.280 225.920 C 398.907 225.547,398.800 225.653,398.800 226.400 M397.443 236.233 C 397.103 237.119,397.140 237.600,397.550 237.600 C 397.743 237.600,397.900 237.150,397.900 236.600 C 397.900 235.442,397.783 235.347,397.443 236.233 M393.206 253.900 C 393.211 254.757,393.298 254.868,393.600 254.400 C 394.106 253.617,394.106 252.800,393.600 252.800 C 393.380 252.800,393.203 253.295,393.206 253.900 M350.900 332.223 C 350.311 332.863,350.262 333.200,350.757 333.200 C 351.098 333.200,351.737 331.996,351.509 331.783 C 351.449 331.727,351.175 331.925,350.900 332.223 M309.341 368.397 C 308.868 368.588,308.370 368.924,308.234 369.145 C 308.098 369.365,308.530 369.275,309.193 368.943 C 309.857 368.612,310.400 368.265,310.400 368.171 C 310.400 367.966,310.420 367.962,309.341 368.397 M172.800 399.200 C 173.130 399.413,173.670 399.588,174.000 399.588 C 174.533 399.588,174.533 399.545,174.000 399.200 C 173.670 398.987,173.130 398.812,172.800 398.812 C 172.267 398.812,172.267 398.855,172.800 399.200 " stroke="none" fill="#fc6c54" fill-rule="evenodd"></path><path id="path1" d="M162.668 81.465 C 162.521 81.613,162.400 86.270,162.400 91.815 L 162.400 101.897 166.387 102.180 C 168.580 102.335,175.015 102.413,180.687 102.353 C 187.304 102.283,191.266 102.393,191.741 102.661 C 192.716 103.209,247.915 158.362,248.528 159.400 C 248.883 160.002,249.050 175.777,249.200 223.123 L 249.400 286.047 275.800 286.045 L 302.200 286.044 302.200 210.722 L 302.200 135.400 277.000 135.200 C 249.516 134.982,250.844 135.105,249.347 132.633 C 248.645 131.474,248.588 129.895,248.400 106.400 L 248.200 81.400 205.568 81.298 C 182.121 81.242,162.816 81.317,162.668 81.465 M260.215 90.418 C 260.091 90.739,260.038 98.291,260.095 107.201 L 260.200 123.400 276.900 123.504 C 286.085 123.562,293.599 123.472,293.598 123.304 C 293.592 122.539,260.426 89.867,260.215 90.418 M97.767 113.967 C 97.675 114.058,97.600 160.184,97.600 216.468 L 97.600 318.802 167.500 318.701 L 237.400 318.600 237.400 243.400 L 237.400 168.200 212.400 168.000 C 185.112 167.782,186.490 167.914,184.516 165.326 L 183.400 163.863 183.288 138.931 C 183.202 119.633,183.066 113.999,182.688 113.996 C 168.300 113.875,97.883 113.851,97.767 113.967 M194.800 139.149 L 194.800 155.898 196.427 156.158 C 198.577 156.502,225.828 156.430,227.507 156.076 L 228.815 155.800 212.096 139.100 C 202.901 129.915,195.248 122.400,195.089 122.400 C 194.930 122.400,194.800 129.937,194.800 139.149 M314.217 128.421 C 314.097 128.739,313.954 166.291,313.899 211.868 L 313.800 294.736 312.800 295.805 C 312.250 296.392,311.489 297.041,311.109 297.246 C 310.700 297.467,298.103 297.627,280.287 297.638 C 263.715 297.648,249.950 297.784,249.697 297.940 C 249.370 298.142,249.205 302.311,249.119 312.483 C 248.986 328.451,249.044 328.133,245.972 329.699 C 244.680 330.358,240.122 330.399,167.700 330.399 C 107.037 330.400,90.800 330.504,90.800 330.893 C 90.800 331.164,104.975 345.563,122.300 362.892 C 139.625 380.220,153.775 394.668,153.744 394.999 C 153.709 395.381,154.036 395.600,154.644 395.600 C 155.170 395.600,155.600 395.746,155.600 395.925 C 155.600 396.104,156.451 396.295,157.491 396.348 C 158.531 396.402,159.476 396.577,159.591 396.737 C 159.706 396.897,160.160 397.017,160.600 397.004 C 161.040 396.990,161.760 397.155,162.200 397.370 C 162.640 397.585,163.990 397.831,165.200 397.918 C 166.410 398.004,167.660 398.283,167.977 398.537 C 168.423 398.895,168.486 398.887,168.253 398.500 C 168.064 398.185,168.184 398.000,168.576 398.000 C 168.919 398.000,169.200 398.148,169.200 398.329 C 169.200 398.509,170.131 398.700,171.269 398.751 C 172.407 398.803,173.622 398.987,173.969 399.159 C 175.708 400.021,223.870 400.139,224.900 399.283 C 225.408 398.861,225.554 398.861,225.696 399.283 C 225.834 399.694,226.012 399.682,226.565 399.226 C 227.152 398.742,227.314 398.738,227.600 399.200 C 227.871 399.639,228.058 399.650,228.534 399.254 C 228.862 398.983,229.853 398.732,230.737 398.696 C 231.620 398.661,232.256 398.490,232.148 398.316 C 232.041 398.142,232.848 398.000,233.943 398.000 C 235.161 398.000,236.012 397.806,236.135 397.500 C 236.290 397.115,236.344 397.121,236.368 397.524 C 236.388 397.840,236.598 397.924,236.900 397.735 C 237.416 397.412,237.953 397.272,239.501 397.057 C 239.996 396.988,240.521 396.812,240.667 396.666 C 240.814 396.520,241.713 396.400,242.667 396.400 C 243.620 396.400,244.400 396.220,244.400 396.000 C 244.400 395.780,244.850 395.600,245.400 395.600 C 245.950 395.600,246.403 395.375,246.406 395.100 C 246.411 394.732,246.503 394.743,246.756 395.143 C 246.996 395.521,247.183 395.551,247.374 395.243 C 247.524 394.999,248.231 394.800,248.944 394.800 C 249.657 394.800,250.482 394.575,250.779 394.300 C 251.217 393.893,251.255 393.912,250.982 394.400 C 250.701 394.903,250.749 394.917,251.277 394.490 C 251.623 394.209,252.566 393.954,253.370 393.924 C 254.175 393.894,254.927 393.719,255.040 393.535 C 255.154 393.351,255.597 393.200,256.024 393.200 C 256.451 393.200,256.800 393.020,256.800 392.800 C 256.800 392.580,257.340 392.400,258.000 392.400 C 258.660 392.400,259.200 392.220,259.200 392.000 C 259.200 391.780,259.391 391.600,259.624 391.600 C 259.857 391.600,259.936 391.780,259.800 392.000 C 259.388 392.667,259.981 392.449,260.895 391.598 C 261.418 391.110,262.046 390.888,262.497 391.031 C 262.905 391.160,263.455 391.088,263.719 390.871 C 263.984 390.654,264.560 390.414,265.000 390.338 C 265.440 390.262,266.044 389.969,266.342 389.686 C 266.646 389.399,267.240 389.286,267.692 389.429 C 268.285 389.617,268.416 389.549,268.184 389.175 C 267.963 388.816,268.059 388.737,268.509 388.910 C 268.860 389.045,269.206 388.981,269.277 388.769 C 269.348 388.556,269.939 388.286,270.591 388.167 C 271.242 388.049,272.040 387.738,272.364 387.476 C 272.844 387.088,272.890 387.111,272.608 387.600 C 272.381 387.993,272.553 387.945,273.106 387.461 C 273.570 387.054,274.139 386.838,274.370 386.981 C 274.601 387.124,275.186 386.872,275.670 386.420 C 276.155 385.969,276.789 385.600,277.081 385.600 C 277.624 385.600,279.242 384.797,279.600 384.350 C 279.710 384.213,280.385 383.974,281.100 383.818 C 281.815 383.663,282.400 383.381,282.400 383.191 C 282.400 383.001,282.760 382.915,283.200 383.000 C 283.640 383.085,284.000 382.999,284.000 382.809 C 284.000 382.619,284.884 382.171,285.965 381.812 C 287.046 381.453,288.035 380.887,288.162 380.554 C 288.290 380.221,288.538 380.038,288.714 380.147 C 289.068 380.366,293.113 378.502,294.149 377.643 C 295.020 376.920,297.220 375.639,298.100 375.342 C 298.485 375.213,298.800 374.948,298.800 374.753 C 298.800 374.559,299.160 374.400,299.600 374.400 C 300.040 374.400,300.400 374.239,300.400 374.043 C 300.400 373.846,300.695 373.572,301.057 373.434 C 301.630 373.214,301.644 373.271,301.163 373.891 C 300.639 374.568,300.651 374.568,301.438 373.900 C 301.892 373.515,302.474 373.200,302.731 373.200 C 302.989 373.200,303.200 373.020,303.200 372.800 C 303.200 372.580,303.476 372.400,303.813 372.400 C 304.149 372.400,304.522 372.146,304.641 371.836 C 304.761 371.526,305.302 371.161,305.845 371.024 C 306.388 370.888,306.725 370.602,306.593 370.388 C 306.377 370.039,306.907 369.848,307.392 370.100 C 307.498 370.155,307.879 369.780,308.239 369.266 C 308.662 368.661,309.160 368.401,309.647 368.528 C 310.062 368.637,310.300 368.562,310.176 368.362 C 310.053 368.162,310.375 367.838,310.892 367.641 C 311.410 367.444,312.073 366.995,312.365 366.642 C 312.658 366.289,313.281 365.997,313.749 365.994 C 314.445 365.989,314.491 365.917,314.000 365.600 C 313.504 365.280,313.541 365.211,314.212 365.206 C 314.658 365.203,315.280 364.844,315.594 364.409 C 316.013 363.827,316.246 363.748,316.476 364.109 C 316.695 364.454,316.790 364.396,316.794 363.914 C 316.797 363.537,317.146 363.043,317.569 362.817 C 317.992 362.590,318.622 362.121,318.969 361.774 C 319.319 361.423,319.600 361.340,319.600 361.587 C 319.600 361.879,319.792 361.854,320.158 361.516 C 320.465 361.232,320.646 360.884,320.560 360.742 C 320.424 360.517,321.444 359.953,322.000 359.946 C 322.110 359.944,322.344 359.686,322.520 359.372 C 322.696 359.057,323.101 358.800,323.420 358.800 C 323.739 358.800,324.000 358.638,324.000 358.440 C 324.000 358.241,324.630 357.707,325.400 357.253 C 326.170 356.799,326.814 356.106,326.832 355.713 C 326.853 355.237,326.934 355.178,327.077 355.536 C 327.225 355.907,327.433 355.784,327.755 355.136 C 328.011 354.621,328.621 354.142,329.110 354.072 C 329.600 354.002,330.000 353.766,330.000 353.549 C 330.000 353.331,330.180 353.264,330.400 353.400 C 330.622 353.537,330.803 353.236,330.806 352.724 C 330.810 352.182,330.934 351.988,331.106 352.256 C 331.319 352.586,331.542 352.558,331.916 352.156 C 332.199 351.850,332.307 351.600,332.154 351.600 C 332.001 351.600,332.198 351.244,332.591 350.809 C 332.985 350.375,333.444 350.104,333.612 350.207 C 333.779 350.311,334.027 350.108,334.161 349.756 C 334.310 349.368,334.658 349.214,335.048 349.363 C 335.495 349.535,335.622 349.435,335.468 349.034 C 335.227 348.406,336.111 347.444,336.537 347.870 C 336.682 348.015,336.800 347.823,336.800 347.443 C 336.800 347.063,336.960 346.851,337.155 346.972 C 337.350 347.092,337.612 346.796,337.739 346.313 C 337.865 345.830,338.087 345.554,338.232 345.698 C 338.547 346.014,339.600 345.037,339.600 344.429 C 339.600 344.193,339.870 344.000,340.200 344.000 C 340.749 344.000,340.984 343.512,340.837 342.670 C 340.806 342.489,340.950 342.446,341.158 342.574 C 341.680 342.896,342.869 341.635,342.542 341.106 C 342.395 340.868,342.462 340.791,342.694 340.934 C 343.249 341.277,346.398 338.194,346.406 337.300 C 346.410 336.826,346.511 336.755,346.717 337.079 C 346.917 337.395,347.222 337.431,347.611 337.185 C 348.093 336.880,348.099 336.811,347.641 336.806 C 347.313 336.803,347.603 336.301,348.341 335.597 C 349.033 334.935,349.600 334.204,349.600 333.973 C 349.600 333.742,349.780 333.664,350.000 333.800 C 350.220 333.936,350.400 333.754,350.400 333.395 C 350.400 332.474,351.469 331.441,351.736 332.104 C 351.851 332.387,351.950 332.290,351.968 331.876 C 351.986 331.478,352.180 331.264,352.400 331.400 C 352.620 331.536,352.800 331.386,352.800 331.066 C 352.800 330.747,353.070 330.382,353.400 330.255 C 353.730 330.129,354.000 329.649,354.000 329.189 C 354.000 328.729,354.135 328.425,354.300 328.513 C 354.465 328.601,354.915 328.342,355.300 327.937 C 355.685 327.531,355.918 327.200,355.818 327.200 C 355.718 327.200,356.088 326.748,356.640 326.197 C 357.192 325.645,357.533 325.015,357.398 324.797 C 357.163 324.417,357.754 324.215,358.600 324.386 C 358.820 324.430,358.867 324.333,358.703 324.170 C 358.540 324.007,358.607 323.632,358.852 323.337 C 359.097 323.042,359.179 322.800,359.033 322.800 C 358.888 322.800,359.001 322.549,359.284 322.242 C 359.568 321.935,359.935 321.766,360.100 321.866 C 360.265 321.965,360.400 321.767,360.400 321.424 C 360.400 321.081,360.591 320.800,360.824 320.800 C 361.057 320.800,361.136 320.620,361.000 320.400 C 360.864 320.180,360.990 320.000,361.280 320.000 C 361.570 320.000,362.044 319.621,362.333 319.158 C 362.743 318.502,362.747 318.385,362.351 318.630 C 362.071 318.803,362.252 318.370,362.752 317.668 C 363.252 316.965,363.855 316.511,364.092 316.657 C 364.330 316.804,364.416 316.750,364.285 316.537 C 363.960 316.012,365.374 313.915,365.794 314.297 C 365.978 314.464,366.013 314.398,365.872 314.152 C 365.732 313.905,365.973 313.292,366.408 312.790 C 366.844 312.288,367.200 311.738,367.200 311.567 C 367.200 311.397,367.464 310.994,367.786 310.671 C 368.108 310.349,368.423 309.848,368.486 309.558 C 368.662 308.745,369.360 308.059,369.762 308.304 C 369.961 308.425,369.991 308.309,369.828 308.046 C 369.652 307.761,369.952 307.239,370.570 306.752 C 371.141 306.303,371.518 305.791,371.408 305.613 C 371.299 305.436,371.475 305.070,371.800 304.800 C 372.125 304.530,372.299 304.161,372.187 303.979 C 372.075 303.798,372.302 303.464,372.692 303.237 C 373.081 303.010,373.237 302.819,373.038 302.812 C 372.839 302.805,372.961 302.485,373.310 302.100 C 373.658 301.715,373.958 301.220,373.976 301.000 C 374.060 299.999,374.492 299.209,374.839 299.424 C 375.048 299.553,375.194 299.511,375.163 299.330 C 374.931 297.998,375.291 296.825,376.000 296.600 C 376.565 296.421,376.800 295.995,376.800 295.149 C 376.800 294.454,376.967 294.056,377.200 294.200 C 377.420 294.336,377.600 294.246,377.600 294.000 C 377.600 293.754,377.780 293.664,378.000 293.800 C 378.220 293.936,378.400 293.687,378.400 293.247 C 378.400 292.807,378.580 292.336,378.800 292.200 C 379.020 292.064,379.200 291.593,379.200 291.153 C 379.200 290.650,379.372 290.459,379.662 290.638 C 379.936 290.807,380.015 290.749,379.858 290.494 C 379.712 290.258,379.863 289.794,380.193 289.464 C 380.648 289.010,380.673 288.814,380.296 288.657 C 379.937 288.507,379.992 288.294,380.494 287.886 C 380.875 287.575,381.070 287.204,380.927 287.060 C 380.784 286.917,380.857 286.800,381.089 286.800 C 381.322 286.800,381.751 285.990,382.043 285.000 C 382.335 284.010,382.715 283.200,382.887 283.200 C 383.059 283.200,383.200 282.924,383.200 282.586 C 383.200 282.248,383.486 281.536,383.834 281.004 C 384.183 280.471,384.365 279.868,384.239 279.663 C 384.112 279.458,384.367 279.197,384.804 279.083 C 385.341 278.943,385.600 278.537,385.600 277.837 C 385.600 277.267,385.786 276.800,386.014 276.800 C 386.295 276.800,386.290 276.542,386.000 276.000 C 385.650 275.346,385.696 275.200,386.253 275.200 C 386.627 275.200,386.819 275.085,386.678 274.945 C 386.538 274.805,386.778 274.192,387.212 273.583 C 387.645 272.975,388.000 272.020,388.000 271.462 C 388.000 270.904,388.183 270.334,388.407 270.196 C 388.630 270.058,388.721 269.796,388.609 269.614 C 388.496 269.433,388.662 269.185,388.976 269.065 C 389.293 268.943,389.537 268.345,389.523 267.723 C 389.484 265.913,389.576 265.538,389.995 265.797 C 390.221 265.936,390.290 265.779,390.157 265.431 C 390.028 265.095,390.223 264.520,390.590 264.153 C 391.008 263.735,391.172 263.144,391.029 262.574 C 390.747 261.451,391.116 260.400,391.792 260.400 C 392.123 260.400,392.283 259.842,392.255 258.782 C 392.232 257.891,392.399 257.036,392.626 256.882 C 392.853 256.727,393.092 255.790,393.157 254.800 C 393.222 253.810,393.456 252.889,393.677 252.753 C 393.898 252.616,394.106 252.031,394.139 251.453 C 394.173 250.874,394.335 250.400,394.500 250.400 C 394.665 250.400,394.800 249.601,394.800 248.624 C 394.800 247.647,394.980 246.736,395.200 246.600 C 395.420 246.464,395.600 245.913,395.600 245.376 C 395.600 244.839,395.780 244.400,396.000 244.400 C 396.220 244.400,396.400 243.601,396.400 242.624 C 396.400 241.647,396.589 240.731,396.819 240.588 C 397.106 240.411,397.091 240.150,396.770 239.764 C 396.412 239.333,396.413 239.200,396.775 239.200 C 397.035 239.200,397.144 239.032,397.017 238.828 C 396.891 238.623,396.953 238.353,397.156 238.227 C 397.359 238.102,397.423 237.611,397.299 237.137 C 397.175 236.663,397.238 236.376,397.438 236.500 C 397.638 236.624,397.857 235.797,397.925 234.662 C 397.993 233.528,398.217 232.429,398.424 232.220 C 398.631 232.011,398.797 231.651,398.794 231.420 C 398.791 231.189,398.613 231.270,398.400 231.600 C 398.187 231.930,398.009 232.005,398.006 231.767 C 398.003 231.528,398.127 231.207,398.282 231.052 C 398.437 230.897,398.628 230.282,398.706 229.685 C 398.785 229.088,399.018 228.429,399.225 228.220 C 399.727 227.711,399.706 226.687,399.200 227.000 C 398.980 227.136,398.800 226.866,398.800 226.400 C 398.800 225.934,398.941 225.640,399.113 225.746 C 399.433 225.944,399.667 222.513,399.753 216.400 L 399.800 213.000 357.118 170.421 C 328.599 141.970,314.363 128.033,314.217 128.421 M8.846 137.067 C 8.821 137.324,8.684 137.864,8.541 138.267 C 8.340 138.836,8.394 138.897,8.779 138.542 C 9.052 138.291,9.189 137.751,9.084 137.342 C 8.979 136.934,8.872 136.810,8.846 137.067 " stroke="none" fill="#ec543c" fill-rule="evenodd"></path></g></svg>